<?xml version="1.0" standalone="no"?>
<!DOCTYPE svg PUBLIC "-//W3C//DTD SVG 1.1//EN" "http://www.w3.org/Graphics/SVG/1.1/DTD/svg11.dtd" >
<svg>
<metadata>
Created by FontForge 20090622 at Mon Jun 15 21:53:03 2015
 By deploy user
Copyright (c) JT Types Ltd, 2006. All rights reserved.
</metadata>
<defs>
<font id="BlissPro-Medium" horiz-adv-x="534" >
  <font-face 
    font-family="Bliss Pro Medium"
    font-weight="500"
    font-stretch="normal"
    units-per-em="1000"
    panose-1="2 0 6 3 5 0 0 2 0 4"
    ascent="800"
    descent="-200"
    x-height="473"
    cap-height="659"
    bbox="-178 -241 1176 953"
    underline-thickness="50"
    underline-position="-50"
    unicode-range="U+0020-U+FB02"
  />
<missing-glyph horiz-adv-x="550" 
d="M50 0v659h450v-659h-450zM101 48h348v563h-348v-563zM231 222q-29 29 -29 60q0 25 20.5 48.5t44.5 38.5t44.5 37.5t20.5 47.5q0 21 -15.5 34t-39.5 13q-41 0 -85 -39l-27 35q49 51 117 51q48 0 77 -25.5t29 -65.5q0 -31 -20.5 -59t-45.5 -45t-45.5 -35.5t-20.5 -32.5
q0 -16 17 -35zM255 107q-16 0 -27 11t-11 28t11 28.5t27 11.5t26.5 -11.5t10.5 -28.5t-10.5 -28t-26.5 -11z" />
    <glyph glyph-name="fi" unicode="fi" horiz-adv-x="565" 
d="M96 0v391h-68v82h68v71q0 81 42 122.5t110 41.5q49 0 91 -19l-21 -83q-33 12 -57 12q-61 0 -61 -72v-73h122l-26 -82h-96v-391h-104zM397 0v473h104v-473h-104zM449 560q-28 0 -46.5 18.5t-18.5 45.5t18.5 45.5t46.5 18.5t46.5 -18t18.5 -46q0 -27 -18.5 -45.5
t-46.5 -18.5z" />
    <glyph glyph-name="fl" unicode="fl" horiz-adv-x="602" 
d="M96 0v391h-68v82h68v71q0 81 42 122.5t110 41.5q49 0 91 -19l-21 -83q-33 12 -57 12q-61 0 -61 -72v-73h122l-26 -82h-96v-391h-104zM396 100v608h104v-579q0 -25 8.5 -35t26.5 -10q12 0 30 6l21 -81q-36 -16 -81 -16q-109 0 -109 107z" />
    <glyph glyph-name=".notdef" horiz-adv-x="550" 
d="M50 0v659h450v-659h-450zM101 48h348v563h-348v-563zM231 222q-29 29 -29 60q0 25 20.5 48.5t44.5 38.5t44.5 37.5t20.5 47.5q0 21 -15.5 34t-39.5 13q-41 0 -85 -39l-27 35q49 51 117 51q48 0 77 -25.5t29 -65.5q0 -31 -20.5 -59t-45.5 -45t-45.5 -35.5t-20.5 -32.5
q0 -16 17 -35zM255 107q-16 0 -27 11t-11 28t11 28.5t27 11.5t26.5 -11.5t10.5 -28.5t-10.5 -28t-26.5 -11z" />
    <glyph glyph-name=".null" horiz-adv-x="0" 
 />
    <glyph glyph-name="nonmarkingreturn" horiz-adv-x="333" 
 />
    <glyph glyph-name="space" unicode=" " horiz-adv-x="220" 
 />
    <glyph glyph-name="exclam" unicode="!" horiz-adv-x="268" 
d="M104 188q-15 84 -18.5 158t-3.5 265v48h104v-49q0 -191 -3.5 -264.5t-18.5 -157.5h-60zM134 -9q-25 0 -42.5 18.5t-17.5 44.5t17.5 44t42.5 18t42.5 -18t17.5 -44t-17.5 -44.5t-42.5 -18.5z" />
    <glyph glyph-name="quotedbl" unicode="&#x22;" horiz-adv-x="376" 
d="M68 479l-12 229h98l-10 -229h-76zM236 479l-12 229h99l-10 -229h-77z" />
    <glyph glyph-name="numbersign" unicode="#" horiz-adv-x="700" 
d="M121 0l36 170h-114v83h132l32 153h-114v82h132l37 171h98l-36 -171h118l37 171h98l-36 -171h115v-82h-133l-33 -153h115v-83h-133l-36 -170h-98l36 170h-119l-36 -170h-98zM273 253h119l33 153h-119z" />
    <glyph glyph-name="dollar" unicode="$" horiz-adv-x="538" 
d="M214 -84v101q-79 7 -148 51l41 78q68 -45 136 -45q45 0 76.5 18.5t31.5 59.5q0 34 -27.5 61t-67 47.5t-79.5 44t-67.5 62.5t-27.5 91q0 60 40 105.5t112 54.5v97h78v-95q65 -7 115 -31v-89q-74 38 -144 38q-43 0 -68 -18.5t-25 -54.5q0 -33 27.5 -59t67 -46t79 -43.5
t67 -63t27.5 -91.5q0 -69 -43.5 -114t-122.5 -57v-102h-78z" />
    <glyph glyph-name="percent" unicode="%" horiz-adv-x="868" 
d="M211 314q-68 0 -112 45.5t-44 129.5q0 85 43.5 130.5t112.5 45.5t112.5 -45.5t43.5 -130.5t-43.5 -130t-112.5 -45zM211 379q35 0 53.5 30t18.5 80q0 51 -18.5 81t-53.5 30t-53.5 -30t-18.5 -81q0 -50 19 -80t53 -30zM657 -10q-69 0 -112.5 45.5t-43.5 130.5
q0 84 44 129.5t112 45.5t112 -45.5t44 -129.5q0 -85 -43.5 -130.5t-112.5 -45.5zM657 55q35 0 53.5 30t18.5 81q0 50 -19 80t-53 30q-35 0 -53.5 -30t-18.5 -80q0 -51 18.5 -81t53.5 -30zM183 0l414 659h87l-414 -659h-87z" />
    <glyph glyph-name="ampersand" unicode="&#x26;" horiz-adv-x="747" 
d="M492 69q-101 -79 -225 -79q-95 0 -153.5 54t-58.5 135q0 124 140 189q-29 33 -41.5 50t-24 44.5t-11.5 57.5q0 61 50 103t134 42q85 0 135 -41t50 -106q0 -101 -138 -172q73 -83 149 -154q62 66 88 147l89 -22q-38 -112 -110 -185q62 -54 111 -54q12 0 26 4l19 -78
q-24 -10 -61 -10q-79 0 -168 75zM282 75q74 0 139 53q-97 91 -170 176q-88 -43 -88 -118q0 -48 33 -79.5t86 -31.5zM290 410q90 45 90 108q0 28 -19.5 49t-58.5 21q-37 0 -57 -19.5t-20 -46.5q0 -44 65 -112z" />
    <glyph glyph-name="quotesingle" unicode="'" horiz-adv-x="208" 
d="M67 479l-12 229h99l-10 -229h-77z" />
    <glyph glyph-name="parenleft" unicode="(" horiz-adv-x="337" 
d="M241 -236q-94 104 -130 226.5t-36 277.5q0 154 36 277t130 229l70 -52q-69 -92 -98 -191.5t-29 -262.5t29 -262.5t98 -189.5z" />
    <glyph glyph-name="parenright" unicode=")" horiz-adv-x="337" 
d="M26 -184q69 90 98 189.5t29 262.5q0 164 -29 263t-99 191l70 52q94 -106 130.5 -229t36.5 -277t-36.5 -276.5t-129.5 -227.5z" />
    <glyph glyph-name="asterisk" unicode="*" horiz-adv-x="484" 
d="M203 332q-1 31 9 89.5t11 71.5q-3 -2 -51 -42.5t-77 -55.5l-39 66q27 17 83 37.5t66 25.5q-6 3 -63 24t-85 39l38 66q29 -15 76 -54.5t53 -43.5q0 3 -11 65.5t-9 95.5h76q2 -33 -8.5 -94l-11.5 -67q6 4 53 43.5t77 54.5l38 -67q-28 -18 -85.5 -38.5t-64.5 -23.5
q6 -3 63.5 -24t85.5 -39l-38 -67q-29 15 -77 55.5t-52 43.5q0 -3 11 -65.5t9 -95.5h-77z" />
    <glyph glyph-name="plus" unicode="+" horiz-adv-x="541" 
d="M222 0v208h-187v87h187v203h97v-203h188v-87h-188v-208h-97z" />
    <glyph glyph-name="comma" unicode="," horiz-adv-x="250" 
d="M36 -121q45 78 45 154q0 31 -6 66l98 18q7 -29 7 -64q0 -109 -86 -203z" />
    <glyph glyph-name="hyphen" unicode="-" horiz-adv-x="362" 
d="M52 204v88h259v-88h-259z" />
    <glyph glyph-name="period" unicode="." horiz-adv-x="250" 
d="M125 -9q-25 0 -42.5 18.5t-17.5 44.5t17.5 44t42.5 18t42.5 -18t17.5 -44t-17.5 -44.5t-42.5 -18.5z" />
    <glyph glyph-name="slash" unicode="/" horiz-adv-x="382" 
d="M14 -35l251 731h104l-252 -731h-103z" />
    <glyph glyph-name="zero" unicode="0" horiz-adv-x="565" 
d="M282 -10q-108 0 -170 87.5t-62 250.5q0 162 62 249.5t170 87.5q109 0 171.5 -87.5t62.5 -249.5q0 -163 -62.5 -250.5t-171.5 -87.5zM282 79q123 0 123 249q0 248 -122 248q-123 0 -123 -248q0 -249 122 -249z" />
    <glyph glyph-name="one" unicode="1" horiz-adv-x="434" 
d="M221 0v555l-153 -72l-36 82l211 99h81v-664h-103z" />
    <glyph glyph-name="two" unicode="2" horiz-adv-x="526" 
d="M32 0q6 68 27 124.5t50 94t63 68t66.5 53t59.5 44t43.5 47t16.5 55.5q0 46 -30.5 68t-77.5 22q-75 0 -167 -45l-29 81q102 53 210 53q100 0 152 -47t52 -123q0 -45 -19.5 -83t-49.5 -64l-66.5 -55l-69.5 -55t-60 -65t-36 -84h305v-89h-440z" />
    <glyph glyph-name="three" unicode="3" horiz-adv-x="546" 
d="M35 26l29 83q69 -30 146 -30q74 0 115 28t41 84q0 71 -77 91q-29 8 -83 8h-82v85h68q155 0 155 105q0 44 -27.5 70t-80.5 26q-75 0 -158 -45l-29 81q96 53 199 53q101 0 153.5 -50.5t52.5 -124.5q0 -103 -103 -146v-2q58 -11 90 -50.5t32 -99.5q0 -89 -66.5 -145.5
t-194.5 -56.5q-103 0 -180 36z" />
    <glyph glyph-name="four" unicode="4" horiz-adv-x="574" 
d="M42 166v71l322 427h75v-412h97v-86h-97v-166h-103v166h-294zM158 250q8 0 38 1t43 1h97v115q0 61 6 136z" />
    <glyph glyph-name="five" unicode="5" horiz-adv-x="522" 
d="M38 23l29 83q59 -27 128 -27t112.5 31.5t43.5 91.5q0 75 -68 101q-36 15 -118 15h-78v341h378l-26 -89h-250v-168h26q75 0 123 -19q60 -22 92 -68t32 -107q0 -97 -66 -157.5t-198 -60.5q-92 0 -160 33z" />
    <glyph glyph-name="six" unicode="6" horiz-adv-x="555" 
d="M293 -10q-106 0 -174.5 79t-68.5 233q0 155 79.5 259t212.5 104q73 0 138 -29l-28 -83q-52 26 -105 26q-74 0 -125.5 -54t-63.5 -156q74 49 158 49q86 0 142.5 -54.5t56.5 -149.5q0 -103 -62 -163.5t-160 -60.5zM294 76q53 0 82 32.5t29 92.5q0 62 -31.5 96.5t-82.5 34.5
q-33 0 -69.5 -14t-61.5 -35q1 -96 39 -151.5t95 -55.5z" />
    <glyph glyph-name="seven" unicode="7" horiz-adv-x="488" 
d="M80 0q65 329 247 570h-282l-25 89h449v-39q-210 -252 -280 -620h-109z" />
    <glyph glyph-name="eight" unicode="8" horiz-adv-x="566" 
d="M279 -10q-108 0 -168.5 49t-60.5 132q0 60 33 103.5t86 64.5v2q-100 52 -100 147q0 77 59 127t158 50q97 0 152 -50t55 -120q0 -100 -102 -151v-2q125 -47 125 -161q0 -84 -62.5 -137.5t-174.5 -53.5zM284 73q52 0 87 26.5t35 73.5q0 23 -10 42t-22 30.5t-36.5 23
t-38.5 16.5t-44 14q-40 -15 -67.5 -44.5t-27.5 -71.5q0 -53 35.5 -81.5t88.5 -28.5zM304 380q79 38 79 107q0 40 -28 67.5t-75 27.5q-44 0 -72.5 -24.5t-28.5 -63.5q0 -25 10 -44.5t29 -32.5t38.5 -21t47.5 -16z" />
    <glyph glyph-name="nine" unicode="9" horiz-adv-x="549" 
d="M208 -10q-81 0 -150 31l26 84q61 -29 123 -29q165 0 183 213h-2q-65 -52 -148 -52q-84 0 -142 51.5t-58 153.5q0 99 62 161t159 62q109 0 173.5 -78.5t64.5 -232.5q0 -173 -74.5 -268.5t-216.5 -95.5zM263 324q37 0 71.5 17.5t56.5 43.5q-1 87 -37 140.5t-96 53.5
q-50 0 -80 -35.5t-30 -93.5q0 -60 30 -93t85 -33z" />
    <glyph glyph-name="colon" unicode=":" horiz-adv-x="250" 
d="M125 323q-25 0 -42.5 18.5t-17.5 44.5t17.5 44t42.5 18t42.5 -18t17.5 -44t-17.5 -44.5t-42.5 -18.5zM125 -9q-25 0 -42.5 18.5t-17.5 44.5t17.5 44t42.5 18t42.5 -18t17.5 -44t-17.5 -44.5t-42.5 -18.5z" />
    <glyph glyph-name="semicolon" unicode=";" horiz-adv-x="250" 
d="M119 323q-25 0 -43 18.5t-18 44.5t17.5 44t43.5 18q25 0 42.5 -18t17.5 -44t-17.5 -44.5t-42.5 -18.5zM36 -121q45 78 45 154q0 31 -6 66l98 18q7 -29 7 -64q0 -109 -86 -203z" />
    <glyph glyph-name="less" unicode="&#x3c;" horiz-adv-x="559" 
d="M54 218v84l424 181v-89l-331 -133v-2l331 -133v-89z" />
    <glyph glyph-name="equal" unicode="=" horiz-adv-x="541" 
d="M35 112v87h472v-87h-472zM35 303v87h472v-87h-472z" />
    <glyph glyph-name="greater" unicode="&#x3e;" horiz-adv-x="559" 
d="M81 37v89l332 133v2l-332 133v89l424 -181v-84z" />
    <glyph glyph-name="question" unicode="?" horiz-adv-x="473" 
d="M145 187q-34 39 -34 85q0 33 19.5 61.5t47 48.5l55 39t47 42t19.5 48q0 31 -20.5 48t-54.5 17q-66 0 -130 -57l-47 68q87 78 193 78q83 0 128.5 -40.5t45.5 -103.5q0 -39 -20.5 -71.5t-50 -55t-58.5 -42t-49.5 -41t-20.5 -44.5q0 -24 17 -45zM194 -9q-25 0 -43 18.5
t-18 44.5t17.5 44t43.5 18q25 0 42.5 -18t17.5 -44t-17.5 -44.5t-42.5 -18.5z" />
    <glyph glyph-name="at" unicode="@" horiz-adv-x="774" 
d="M483 -52l19 -61q-68 -27 -157 -27q-136 0 -223 90.5t-87 240.5q0 171 106 275t260 104q149 0 243.5 -87t94.5 -231q0 -108 -46.5 -165.5t-122.5 -57.5q-40 0 -66.5 21.5t-33.5 61.5h-2q-15 -32 -52.5 -57t-85.5 -25q-54 0 -93.5 38.5t-39.5 119.5q0 98 60.5 160.5
t152.5 62.5q81 0 148 -41l-21 -158q-5 -33 -5 -53q0 -65 47 -65q40 0 63.5 41.5t23.5 111.5q0 110 -68.5 184.5t-198.5 74.5q-124 0 -207.5 -84.5t-83.5 -225.5q0 -129 69 -200.5t176 -71.5q76 0 130 24zM460 252l10 75q-28 18 -62 18q-52 0 -88 -42.5t-36 -111.5
q0 -93 64 -93q40 0 71 37t41 117z" />
    <glyph glyph-name="A" unicode="A" horiz-adv-x="617" 
d="M11 0l253 662h81l261 -662h-113l-65 169h-244l-63 -169h-110zM215 255h181l-54 150l-35 106h-2q-9 -34 -36 -106z" />
    <glyph glyph-name="B" unicode="B" horiz-adv-x="556" 
d="M82 0v659h180q100 0 152 -48t52 -119q0 -46 -22 -83t-61 -55v-2q58 -13 92 -57t34 -103q0 -83 -60 -137.5t-169 -54.5h-198zM187 87h84q131 0 131 104q0 47 -32.5 74t-87.5 27h-95v-205zM187 379h62q55 0 84 26t29 71q0 44 -28 70t-85 26h-62v-193z" />
    <glyph glyph-name="C" unicode="C" horiz-adv-x="615" 
d="M551 123l29 -83q-91 -50 -201 -50q-153 0 -240 92t-87 240q0 146 95 244.5t247 98.5q99 0 169 -33v-98q-79 42 -167 42q-107 0 -169.5 -72t-62.5 -179q0 -110 61.5 -178t165.5 -68q82 0 160 44z" />
    <glyph glyph-name="D" unicode="D" horiz-adv-x="680" 
d="M82 0v659h189q171 0 264 -88.5t93 -236.5q0 -150 -97 -242t-268 -92h-181zM187 89h77q130 0 191 68t61 176q0 110 -64.5 173.5t-189.5 63.5h-75v-481z" />
    <glyph glyph-name="E" unicode="E" horiz-adv-x="491" 
d="M82 0v659h349l-30 -89h-214v-190h213v-89h-213v-202h247v-89h-352z" />
    <glyph glyph-name="F" unicode="F" horiz-adv-x="469" 
d="M82 0v659h351l-30 -89h-216v-190h212v-89h-212v-291h-105z" />
    <glyph glyph-name="G" unicode="G" horiz-adv-x="697" 
d="M622 317v-275q-100 -52 -231 -52q-155 0 -247 91.5t-92 236.5q0 152 98 249.5t257 97.5q99 0 188 -34v-98q-86 43 -180 43q-120 0 -185.5 -68.5t-65.5 -181.5t63 -180t172 -67q72 0 118 22v216h105z" />
    <glyph glyph-name="H" unicode="H" horiz-adv-x="704" 
d="M82 0v659h105v-278h330v278h105v-659h-105v292h-330v-292h-105z" />
    <glyph glyph-name="I" unicode="I" horiz-adv-x="269" 
d="M82 0v659h105v-659h-105z" />
    <glyph glyph-name="J" unicode="J" horiz-adv-x="315" 
d="M-30 -170l21 85q26 -10 57 -10q48 0 64.5 26t16.5 75v653h105v-669q0 -80 -44 -127t-135 -47q-48 0 -85 14z" />
    <glyph glyph-name="K" unicode="K" horiz-adv-x="579" 
d="M82 0v659h105v-288h2l234 288h123l-268 -322l283 -337h-128l-244 293h-2v-293h-105z" />
    <glyph glyph-name="L" unicode="L" horiz-adv-x="444" 
d="M82 0v659h105v-570h237v-89h-342z" />
    <glyph glyph-name="M" unicode="M" horiz-adv-x="811" 
d="M82 0v659h96l177 -258l57 -89h2q18 34 55 93l163 254h97v-659h-105v389q0 66 1 95h-1q-8 -15 -46 -76l-141 -221h-50l-155 226q-33 48 -45 70h-2q2 -28 2 -92v-391h-105z" />
    <glyph glyph-name="N" unicode="N" horiz-adv-x="738" 
d="M656 0h-93l-296 390q-2 3 -81 109h-2q3 -44 3 -106v-393h-105v659h103l285 -375q50 -64 81 -112h2q-2 70 -2 113v374h105v-659z" />
    <glyph glyph-name="O" unicode="O" horiz-adv-x="762" 
d="M381 -10q-145 0 -237 93t-92 244q0 150 92.5 244t236.5 94q145 0 236.5 -94.5t91.5 -243.5q0 -151 -92.5 -244t-235.5 -93zM381 79q98 0 157.5 66.5t59.5 181.5q0 113 -58.5 181t-158.5 68q-98 0 -157.5 -67t-59.5 -182t59.5 -181.5t157.5 -66.5z" />
    <glyph glyph-name="P" unicode="P" horiz-adv-x="531" 
d="M82 0v659h147q92 0 147 -29q103 -54 103 -184q0 -62 -29.5 -113t-91.5 -77q-56 -24 -138 -24h-33v-232h-105zM187 318h40q52 0 83 17q59 28 59 111q0 75 -55 108q-33 19 -88 19h-39v-255z" />
    <glyph glyph-name="Q" unicode="Q" horiz-adv-x="762" 
d="M286 2q-106 27 -170 114t-64 211q0 150 92.5 244t236.5 94q145 0 236.5 -94.5t91.5 -243.5q0 -140 -79.5 -230t-206.5 -102q56 -68 143 -68q40 0 70 12l24 -82q-45 -19 -107 -19q-86 0 -149.5 43.5t-117.5 120.5zM381 79q98 0 157.5 66.5t59.5 181.5q0 113 -58.5 181
t-158.5 68q-98 0 -157.5 -67t-59.5 -182t59.5 -181.5t157.5 -66.5z" />
    <glyph glyph-name="R" unicode="R" horiz-adv-x="573" 
d="M82 0v659h165q89 0 143 -30q91 -46 91 -155q0 -65 -34.5 -109t-95.5 -63v-2q27 -15 81 -106l113 -194h-121l-101 175q-47 83 -74 89h-62v-264h-105zM187 351h56q46 0 79 18q50 30 50 94q0 60 -43 87q-30 23 -85 23h-57v-222z" />
    <glyph glyph-name="S" unicode="S" horiz-adv-x="519" 
d="M50 45l42 80q69 -46 146 -46q51 0 84.5 21t33.5 66q0 38 -29.5 67t-72 50t-84.5 44.5t-71.5 64t-29.5 95.5q0 76 56 127t152 51q93 0 155 -33v-95q-76 39 -152 39q-42 0 -70.5 -19t-28.5 -60q0 -35 29.5 -62.5t71.5 -48.5t84 -45t71.5 -66.5t29.5 -99.5q0 -85 -63 -135
t-164 -50q-113 0 -190 55z" />
    <glyph glyph-name="T" unicode="T" horiz-adv-x="523" 
d="M207 0v570h-191v89h505l-30 -89h-179v-570h-105z" />
    <glyph glyph-name="U" unicode="U" horiz-adv-x="681" 
d="M341 -10q-187 0 -242 132q-22 48 -22 120v417h105v-409q0 -54 16 -89q36 -82 143 -82q106 0 142 82q17 34 17 91v407h105v-417q0 -70 -23 -122q-57 -130 -241 -130z" />
    <glyph glyph-name="V" unicode="V" horiz-adv-x="635" 
d="M275 -4l-265 663h114l144 -373q20 -51 49 -137h2q26 77 50 139l143 371h113l-265 -663h-85z" />
    <glyph glyph-name="W" unicode="W" horiz-adv-x="930" 
d="M240 -4l-230 663h118l123 -385q23 -71 36 -123h3q15 56 38 122l92 272l-40 114h108l129 -381q33 -100 40 -126h2q18 74 34 124l118 383h108l-220 -663h-88l-101 289q-33 96 -39 121h-3q-13 -46 -39 -120l-103 -290h-86z" />
    <glyph glyph-name="X" unicode="X" horiz-adv-x="618" 
d="M15 0l233 331l-216 328h119l164 -248l172 248h116l-228 -325l221 -334h-119l-168 254l-179 -254h-115z" />
    <glyph glyph-name="Y" unicode="Y" horiz-adv-x="569" 
d="M232 0v262l-222 397h115l161 -302h2l157 302h114l-221 -399v-260h-106z" />
    <glyph glyph-name="Z" unicode="Z" horiz-adv-x="562" 
d="M34 0l328 570h-290l-28 89h484l-323 -570h331v-89h-502z" />
    <glyph glyph-name="bracketleft" unicode="[" horiz-adv-x="295" 
d="M74 -234v1007h197v-80h-99v-847h99v-80h-197z" />
    <glyph glyph-name="backslash" unicode="\" horiz-adv-x="388" 
d="M267 -35l-251 731h104l251 -731h-104z" />
    <glyph glyph-name="bracketright" unicode="]" horiz-adv-x="295" 
d="M25 -234v80h99v847h-99v80h197v-1007h-197z" />
    <glyph glyph-name="asciicircum" unicode="^" horiz-adv-x="542" 
d="M72 287l155 372h88l155 -372h-89l-109 279h-2l-109 -279h-89z" />
    <glyph glyph-name="underscore" unicode="_" horiz-adv-x="444" 
d="M0 -125v59h444v-59h-444z" />
    <glyph glyph-name="grave" unicode="`" horiz-adv-x="376" 
d="M162 531l-93 147h116l58 -147h-81z" />
    <glyph glyph-name="a" unicode="a" horiz-adv-x="482" 
d="M344 0l-17 48q-62 -58 -138 -58q-68 0 -111 41.5t-43 108.5q0 88 79 128q42 22 121 25l85 3v20q0 88 -95 88q-65 0 -126 -35l-36 69q82 47 178 47q183 0 183 -169v-182q0 -102 9 -134h-89zM320 225l-71 -3q-50 -1 -76 -16q-33 -18 -33 -60q0 -34 21 -53.5t56 -19.5
q53 0 103 45v107z" />
    <glyph glyph-name="b" unicode="b" horiz-adv-x="522" 
d="M211 -10q-89 0 -147 32v686h104v-240q48 17 96 17q96 0 159 -62t63 -172q0 -121 -77 -191t-198 -70zM227 77q69 0 110.5 46t41.5 122q0 69 -35 111t-96 42q-35 0 -80 -18v-293q29 -10 59 -10z" />
    <glyph glyph-name="c" unicode="c" horiz-adv-x="440" 
d="M271 -10q-110 0 -172.5 68.5t-62.5 174.5q0 108 69.5 180t175.5 72q73 0 125 -31v-89q-52 35 -115 35q-68 0 -108 -46t-40 -118q0 -76 38.5 -118.5t103.5 -42.5q53 0 112 32l30 -72q-65 -45 -156 -45z" />
    <glyph glyph-name="d" unicode="d" horiz-adv-x="528" 
d="M298 -10q-115 0 -188.5 63.5t-73.5 178.5q0 112 72.5 182.5t182.5 70.5q40 0 69 -7v230h104v-684q-65 -34 -166 -34zM298 77q38 0 62 10v303q-32 8 -63 8q-67 0 -110.5 -44t-43.5 -120q0 -73 42.5 -115t112.5 -42z" />
    <glyph glyph-name="e" unicode="e" horiz-adv-x="483" 
d="M447 211h-304q2 -62 39.5 -100t101.5 -38q62 0 119 32l31 -71q-67 -44 -161 -44q-117 0 -176.5 71t-59.5 177q0 109 56 178t151 69q96 0 149.5 -66.5t53.5 -182.5v-25zM142 285h199q-2 50 -26.5 84.5t-71.5 34.5q-46 0 -73 -34.5t-28 -84.5z" />
    <glyph glyph-name="f" unicode="f" horiz-adv-x="332" 
d="M96 0v391h-68v82h68v71q0 81 42 122.5t110 41.5q49 0 91 -19l-21 -83q-33 12 -57 12q-61 0 -61 -72v-73h122l-26 -82h-96v-391h-104z" />
    <glyph glyph-name="g" unicode="g" horiz-adv-x="494" 
d="M232 -237q-100 0 -158 37.5t-58 100.5q0 78 86 117q-32 18 -32 58q0 50 55 91q-77 46 -77 145q0 71 50 122t136 51q53 0 93 -20q5 -3 11 1q41 41 109 41q12 0 30 -3l-21 -76q-22 4 -33 4q-22 0 -38 -10q45 -46 45 -115q0 -78 -53 -126t-138 -48q-35 0 -59 9
q-17 -22 -17 -41q0 -24 32 -35.5t77.5 -17t91.5 -15.5t78 -39t32 -78q0 -67 -64 -110t-178 -43zM244 -162q59 0 94 19t35 48q0 33 -35.5 47.5t-96.5 22t-84 15.5q-47 -31 -47 -71q0 -37 36.5 -59t97.5 -22zM239 214q40 0 65.5 25t25.5 70q0 40 -25.5 67.5t-67.5 27.5
q-40 0 -64.5 -25t-24.5 -69q0 -42 24.5 -69t66.5 -27z" />
    <glyph glyph-name="h" unicode="h" horiz-adv-x="532" 
d="M64 0v708h104v-290q77 67 158 67q64 0 106 -40t42 -130v-315h-104v282q0 53 -16.5 82.5t-60.5 29.5q-57 0 -125 -57v-337h-104z" />
    <glyph glyph-name="i" unicode="i" horiz-adv-x="234" 
d="M65 0v473h104v-473h-104zM117 560q-28 0 -46.5 18.5t-18.5 45.5t18.5 45.5t46.5 18.5t46.5 -18t18.5 -46q0 -27 -18.5 -45.5t-46.5 -18.5z" />
    <glyph glyph-name="j" unicode="j" horiz-adv-x="247" 
d="M-57 -221l20 86q25 -11 50 -11q34 0 49.5 20.5t15.5 67.5v531h104v-548q0 -78 -41.5 -120t-112.5 -42q-50 0 -85 16zM130 560q-28 0 -46.5 18.5t-18.5 45.5t18.5 45.5t46.5 18.5q29 0 47.5 -18t18.5 -46q0 -27 -19 -45.5t-47 -18.5z" />
    <glyph glyph-name="k" unicode="k" horiz-adv-x="475" 
d="M64 0v708h104v-403h2l163 168h120l-198 -204l216 -269h-122l-179 227h-2v-227h-104z" />
    <glyph glyph-name="l" unicode="l" horiz-adv-x="270" 
d="M64 100v608h104v-579q0 -25 8.5 -35t26.5 -10q12 0 30 6l21 -81q-36 -16 -81 -16q-109 0 -109 107z" />
    <glyph glyph-name="m" unicode="m" horiz-adv-x="823" 
d="M59 0v473h87l11 -56q84 68 161 68q89 0 124 -76q88 76 172 76q66 0 108.5 -41.5t42.5 -128.5v-315h-104v286q0 52 -15.5 80t-59.5 28q-56 0 -123 -55q1 -6 1 -22v-317h-104v285q0 52 -15.5 80.5t-58.5 28.5q-57 0 -123 -55v-339h-104z" />
    <glyph glyph-name="n" unicode="n" horiz-adv-x="527" 
d="M59 0v473h88l11 -56q83 68 163 68q64 0 106 -40t42 -130v-315h-104v282q0 53 -16.5 82.5t-60.5 29.5q-57 0 -125 -57v-337h-104z" />
    <glyph glyph-name="o" unicode="o" 
d="M267 -10q-102 0 -166.5 70.5t-64.5 177.5t64 177t167 70q102 0 166 -70t64 -177t-64 -177.5t-166 -70.5zM267 75q58 0 90.5 45t32.5 118q0 72 -32.5 117t-90.5 45t-91 -45t-33 -117q0 -73 33 -118t91 -45z" />
    <glyph glyph-name="p" unicode="p" horiz-adv-x="519" 
d="M59 -237v692q85 30 171 30q121 0 186.5 -65.5t65.5 -181.5q0 -111 -67.5 -179.5t-175.5 -68.5q-39 0 -76 13v-240h-104zM163 92q33 -15 69 -15q69 0 106 43.5t37 118.5q0 79 -40 119t-109 40q-33 0 -63 -9v-297z" />
    <glyph glyph-name="q" unicode="q" horiz-adv-x="524" 
d="M246 -10q-86 0 -148 62t-62 173q0 121 75.5 190.5t191.5 69.5q96 0 163 -29v-693h-104v258q-49 -31 -116 -31zM270 77q48 0 92 31v280q-32 10 -65 10q-73 0 -113.5 -46t-40.5 -123q0 -68 35 -110t92 -42z" />
    <glyph glyph-name="r" unicode="r" horiz-adv-x="349" 
d="M59 0v473h87l12 -55q66 67 131 67q36 0 62 -17l-37 -89q-23 13 -50 13q-44 0 -101 -53v-339h-104z" />
    <glyph glyph-name="s" unicode="s" horiz-adv-x="406" 
d="M23 34l32 77q60 -38 126 -38q89 0 89 59q0 24 -23 40.5t-55.5 28.5t-65 27t-55.5 44.5t-23 73.5q0 61 46.5 100t126.5 39q72 0 131 -23v-89q-67 29 -127 29q-75 0 -75 -50q0 -23 23 -39t56 -28t65.5 -27.5t55.5 -47t23 -76.5q0 -72 -53 -108t-134 -36q-91 0 -163 44z" />
    <glyph glyph-name="t" unicode="t" horiz-adv-x="373" 
d="M227 -10q-59 0 -92.5 32t-33.5 90v279h-83v82h83v109l104 32v-141h142l-26 -82h-116v-256q0 -60 47 -60q39 0 74 24l33 -72q-53 -37 -132 -37z" />
    <glyph glyph-name="u" unicode="u" horiz-adv-x="525" 
d="M210 -10q-42 0 -80.5 21t-56.5 70q-14 36 -14 95v297h104v-283q0 -42 9 -64q18 -46 73 -46q66 0 109 50v343h104v-342q0 -99 9 -131h-90l-17 51q-68 -61 -150 -61z" />
    <glyph glyph-name="v" unicode="v" horiz-adv-x="473" 
d="M197 -3l-190 476h106l124 -341h2l121 341h106l-189 -476h-80z" />
    <glyph glyph-name="w" unicode="w" horiz-adv-x="729" 
d="M174 -3l-166 476h107l104 -339h2l103 339h85l107 -340h2l102 340h103l-168 -476h-81l-107 340h-2l-107 -340h-84z" />
    <glyph glyph-name="x" unicode="x" horiz-adv-x="478" 
d="M8 0l175 238l-169 235h112l115 -164l117 164h110l-171 -235l171 -238h-110l-119 167l-120 -167h-111z" />
    <glyph glyph-name="y" unicode="y" horiz-adv-x="501" 
d="M494 473l-180 -495q-25 -69 -52.5 -113.5t-57.5 -65.5t-56.5 -28.5t-61.5 -7.5q-54 0 -99 20l26 83q36 -17 69 -17q44 0 77.5 35t60.5 117l-212 472h112l147 -350h2l117 350h108z" />
    <glyph glyph-name="z" unicode="z" horiz-adv-x="404" 
d="M17 0l226 391h-190l-22 82h365l-224 -391h221v-82h-376z" />
    <glyph glyph-name="braceleft" unicode="{" horiz-adv-x="346" 
d="M289 -225q-94 7 -132.5 52t-38.5 121v217q0 69 -66 72v72q66 3 66 72v217q0 76 38.5 121t132.5 52l19 -92q-47 -6 -68 -29t-21 -69v-185q0 -112 -74 -122v-2q74 -10 74 -122v-185q0 -46 21 -69t68 -29z" />
    <glyph glyph-name="bar" unicode="|" horiz-adv-x="269" 
d="M84 -236v1016h101v-1016h-101z" />
    <glyph glyph-name="braceright" unicode="}" horiz-adv-x="346" 
d="M38 -133q48 6 69 29t21 69v185q0 112 74 122v2q-74 10 -74 122v185q0 46 -21 69t-69 29l19 92q94 -7 132.5 -52t38.5 -121v-217q0 -69 66 -72v-72q-66 -3 -66 -72v-217q0 -76 -38.5 -121t-132.5 -52z" />
    <glyph glyph-name="asciitilde" unicode="~" horiz-adv-x="541" 
d="M77 202l-52 66q69 69 144 69q39 0 107 -29.5t99 -29.5q43 0 90 43l51 -66q-69 -69 -144 -69q-38 0 -107 29.5t-99 29.5q-42 0 -89 -43z" />
    <glyph glyph-name="exclamdown" unicode="&#xa1;" horiz-adv-x="268" 
d="M134 360q-25 0 -42.5 18t-17.5 44t17.5 44.5t42.5 18.5t42.5 -18.5t17.5 -44.5t-17.5 -44t-42.5 -18zM82 -182v49q0 191 3.5 264.5t18.5 157.5h60q15 -84 18.5 -158t3.5 -265v-48h-104z" />
    <glyph glyph-name="cent" unicode="&#xa2;" horiz-adv-x="538" 
d="M245 0v106q-80 16 -124.5 77t-44.5 144q0 82 47.5 146t124.5 81v105h77v-97q62 -1 106 -28v-83q-46 31 -114 31q-60 0 -99.5 -41t-39.5 -109t37 -108.5t98 -40.5q57 0 111 29l27 -75q-55 -32 -128 -35v-102h-78z" />
    <glyph glyph-name="sterling" unicode="&#xa3;" horiz-adv-x="538" 
d="M63 0v69q91 32 91 224h-74v86h74v69q0 64 20.5 109.5t54 67.5t66 31t66.5 9q61 0 126 -24l-23 -84q-41 19 -89 19q-52 0 -85 -33.5t-33 -105.5v-58h189l-28 -86h-161q0 -156 -62 -214v-2q59 9 114 9h175v-86h-421z" />
    <glyph glyph-name="currency" unicode="&#xa4;" horiz-adv-x="538" 
d="M458 73l-65 66q-58 -38 -124 -38q-68 0 -125 38l-66 -67l-64 63l68 67q-39 55 -39 125t38 125l-68 66l64 63l66 -67q56 39 126 39t126 -39l64 66l63 -63l-66 -65q39 -58 39 -125q0 -68 -40 -126l67 -65zM269 176q61 0 103.5 44.5t42.5 106.5q0 63 -42.5 107t-103.5 44
t-104 -44t-43 -107q0 -62 43 -106.5t104 -44.5z" />
    <glyph glyph-name="yen" unicode="&#xa5;" horiz-adv-x="538" 
d="M217 0v115h-156v69h156v77h-156v69h124l-157 329h112l128 -301h2l127 301h113l-158 -329h125v-69h-156v-77h156v-69h-156v-115h-104z" />
    <glyph glyph-name="brokenbar" unicode="&#xa6;" horiz-adv-x="269" 
d="M84 -236v360h101v-360h-101zM84 419v361h101v-361h-101z" />
    <glyph glyph-name="section" unicode="&#xa7;" horiz-adv-x="547" 
d="M60 -111l42 76q68 -44 143 -44q115 0 115 81q0 35 -30 61t-73 44t-85.5 38.5t-72.5 58t-30 90.5q0 91 80 144q-53 48 -53 119q0 74 52.5 120.5t138.5 46.5q95 0 163 -35l-2 -90q-75 39 -152 39q-42 0 -69.5 -19t-27.5 -55t30.5 -62t74 -44t87 -39.5t74 -60.5t30.5 -95
q0 -92 -82 -142q51 -46 51 -112q0 -86 -61 -129.5t-157 -43.5q-112 0 -186 53zM357 160q45 33 45 84q0 23 -11 42.5t-34 35.5t-44 27t-55.5 27t-53.5 26q-44 -30 -44 -82q0 -24 11.5 -44t34.5 -36t44.5 -27.5t54.5 -27t52 -25.5z" />
    <glyph glyph-name="dieresis" unicode="&#xa8;" horiz-adv-x="376" 
d="M95 549q-23 0 -39.5 16.5t-16.5 39.5t16.5 39.5t39.5 16.5t39 -16.5t16 -39.5t-16 -39.5t-39 -16.5zM281 549q-23 0 -39 16.5t-16 39.5t16 39.5t39 16.5t39 -16.5t16 -39.5t-16 -39.5t-39 -16.5z" />
    <glyph glyph-name="copyright" unicode="&#xa9;" horiz-adv-x="773" 
d="M386 -10q-144 0 -237.5 96.5t-93.5 240.5t93.5 240.5t237.5 96.5t238 -96.5t94 -240.5t-94 -240.5t-238 -96.5zM386 45q116 0 192 79.5t76 202.5t-76 202t-192 79t-192 -79t-76 -202t76 -202.5t192 -79.5zM488 209l22 -51q-56 -32 -117 -32q-84 0 -133.5 55t-49.5 142
q0 86 52 145t138 59q56 0 98 -22v-62q-45 25 -96 25q-57 0 -91.5 -39.5t-34.5 -102.5q0 -66 33 -104.5t89 -38.5q47 0 90 26z" />
    <glyph glyph-name="ordfeminine" unicode="&#xaa;" horiz-adv-x="363" 
d="M28 135v64h306v-64h-306zM250 270l-11 31q-43 -38 -96 -38q-48 0 -80 29.5t-32 78.5q0 51 38.5 79t109.5 30l51 2v10q0 26 -17 39t-45 13q-44 0 -90 -23l-30 54q56 36 130 36q133 0 133 -124v-122q0 -64 9 -95h-70zM230 358v65l-46 -2q-69 -2 -69 -46q0 -20 13 -32.5
t36 -12.5q35 0 66 28z" />
    <glyph glyph-name="guillemotleft" unicode="&#xab;" horiz-adv-x="587" 
d="M284 406l-127 -165l127 -165l-75 -44l-168 209l168 209zM519 406l-128 -165l128 -165l-75 -44l-169 209l169 209z" />
    <glyph glyph-name="logicalnot" unicode="&#xac;" horiz-adv-x="541" 
d="M409 34v208h-374v87h472v-295h-98z" />
    <glyph glyph-name="registered" unicode="&#xae;" horiz-adv-x="576" 
d="M286 180q-104 0 -171 69.5t-67 173.5t67 173t171 69q103 0 171.5 -69.5t68.5 -172.5q0 -104 -68.5 -173.5t-171.5 -69.5zM286 224q83 0 136.5 57t53.5 142q0 84 -53.5 141t-136.5 57q-82 0 -135.5 -57t-53.5 -141q0 -85 53.5 -142t135.5 -57zM206 296v261h73q27 0 44 -6
q49 -15 49 -65q0 -55 -62 -70v-1q19 -12 77 -119h-53q-55 104 -69 108h-14v-108h-45zM251 440h16q56 0 56 42q0 26 -22 34q-11 5 -34 5h-16v-81z" />
    <glyph glyph-name="macron" unicode="&#xaf;" horiz-adv-x="376" 
d="M51 570v81h273v-81h-273z" />
    <glyph glyph-name="degree" unicode="&#xb0;" horiz-adv-x="378" 
d="M188 353q-67 0 -110.5 43.5t-43.5 109.5t44 109.5t111 43.5t111 -43.5t44 -109.5t-44.5 -109.5t-111.5 -43.5zM189 420q34 0 57.5 24.5t23.5 60.5q0 37 -23.5 61.5t-57.5 24.5q-35 0 -58 -24.5t-23 -61.5t23 -61t58 -24z" />
    <glyph glyph-name="plusminus" unicode="&#xb1;" horiz-adv-x="541" 
d="M222 139v144h-187v87h187v144h97v-144h188v-87h-188v-144h-97zM35 0v87h472v-87h-472z" />
    <glyph glyph-name="twosuperior" unicode="&#xb2;" horiz-adv-x="342" 
d="M25 403q2 51 21.5 92t47 65.5t54.5 44.5t45.5 39t18.5 39q0 19 -14.5 30t-38.5 11q-38 0 -99 -29l-23 65q70 36 139 36q61 0 93.5 -28.5t32.5 -76.5q0 -37 -24 -67.5t-53.5 -48.5t-58 -44.5t-35.5 -54.5h173v-73h-279z" />
    <glyph glyph-name="threesuperior" unicode="&#xb3;" horiz-adv-x="342" 
d="M17 421l23 64q41 -19 88 -19q77 0 77 52q0 32 -33 43q-18 7 -55 7h-46v63h37q34 0 53 8q31 13 31 44q0 43 -54 43q-39 0 -90 -21l-21 63q67 28 129 28q59 0 93 -27.5t34 -71.5q0 -64 -68 -91v-2q81 -14 81 -92q0 -51 -42 -83.5t-121 -32.5q-64 0 -116 25z" />
    <glyph glyph-name="acute" unicode="&#xb4;" horiz-adv-x="376" 
d="M133 531l58 147h114l-93 -147h-79z" />
    <glyph glyph-name="mu" unicode="&#xb5;" horiz-adv-x="563" 
d="M358 208v265h104v-315q0 -43 10 -57.5t32 -14.5q12 0 28 6l21 -83q-34 -16 -73 -16q-41 0 -66 24t-31 65h-2q-42 -92 -130 -92q-57 0 -86 38h-2q4 -55 4 -130v-135h-104v710h104v-294q0 -46 23 -72.5t65 -26.5q41 0 72 32.5t31 95.5z" />
    <glyph glyph-name="paragraph" unicode="&#xb6;" horiz-adv-x="624" 
d="M266 -160v369q-94 6 -151.5 68t-57.5 157q0 97 63.5 161t168.5 64h247v-819h-86v749h-98v-749h-86z" />
    <glyph glyph-name="periodcentered" unicode="&#xb7;" horiz-adv-x="250" 
d="M125 189q-25 0 -42.5 18.5t-17.5 44.5t17.5 44t42.5 18t42.5 -18t17.5 -44t-17.5 -44.5t-42.5 -18.5z" />
    <glyph glyph-name="cedilla" unicode="&#xb8;" horiz-adv-x="376" 
d="M86 -201l15 52q24 -9 49 -9q50 0 50 34q0 21 -21 28t-62 7l28 89h78l-16 -51q83 -5 83 -73q0 -40 -34 -64t-98 -24q-41 0 -72 11z" />
    <glyph glyph-name="onesuperior" unicode="&#xb9;" horiz-adv-x="341" 
d="M176 403v305l-117 -45l-29 67l162 65h66v-392h-82z" />
    <glyph glyph-name="ordmasculine" unicode="&#xba;" horiz-adv-x="386" 
d="M32 135v64h322v-64h-322zM193 263q-73 0 -119.5 49.5t-46.5 124.5t46.5 124.5t119.5 49.5t119.5 -49.5t46.5 -124.5t-46 -124.5t-120 -49.5zM193 332q38 0 60.5 29.5t22.5 75.5t-22.5 75.5t-60.5 29.5t-60 -29t-22 -76t22 -76t60 -29z" />
    <glyph glyph-name="guillemotright" unicode="&#xbb;" horiz-adv-x="587" 
d="M68 76l128 165l-128 165l76 44l168 -209l-168 -209zM303 76l128 165l-128 165l75 44l169 -209l-169 -209z" />
    <glyph glyph-name="onequarter" unicode="&#xbc;" horiz-adv-x="916" 
d="M195 0l414 659h87l-415 -659h-86zM203 270v305l-117 -45l-29 67l162 65h66v-392h-82zM502 85v52l192 255h78v-243h53v-64h-53v-85h-82v85h-188zM591 148q7 0 31 0.5t37 0.5h31v31q0 66 3 104z" />
    <glyph glyph-name="onehalf" unicode="&#xbd;" horiz-adv-x="916" 
d="M180 0l414 659h87l-415 -659h-86zM191 270v305l-117 -45l-29 67l162 65h66v-392h-82zM560 0q2 51 21.5 92t47 65.5t54.5 44.5t45.5 39t18.5 39q0 19 -14.5 30t-38.5 11q-38 0 -99 -29l-23 65q70 36 139 36q61 0 93.5 -28.5t32.5 -76.5q0 -37 -24 -67.5t-53.5 -48.5
t-58 -44.5t-35.5 -54.5h173v-73h-279z" />
    <glyph glyph-name="threequarters" unicode="&#xbe;" horiz-adv-x="916" 
d="M224 0l414 659h87l-415 -659h-86zM519 85v52l192 255h78v-243h53v-64h-53v-85h-82v85h-188zM608 148q8 0 31 0.5t37 0.5h31v31q0 66 3 104zM60 288l23 64q41 -19 88 -19q77 0 77 52q0 32 -33 43q-18 7 -55 7h-46v63h37q34 0 53 8q31 13 31 44q0 43 -54 43q-39 0 -90 -21
l-21 63q67 28 129 28q59 0 93 -27.5t34 -71.5q0 -64 -68 -91v-2q81 -14 81 -92q0 -51 -42 -83.5t-121 -32.5q-64 0 -116 25z" />
    <glyph glyph-name="questiondown" unicode="&#xbf;" horiz-adv-x="466" 
d="M267 360q-25 0 -42.5 18.5t-17.5 44.5t17.5 44t42.5 18q26 0 43.5 -18t17.5 -44t-18 -44.5t-43 -18.5zM366 -43l48 -68q-88 -78 -193 -78q-83 0 -128.5 40.5t-45.5 103.5q0 39 20.5 72t49.5 55t58.5 42t50 41.5t20.5 43.5q0 24 -17 45l87 36q33 -37 33 -86
q0 -33 -19.5 -61t-47 -48l-55 -39t-47 -42t-19.5 -48q0 -32 20.5 -49t55.5 -17q66 0 129 57z" />
    <glyph glyph-name="Agrave" unicode="&#xc0;" horiz-adv-x="617" 
d="M11 0l253 662h81l261 -662h-113l-65 169h-244l-63 -169h-110zM215 255h181l-54 150l-35 106h-2q-9 -34 -36 -106zM279 696l-93 147h116l58 -147h-81z" />
    <glyph glyph-name="Aacute" unicode="&#xc1;" horiz-adv-x="617" 
d="M11 0l253 662h81l261 -662h-113l-65 169h-244l-63 -169h-110zM215 255h181l-54 150l-35 106h-2q-9 -34 -36 -106zM250 696l58 147h114l-93 -147h-79z" />
    <glyph glyph-name="Acircumflex" unicode="&#xc2;" horiz-adv-x="617" 
d="M11 0l253 662h81l261 -662h-113l-65 169h-244l-63 -169h-110zM215 255h181l-54 150l-35 106h-2q-9 -34 -36 -106zM162 696l99 147h88l100 -147h-84l-60 86l-59 -86h-84z" />
    <glyph glyph-name="Atilde" unicode="&#xc3;" horiz-adv-x="617" 
d="M11 0l253 662h81l261 -662h-113l-65 169h-244l-63 -169h-110zM215 255h181l-54 150l-35 106h-2q-9 -34 -36 -106zM154 722v33q0 38 22 59.5t56 21.5q31 0 74 -22.5t56 -22.5q15 0 19.5 9.5t4.5 29.5h69v-34q0 -37 -22 -58.5t-56 -21.5q-30 0 -73.5 22.5t-56.5 22.5
q-14 0 -18.5 -9.5t-4.5 -29.5h-70z" />
    <glyph glyph-name="Adieresis" unicode="&#xc4;" horiz-adv-x="617" 
d="M11 0l253 662h81l261 -662h-113l-65 169h-244l-63 -169h-110zM215 255h181l-54 150l-35 106h-2q-9 -34 -36 -106zM212 702q-23 0 -39.5 16.5t-16.5 39.5t16.5 39.5t39.5 16.5t39 -16.5t16 -39.5t-16 -39.5t-39 -16.5zM398 702q-23 0 -39 16.5t-16 39.5t16 39.5t39 16.5
t39 -16.5t16 -39.5t-16 -39.5t-39 -16.5z" />
    <glyph glyph-name="Aring" unicode="&#xc5;" horiz-adv-x="617" 
d="M11 0l250 653q-32 9 -50.5 33t-18.5 58q0 44 31 70.5t81 26.5t81 -26.5t31 -70.5q0 -33 -18.5 -56.5t-49.5 -32.5l258 -655h-113l-65 169h-244l-63 -169h-110zM215 255h181l-54 151q-30 89 -35 108h-2q-8 -35 -36 -108zM304 696q20 0 31.5 13t11.5 35q0 23 -11.5 36
t-31.5 13t-32 -13t-12 -36q0 -22 12 -35t32 -13z" />
    <glyph glyph-name="AE" unicode="&#xc6;" horiz-adv-x="825" 
d="M10 0l352 659h403l-30 -89h-260l33 -190h226v-89h-210l34 -202h210v-89h-301l-29 169h-227l-90 -169h-111zM258 255h166l-26 168q-5 24 -13 88h-2q-11 -29 -46 -97z" />
    <glyph glyph-name="Ccedilla" unicode="&#xc7;" horiz-adv-x="615" 
d="M246 -201l16 52q22 -9 48 -9q50 0 50 34q0 37 -82 35l26 86q-120 21 -186 108.5t-66 216.5q0 146 95 244.5t247 98.5q99 0 169 -33v-98q-79 42 -167 42q-107 0 -169.5 -72t-62.5 -179q0 -110 61.5 -178t165.5 -68q82 0 160 44l29 -83q-95 -52 -200 -50l-13 -41
q83 -5 83 -73q0 -40 -34 -64t-98 -24q-41 0 -72 11z" />
    <glyph glyph-name="Egrave" unicode="&#xc8;" horiz-adv-x="491" 
d="M82 0v659h349l-30 -89h-214v-190h213v-89h-213v-202h247v-89h-352zM218 696l-93 147h116l58 -147h-81z" />
    <glyph glyph-name="Eacute" unicode="&#xc9;" horiz-adv-x="491" 
d="M82 0v659h349l-30 -89h-214v-190h213v-89h-213v-202h247v-89h-352zM197 696l58 147h114l-93 -147h-79z" />
    <glyph glyph-name="Ecircumflex" unicode="&#xca;" horiz-adv-x="491" 
d="M82 0v659h349l-30 -89h-214v-190h213v-89h-213v-202h247v-89h-352zM107 696l99 147h88l100 -147h-84l-60 86l-59 -86h-84z" />
    <glyph glyph-name="Edieresis" unicode="&#xcb;" horiz-adv-x="491" 
d="M82 0v659h349l-30 -89h-214v-190h213v-89h-213v-202h247v-89h-352zM160 702q-23 0 -39.5 16.5t-16.5 39.5t16.5 39.5t39.5 16.5t39 -16.5t16 -39.5t-16 -39.5t-39 -16.5zM346 702q-23 0 -39 16.5t-16 39.5t16 39.5t39 16.5t39 -16.5t16 -39.5t-16 -39.5t-39 -16.5z" />
    <glyph glyph-name="Igrave" unicode="&#xcc;" horiz-adv-x="269" 
d="M82 0v659h105v-659h-105zM108 696l-93 147h116l58 -147h-81z" />
    <glyph glyph-name="Iacute" unicode="&#xcd;" horiz-adv-x="269" 
d="M82 0v659h105v-659h-105zM77 696l58 147h114l-93 -147h-79z" />
    <glyph glyph-name="Icircumflex" unicode="&#xce;" horiz-adv-x="269" 
d="M82 0v659h105v-659h-105zM-10 696l99 147h88l100 -147h-84l-60 86l-59 -86h-84z" />
    <glyph glyph-name="Idieresis" unicode="&#xcf;" horiz-adv-x="269" 
d="M82 0v659h105v-659h-105zM41 702q-23 0 -39.5 16.5t-16.5 39.5t16.5 39.5t39.5 16.5t39 -16.5t16 -39.5t-16 -39.5t-39 -16.5zM227 702q-23 0 -39 16.5t-16 39.5t16 39.5t39 16.5t39 -16.5t16 -39.5t-16 -39.5t-39 -16.5z" />
    <glyph glyph-name="Eth" unicode="&#xd0;" horiz-adv-x="680" 
d="M82 0v291h-74v86h74v282h189q171 0 264 -88.5t93 -236.5q0 -150 -97 -242t-268 -92h-181zM187 89h77q130 0 191 68t61 176q0 110 -64.5 173.5t-189.5 63.5h-75v-193h155v-86h-155v-202z" />
    <glyph glyph-name="Ntilde" unicode="&#xd1;" horiz-adv-x="738" 
d="M656 0h-93l-296 390q-2 3 -81 109h-2q3 -44 3 -106v-393h-105v659h103l285 -375q50 -64 81 -112h2q-2 70 -2 113v374h105v-659zM220 722v33q0 38 22 59.5t56 21.5q31 0 74 -22.5t56 -22.5q15 0 19.5 9.5t4.5 29.5h69v-34q0 -37 -22 -58.5t-56 -21.5q-30 0 -73.5 22.5
t-56.5 22.5q-14 0 -18.5 -9.5t-4.5 -29.5h-70z" />
    <glyph glyph-name="Ograve" unicode="&#xd2;" horiz-adv-x="762" 
d="M381 -10q-145 0 -237 93t-92 244q0 150 92.5 244t236.5 94q145 0 236.5 -94.5t91.5 -243.5q0 -151 -92.5 -244t-235.5 -93zM381 79q98 0 157.5 66.5t59.5 181.5q0 113 -58.5 181t-158.5 68q-98 0 -157.5 -67t-59.5 -182t59.5 -181.5t157.5 -66.5zM350 696l-93 147h116
l58 -147h-81z" />
    <glyph glyph-name="Oacute" unicode="&#xd3;" horiz-adv-x="762" 
d="M381 -10q-145 0 -237 93t-92 244q0 150 92.5 244t236.5 94q145 0 236.5 -94.5t91.5 -243.5q0 -151 -92.5 -244t-235.5 -93zM381 79q98 0 157.5 66.5t59.5 181.5q0 113 -58.5 181t-158.5 68q-98 0 -157.5 -67t-59.5 -182t59.5 -181.5t157.5 -66.5zM337 696l58 147h114
l-93 -147h-79z" />
    <glyph glyph-name="Ocircumflex" unicode="&#xd4;" horiz-adv-x="762" 
d="M381 -10q-145 0 -237 93t-92 244q0 150 92.5 244t236.5 94q145 0 236.5 -94.5t91.5 -243.5q0 -151 -92.5 -244t-235.5 -93zM381 79q98 0 157.5 66.5t59.5 181.5q0 113 -58.5 181t-158.5 68q-98 0 -157.5 -67t-59.5 -182t59.5 -181.5t157.5 -66.5zM238 696l99 147h88
l100 -147h-84l-60 86l-59 -86h-84z" />
    <glyph glyph-name="Otilde" unicode="&#xd5;" horiz-adv-x="762" 
d="M381 -10q-145 0 -237 93t-92 244q0 150 92.5 244t236.5 94q145 0 236.5 -94.5t91.5 -243.5q0 -151 -92.5 -244t-235.5 -93zM381 79q98 0 157.5 66.5t59.5 181.5q0 113 -58.5 181t-158.5 68q-98 0 -157.5 -67t-59.5 -182t59.5 -181.5t157.5 -66.5zM232 722v33
q0 38 22 59.5t56 21.5q31 0 74 -22.5t56 -22.5q15 0 19.5 9.5t4.5 29.5h69v-34q0 -37 -22 -58.5t-56 -21.5q-30 0 -73.5 22.5t-56.5 22.5q-14 0 -18.5 -9.5t-4.5 -29.5h-70z" />
    <glyph glyph-name="Odieresis" unicode="&#xd6;" horiz-adv-x="762" 
d="M381 -10q-145 0 -237 93t-92 244q0 150 92.5 244t236.5 94q145 0 236.5 -94.5t91.5 -243.5q0 -151 -92.5 -244t-235.5 -93zM381 79q98 0 157.5 66.5t59.5 181.5q0 113 -58.5 181t-158.5 68q-98 0 -157.5 -67t-59.5 -182t59.5 -181.5t157.5 -66.5zM291 702
q-23 0 -39.5 16.5t-16.5 39.5t16.5 39.5t39.5 16.5t39 -16.5t16 -39.5t-16 -39.5t-39 -16.5zM477 702q-23 0 -39 16.5t-16 39.5t16 39.5t39 16.5t39 -16.5t16 -39.5t-16 -39.5t-39 -16.5z" />
    <glyph glyph-name="multiply" unicode="&#xd7;" horiz-adv-x="576" 
d="M106 4l-63 63l182 183l-183 182l63 63l183 -182l182 182l63 -63l-182 -182l182 -182l-63 -63l-182 182z" />
    <glyph glyph-name="Oslash" unicode="&#xd8;" horiz-adv-x="767" 
d="M138 -27l-66 50l62 74q-79 92 -79 230q0 150 92.5 244t236.5 94q101 0 179 -54l62 75l66 -51l-63 -75q84 -94 84 -233q0 -151 -92.5 -244t-235.5 -93q-106 0 -186 55zM563 479l-306 -360q52 -41 127 -41q98 0 158 67.5t60 181.5q0 91 -39 152zM201 180l304 358
q-50 39 -121 39q-98 0 -158.5 -67.5t-60.5 -182.5q0 -89 36 -147z" />
    <glyph glyph-name="Ugrave" unicode="&#xd9;" horiz-adv-x="681" 
d="M341 -10q-187 0 -242 132q-22 48 -22 120v417h105v-409q0 -54 16 -89q36 -82 143 -82q106 0 142 82q17 34 17 91v407h105v-417q0 -70 -23 -122q-57 -130 -241 -130zM311 696l-93 147h116l58 -147h-81z" />
    <glyph glyph-name="Uacute" unicode="&#xda;" horiz-adv-x="681" 
d="M341 -10q-187 0 -242 132q-22 48 -22 120v417h105v-409q0 -54 16 -89q36 -82 143 -82q106 0 142 82q17 34 17 91v407h105v-417q0 -70 -23 -122q-57 -130 -241 -130zM294 696l58 147h114l-93 -147h-79z" />
    <glyph glyph-name="Ucircumflex" unicode="&#xdb;" horiz-adv-x="681" 
d="M341 -10q-187 0 -242 132q-22 48 -22 120v417h105v-409q0 -54 16 -89q36 -82 143 -82q106 0 142 82q17 34 17 91v407h105v-417q0 -70 -23 -122q-57 -130 -241 -130zM200 696l99 147h88l100 -147h-84l-60 86l-59 -86h-84z" />
    <glyph glyph-name="Udieresis" unicode="&#xdc;" horiz-adv-x="681" 
d="M341 -10q-187 0 -242 132q-22 48 -22 120v417h105v-409q0 -54 16 -89q36 -82 143 -82q106 0 142 82q17 34 17 91v407h105v-417q0 -70 -23 -122q-57 -130 -241 -130zM252 702q-23 0 -39.5 16.5t-16.5 39.5t16.5 39.5t39.5 16.5t39 -16.5t16 -39.5t-16 -39.5t-39 -16.5z
M438 702q-23 0 -39 16.5t-16 39.5t16 39.5t39 16.5t39 -16.5t16 -39.5t-16 -39.5t-39 -16.5z" />
    <glyph glyph-name="Yacute" unicode="&#xdd;" horiz-adv-x="569" 
d="M232 0v262l-222 397h115l161 -302h2l157 302h114l-221 -399v-260h-106zM232 696l58 147h114l-93 -147h-79z" />
    <glyph glyph-name="Thorn" unicode="&#xde;" horiz-adv-x="531" 
d="M82 0v659h105v-109h42q89 0 147 -29q103 -54 103 -185q0 -62 -29.5 -112.5t-91.5 -76.5q-56 -24 -138 -24h-33v-123h-105zM187 209h40q51 0 83 16q59 29 59 111q0 76 -55 109q-33 19 -88 19h-39v-255z" />
    <glyph glyph-name="germandbls" unicode="&#xdf;" horiz-adv-x="599" 
d="M59 -141v621q0 66 20.5 113.5t54.5 71t68 33.5t72 10q92 0 153.5 -55t61.5 -169v-25q-96 -20 -96 -73q0 -22 17.5 -41.5t43 -36t51 -36.5t43 -53t17.5 -76q0 -77 -53.5 -115t-131.5 -38q-89 0 -152 41l33 77q56 -35 114 -35q87 0 87 66q0 31 -27 58t-59 45t-59 52t-27 78
q0 91 97 128q-1 56 -29.5 89.5t-82.5 33.5q-51 0 -81.5 -31.5t-30.5 -100.5v-632h-104z" />
    <glyph glyph-name="agrave" unicode="&#xe0;" horiz-adv-x="482" 
d="M344 0l-17 48q-62 -58 -138 -58q-68 0 -111 41.5t-43 108.5q0 88 79 128q42 22 121 25l85 3v20q0 88 -95 88q-65 0 -126 -35l-36 69q82 47 178 47q183 0 183 -169v-182q0 -102 9 -134h-89zM320 225l-71 -3q-50 -1 -76 -16q-33 -18 -33 -60q0 -34 21 -53.5t56 -19.5
q53 0 103 45v107zM215 531l-93 147h116l58 -147h-81z" />
    <glyph glyph-name="aacute" unicode="&#xe1;" horiz-adv-x="482" 
d="M344 0l-17 48q-62 -58 -138 -58q-68 0 -111 41.5t-43 108.5q0 88 79 128q42 22 121 25l85 3v20q0 88 -95 88q-65 0 -126 -35l-36 69q82 47 178 47q183 0 183 -169v-182q0 -102 9 -134h-89zM320 225l-71 -3q-50 -1 -76 -16q-33 -18 -33 -60q0 -34 21 -53.5t56 -19.5
q53 0 103 45v107zM186 531l58 147h114l-93 -147h-79z" />
    <glyph glyph-name="acircumflex" unicode="&#xe2;" horiz-adv-x="482" 
d="M344 0l-17 48q-62 -58 -138 -58q-68 0 -111 41.5t-43 108.5q0 88 79 128q42 22 121 25l85 3v20q0 88 -95 88q-65 0 -126 -35l-36 69q82 47 178 47q183 0 183 -169v-182q0 -102 9 -134h-89zM320 225l-71 -3q-50 -1 -76 -16q-33 -18 -33 -60q0 -34 21 -53.5t56 -19.5
q53 0 103 45v107zM97 531l99 147h88l100 -147h-84l-60 86l-59 -86h-84z" />
    <glyph glyph-name="atilde" unicode="&#xe3;" horiz-adv-x="482" 
d="M344 0l-17 48q-62 -58 -138 -58q-68 0 -111 41.5t-43 108.5q0 88 79 128q42 22 121 25l85 3v20q0 88 -95 88q-65 0 -126 -35l-36 69q82 47 178 47q183 0 183 -169v-182q0 -102 9 -134h-89zM320 225l-71 -3q-50 -1 -76 -16q-33 -18 -33 -60q0 -34 21 -53.5t56 -19.5
q53 0 103 45v107zM90 549v34q0 38 22 59.5t56 21.5q31 0 74 -23t56 -23q15 0 19.5 9.5t4.5 30.5h69v-34q0 -38 -22 -59.5t-56 -21.5q-30 0 -73.5 22.5t-56.5 22.5q-14 0 -18.5 -9t-4.5 -30h-70z" />
    <glyph glyph-name="adieresis" unicode="&#xe4;" horiz-adv-x="482" 
d="M344 0l-17 48q-62 -58 -138 -58q-68 0 -111 41.5t-43 108.5q0 88 79 128q42 22 121 25l85 3v20q0 88 -95 88q-65 0 -126 -35l-36 69q82 47 178 47q183 0 183 -169v-182q0 -102 9 -134h-89zM320 225l-71 -3q-50 -1 -76 -16q-33 -18 -33 -60q0 -34 21 -53.5t56 -19.5
q53 0 103 45v107zM148 549q-23 0 -39.5 16.5t-16.5 39.5t16.5 39.5t39.5 16.5t39 -16.5t16 -39.5t-16 -39.5t-39 -16.5zM334 549q-23 0 -39 16.5t-16 39.5t16 39.5t39 16.5t39 -16.5t16 -39.5t-16 -39.5t-39 -16.5z" />
    <glyph glyph-name="aring" unicode="&#xe5;" horiz-adv-x="482" 
d="M344 0l-17 48q-62 -58 -138 -58q-68 0 -111 41.5t-43 108.5q0 88 79 128q42 22 121 25l85 3v20q0 88 -95 88q-65 0 -126 -35l-36 69q82 47 178 47q183 0 183 -169v-182q0 -102 9 -134h-89zM320 225l-71 -3q-50 -1 -76 -16q-33 -18 -33 -60q0 -34 21 -53.5t56 -19.5
q53 0 103 45v107zM241 523q-50 0 -81 26.5t-31 70.5t31 70t81 26t81 -26t31 -70t-31 -70.5t-81 -26.5zM241 571q20 0 32 13t12 36q0 22 -12 35t-32 13t-32 -13t-12 -35q0 -23 12 -36t32 -13z" />
    <glyph glyph-name="ae" unicode="&#xe6;" horiz-adv-x="768" 
d="M196 -10q-72 0 -116.5 40.5t-44.5 109.5q0 76 55 112t144 36h91v28q0 44 -27 66t-71 22q-65 0 -128 -36l-36 70q82 47 176 47q108 0 146 -75h2q52 75 147 75q92 0 144.5 -66t52.5 -183v-22h-303q2 -64 39.5 -102.5t100.5 -38.5q62 0 119 32l31 -71q-69 -44 -161 -44
q-122 0 -183 83q-71 -83 -178 -83zM217 73q36 0 69.5 19t53.5 44q-11 33 -13 78h-86q-101 0 -101 -70q0 -33 21 -52t56 -19zM428 288h197q-2 49 -26.5 82.5t-70.5 33.5q-45 0 -71.5 -33.5t-28.5 -82.5z" />
    <glyph glyph-name="ccedilla" unicode="&#xe7;" horiz-adv-x="440" 
d="M146 -201l15 52q24 -9 49 -9q50 0 50 34q0 22 -21 28.5t-62 6.5l27 87q-80 19 -124 83t-44 152q0 108 69.5 180t175.5 72q73 0 125 -31v-89q-52 35 -115 35q-68 0 -108 -46t-40 -118q0 -76 38.5 -118.5t103.5 -42.5q53 0 112 32l30 -72q-27 -19 -68 -31.5t-77 -12.5h-2
l-13 -42q83 -5 83 -73q0 -40 -34 -64t-98 -24q-41 0 -72 11z" />
    <glyph glyph-name="egrave" unicode="&#xe8;" horiz-adv-x="483" 
d="M447 211h-304q2 -62 39.5 -100t101.5 -38q62 0 119 32l31 -71q-67 -44 -161 -44q-117 0 -176.5 71t-59.5 177q0 109 56 178t151 69q96 0 149.5 -66.5t53.5 -182.5v-25zM142 285h199q-2 50 -26.5 84.5t-71.5 34.5q-46 0 -73 -34.5t-28 -84.5zM221 531l-93 147h116l58 -147
h-81z" />
    <glyph glyph-name="eacute" unicode="&#xe9;" horiz-adv-x="483" 
d="M447 211h-304q2 -62 39.5 -100t101.5 -38q62 0 119 32l31 -71q-67 -44 -161 -44q-117 0 -176.5 71t-59.5 177q0 109 56 178t151 69q96 0 149.5 -66.5t53.5 -182.5v-25zM142 285h199q-2 50 -26.5 84.5t-71.5 34.5q-46 0 -73 -34.5t-28 -84.5zM192 531l58 147h114l-93 -147
h-79z" />
    <glyph glyph-name="ecircumflex" unicode="&#xea;" horiz-adv-x="483" 
d="M447 211h-304q2 -62 39.5 -100t101.5 -38q62 0 119 32l31 -71q-67 -44 -161 -44q-117 0 -176.5 71t-59.5 177q0 109 56 178t151 69q96 0 149.5 -66.5t53.5 -182.5v-25zM142 285h199q-2 50 -26.5 84.5t-71.5 34.5q-46 0 -73 -34.5t-28 -84.5zM103 531l99 147h88l100 -147
h-84l-60 86l-59 -86h-84z" />
    <glyph glyph-name="edieresis" unicode="&#xeb;" horiz-adv-x="483" 
d="M447 211h-304q2 -62 39.5 -100t101.5 -38q62 0 119 32l31 -71q-67 -44 -161 -44q-117 0 -176.5 71t-59.5 177q0 109 56 178t151 69q96 0 149.5 -66.5t53.5 -182.5v-25zM142 285h199q-2 50 -26.5 84.5t-71.5 34.5q-46 0 -73 -34.5t-28 -84.5zM154 549q-23 0 -39.5 16.5
t-16.5 39.5t16.5 39.5t39.5 16.5t39 -16.5t16 -39.5t-16 -39.5t-39 -16.5zM340 549q-23 0 -39 16.5t-16 39.5t16 39.5t39 16.5t39 -16.5t16 -39.5t-16 -39.5t-39 -16.5z" />
    <glyph glyph-name="igrave" unicode="&#xec;" horiz-adv-x="234" 
d="M92 531l-93 147h116l58 -147h-81zM65 0v473h104v-473h-104z" />
    <glyph glyph-name="iacute" unicode="&#xed;" horiz-adv-x="234" 
d="M63 531l58 147h114l-93 -147h-79zM65 0v473h104v-473h-104z" />
    <glyph glyph-name="icircumflex" unicode="&#xee;" horiz-adv-x="234" 
d="M65 0v473h104v-473h-104zM-26 531l99 147h88l100 -147h-84l-60 86l-59 -86h-84z" />
    <glyph glyph-name="idieresis" unicode="&#xef;" horiz-adv-x="234" 
d="M25 549q-23 0 -39.5 16.5t-16.5 39.5t16.5 39.5t39.5 16.5t39 -16.5t16 -39.5t-16 -39.5t-39 -16.5zM211 549q-23 0 -39 16.5t-16 39.5t16 39.5t39 16.5t39 -16.5t16 -39.5t-16 -39.5t-39 -16.5zM65 0v473h104v-473h-104z" />
    <glyph glyph-name="eth" unicode="&#xf0;" horiz-adv-x="547" 
d="M464 658l-92 -42q125 -106 125 -324q0 -155 -64.5 -228.5t-168.5 -73.5q-101 0 -164.5 68t-63.5 174q0 109 57.5 178t156.5 69q49 0 90.5 -21.5t65.5 -55.5h2q-25 114 -118 173l-135 -63l-24 51l90 39q-45 19 -122 21l19 85q125 -6 204 -56l118 56zM267 74q59 0 91 43.5
t32 118.5q0 72 -33.5 115.5t-90.5 43.5q-59 0 -91 -44.5t-32 -117.5q0 -72 33.5 -115.5t90.5 -43.5z" />
    <glyph glyph-name="ntilde" unicode="&#xf1;" horiz-adv-x="527" 
d="M59 0v473h88l11 -56q83 68 163 68q64 0 106 -40t42 -130v-315h-104v282q0 53 -16.5 82.5t-60.5 29.5q-57 0 -125 -57v-337h-104zM103 549v34q0 38 22 59.5t56 21.5q31 0 74 -23t56 -23q15 0 19.5 9.5t4.5 30.5h69v-34q0 -38 -22 -59.5t-56 -21.5q-30 0 -73.5 22.5
t-56.5 22.5q-14 0 -18.5 -9t-4.5 -30h-70z" />
    <glyph glyph-name="ograve" unicode="&#xf2;" 
d="M267 -10q-102 0 -166.5 70.5t-64.5 177.5t64 177t167 70q102 0 166 -70t64 -177t-64 -177.5t-166 -70.5zM267 75q58 0 90.5 45t32.5 118q0 72 -32.5 117t-90.5 45t-91 -45t-33 -117q0 -73 33 -118t91 -45zM238 531l-93 147h116l58 -147h-81z" />
    <glyph glyph-name="oacute" unicode="&#xf3;" 
d="M267 -10q-102 0 -166.5 70.5t-64.5 177.5t64 177t167 70q102 0 166 -70t64 -177t-64 -177.5t-166 -70.5zM267 75q58 0 90.5 45t32.5 118q0 72 -32.5 117t-90.5 45t-91 -45t-33 -117q0 -73 33 -118t91 -45zM218 531l58 147h114l-93 -147h-79z" />
    <glyph glyph-name="ocircumflex" unicode="&#xf4;" 
d="M267 -10q-102 0 -166.5 70.5t-64.5 177.5t64 177t167 70q102 0 166 -70t64 -177t-64 -177.5t-166 -70.5zM267 75q58 0 90.5 45t32.5 118q0 72 -32.5 117t-90.5 45t-91 -45t-33 -117q0 -73 33 -118t91 -45zM123 531l99 147h88l100 -147h-84l-60 86l-59 -86h-84z" />
    <glyph glyph-name="otilde" unicode="&#xf5;" 
d="M267 -10q-102 0 -166.5 70.5t-64.5 177.5t64 177t167 70q102 0 166 -70t64 -177t-64 -177.5t-166 -70.5zM267 75q58 0 90.5 45t32.5 118q0 72 -32.5 117t-90.5 45t-91 -45t-33 -117q0 -73 33 -118t91 -45zM116 549v34q0 38 22 59.5t56 21.5q31 0 74 -23t56 -23
q15 0 19.5 9.5t4.5 30.5h69v-34q0 -38 -22 -59.5t-56 -21.5q-30 0 -73.5 22.5t-56.5 22.5q-14 0 -18.5 -9t-4.5 -30h-70z" />
    <glyph glyph-name="odieresis" unicode="&#xf6;" 
d="M267 -10q-102 0 -166.5 70.5t-64.5 177.5t64 177t167 70q102 0 166 -70t64 -177t-64 -177.5t-166 -70.5zM267 75q58 0 90.5 45t32.5 118q0 72 -32.5 117t-90.5 45t-91 -45t-33 -117q0 -73 33 -118t91 -45zM174 549q-23 0 -39.5 16.5t-16.5 39.5t16.5 39.5t39.5 16.5
t39 -16.5t16 -39.5t-16 -39.5t-39 -16.5zM360 549q-23 0 -39 16.5t-16 39.5t16 39.5t39 16.5t39 -16.5t16 -39.5t-16 -39.5t-39 -16.5z" />
    <glyph glyph-name="divide" unicode="&#xf7;" horiz-adv-x="541" 
d="M273 365q-23 0 -39.5 16.5t-16.5 40.5t16.5 41t39.5 17t39 -17t16 -41t-16 -40.5t-39 -16.5zM35 208v87h472v-87h-472zM273 22q-23 0 -39.5 16.5t-16.5 40.5q0 25 16.5 41.5t39.5 16.5t39 -16.5t16 -41.5q0 -24 -16 -40.5t-39 -16.5z" />
    <glyph glyph-name="oslash" unicode="&#xf8;" 
d="M99 -25l-47 37l44 54q-60 69 -60 172q0 107 64 177t167 70q69 0 126 -39l39 49l47 -36l-41 -51q59 -70 59 -170q0 -107 -64 -177.5t-166 -70.5q-72 0 -127 39zM195 99q29 -26 72 -26q58 0 91.5 46t33.5 119q0 54 -17 89zM159 148l179 228q-29 26 -71 26q-58 0 -92 -46
t-34 -118q0 -52 18 -90z" />
    <glyph glyph-name="ugrave" unicode="&#xf9;" horiz-adv-x="525" 
d="M210 -10q-42 0 -80.5 21t-56.5 70q-14 36 -14 95v297h104v-283q0 -42 9 -64q18 -46 73 -46q66 0 109 50v343h104v-342q0 -99 9 -131h-90l-17 51q-68 -61 -150 -61zM232 531l-93 147h116l58 -147h-81z" />
    <glyph glyph-name="uacute" unicode="&#xfa;" horiz-adv-x="525" 
d="M210 -10q-42 0 -80.5 21t-56.5 70q-14 36 -14 95v297h104v-283q0 -42 9 -64q18 -46 73 -46q66 0 109 50v343h104v-342q0 -99 9 -131h-90l-17 51q-68 -61 -150 -61zM209 531l58 147h114l-93 -147h-79z" />
    <glyph glyph-name="ucircumflex" unicode="&#xfb;" horiz-adv-x="525" 
d="M210 -10q-42 0 -80.5 21t-56.5 70q-14 36 -14 95v297h104v-283q0 -42 9 -64q18 -46 73 -46q66 0 109 50v343h104v-342q0 -99 9 -131h-90l-17 51q-68 -61 -150 -61zM118 531l99 147h88l100 -147h-84l-60 86l-59 -86h-84z" />
    <glyph glyph-name="udieresis" unicode="&#xfc;" horiz-adv-x="525" 
d="M210 -10q-42 0 -80.5 21t-56.5 70q-14 36 -14 95v297h104v-283q0 -42 9 -64q18 -46 73 -46q66 0 109 50v343h104v-342q0 -99 9 -131h-90l-17 51q-68 -61 -150 -61zM169 549q-23 0 -39.5 16.5t-16.5 39.5t16.5 39.5t39.5 16.5t39 -16.5t16 -39.5t-16 -39.5t-39 -16.5z
M355 549q-23 0 -39 16.5t-16 39.5t16 39.5t39 16.5t39 -16.5t16 -39.5t-16 -39.5t-39 -16.5z" />
    <glyph glyph-name="yacute" unicode="&#xfd;" horiz-adv-x="501" 
d="M494 473l-180 -495q-25 -69 -52.5 -113.5t-57.5 -65.5t-56.5 -28.5t-61.5 -7.5q-54 0 -99 20l26 83q36 -17 69 -17q44 0 77.5 35t60.5 117l-212 472h112l147 -350h2l117 350h108zM203 531l58 147h114l-93 -147h-79z" />
    <glyph glyph-name="thorn" unicode="&#xfe;" horiz-adv-x="524" 
d="M64 -237v945h104v-232q32 9 78 9q114 0 178 -65t64 -177t-67.5 -182.5t-177.5 -70.5q-38 0 -75 13v-240h-104zM168 92q30 -15 69 -15q70 0 106.5 44t36.5 119q0 78 -40 118t-108 40q-36 0 -64 -9v-297z" />
    <glyph glyph-name="ydieresis" unicode="&#xff;" horiz-adv-x="501" 
d="M494 473l-180 -495q-25 -69 -52.5 -113.5t-57.5 -65.5t-56.5 -28.5t-61.5 -7.5q-54 0 -99 20l26 83q36 -17 69 -17q44 0 77.5 35t60.5 117l-212 472h112l147 -350h2l117 350h108zM165 549q-23 0 -39.5 16.5t-16.5 39.5t16.5 39.5t39.5 16.5t39 -16.5t16 -39.5t-16 -39.5
t-39 -16.5zM351 549q-23 0 -39 16.5t-16 39.5t16 39.5t39 16.5t39 -16.5t16 -39.5t-16 -39.5t-39 -16.5z" />
    <glyph glyph-name="Amacron" unicode="&#x100;" horiz-adv-x="617" 
d="M11 0l253 662h81l261 -662h-113l-65 169h-244l-63 -169h-110zM215 255h181l-54 150l-35 106h-2q-9 -34 -36 -106zM168 708v81h273v-81h-273z" />
    <glyph glyph-name="amacron" unicode="&#x101;" horiz-adv-x="482" 
d="M344 0l-17 48q-62 -58 -138 -58q-68 0 -111 41.5t-43 108.5q0 88 79 128q42 22 121 25l85 3v20q0 88 -95 88q-65 0 -126 -35l-36 69q82 47 178 47q183 0 183 -169v-182q0 -102 9 -134h-89zM320 225l-71 -3q-50 -1 -76 -16q-33 -18 -33 -60q0 -34 21 -53.5t56 -19.5
q53 0 103 45v107zM104 570v81h273v-81h-273z" />
    <glyph glyph-name="Abreve" unicode="&#x102;" horiz-adv-x="617" 
d="M11 0l253 662h81l261 -662h-113l-65 169h-244l-63 -169h-110zM215 255h181l-54 150l-35 106h-2q-9 -34 -36 -106zM372 830h72q-4 -62 -41.5 -97.5t-98.5 -35.5q-60 0 -97 35.5t-41 97.5h72q4 -30 21 -48t46 -18t46 18t21 48z" />
    <glyph glyph-name="abreve" unicode="&#x103;" horiz-adv-x="482" 
d="M344 0l-17 48q-62 -58 -138 -58q-68 0 -111 41.5t-43 108.5q0 88 79 128q42 22 121 25l85 3v20q0 88 -95 88q-65 0 -126 -35l-36 69q82 47 178 47q183 0 183 -169v-182q0 -102 9 -134h-89zM320 225l-71 -3q-50 -1 -76 -16q-33 -18 -33 -60q0 -34 21 -53.5t56 -19.5
q53 0 103 45v107zM308 676h72q-4 -62 -41.5 -98t-98.5 -36q-60 0 -97 36t-41 98h72q8 -67 67 -67t67 67z" />
    <glyph glyph-name="Aogonek" unicode="&#x104;" horiz-adv-x="617" 
d="M11 0l253 662h81l261 -662q-55 -18 -88 -49t-33 -64q0 -37 35 -37q17 0 38 7l12 -59q-39 -12 -73 -12q-48 0 -74 23t-26 61q0 71 94 134l-63 165h-244l-63 -169h-110zM215 255h181l-54 150l-35 106h-2q-9 -34 -36 -106z" />
    <glyph glyph-name="aogonek" unicode="&#x105;" horiz-adv-x="482" 
d="M433 -2q-46 -22 -73 -51t-27 -60q0 -37 36 -37q17 0 37 7l12 -59q-37 -12 -73 -12q-47 0 -73.5 23t-26.5 61q0 71 97 136l-15 42q-62 -58 -138 -58q-68 0 -111 41.5t-43 108.5q0 88 79 128q42 22 121 25l85 3v20q0 88 -95 88q-65 0 -126 -35l-36 69q82 47 178 47
q183 0 183 -169v-184q0 -102 9 -134zM217 73q53 0 103 45v107l-71 -3q-50 -1 -76 -16q-33 -18 -33 -60q0 -34 21 -53.5t56 -19.5z" />
    <glyph glyph-name="Cacute" unicode="&#x106;" horiz-adv-x="615" 
d="M551 123l29 -83q-91 -50 -201 -50q-153 0 -240 92t-87 240q0 146 95 244.5t247 98.5q99 0 169 -33v-98q-79 42 -167 42q-107 0 -169.5 -72t-62.5 -179q0 -110 61.5 -178t165.5 -68q82 0 160 44zM290 696l58 147h114l-93 -147h-79z" />
    <glyph glyph-name="cacute" unicode="&#x107;" horiz-adv-x="440" 
d="M271 -10q-110 0 -172.5 68.5t-62.5 174.5q0 108 69.5 180t175.5 72q73 0 125 -31v-89q-52 35 -115 35q-68 0 -108 -46t-40 -118q0 -76 38.5 -118.5t103.5 -42.5q53 0 112 32l30 -72q-65 -45 -156 -45zM197 531l58 147h114l-93 -147h-79z" />
    <glyph glyph-name="Ccircumflex" unicode="&#x108;" horiz-adv-x="615" 
d="M551 123l29 -83q-91 -50 -201 -50q-153 0 -240 92t-87 240q0 146 95 244.5t247 98.5q99 0 169 -33v-98q-79 42 -167 42q-107 0 -169.5 -72t-62.5 -179q0 -110 61.5 -178t165.5 -68q82 0 160 44zM203 696l99 147h88l100 -147h-84l-60 86l-59 -86h-84z" />
    <glyph glyph-name="ccircumflex" unicode="&#x109;" horiz-adv-x="440" 
d="M271 -10q-110 0 -172.5 68.5t-62.5 174.5q0 108 69.5 180t175.5 72q73 0 125 -31v-89q-52 35 -115 35q-68 0 -108 -46t-40 -118q0 -76 38.5 -118.5t103.5 -42.5q53 0 112 32l30 -72q-65 -45 -156 -45zM108 531l99 147h88l100 -147h-84l-60 86l-59 -86h-84z" />
    <glyph glyph-name="Cdotaccent" unicode="&#x10a;" horiz-adv-x="615" 
d="M551 123l29 -83q-91 -50 -201 -50q-153 0 -240 92t-87 240q0 146 95 244.5t247 98.5q99 0 169 -33v-98q-79 42 -167 42q-107 0 -169.5 -72t-62.5 -179q0 -110 61.5 -178t165.5 -68q82 0 160 44zM358 709q-28 0 -47 18.5t-19 46.5q0 27 19 45.5t47 18.5t46.5 -18.5
t18.5 -45.5t-18.5 -46t-46.5 -19z" />
    <glyph glyph-name="cdotaccent" unicode="&#x10b;" horiz-adv-x="440" 
d="M271 -10q-110 0 -172.5 68.5t-62.5 174.5q0 108 69.5 180t175.5 72q73 0 125 -31v-89q-52 35 -115 35q-68 0 -108 -46t-40 -118q0 -76 38.5 -118.5t103.5 -42.5q53 0 112 32l30 -72q-65 -45 -156 -45zM252 560q-28 0 -47 18.5t-19 45.5t19 45.5t47 18.5t46.5 -18
t18.5 -46q0 -27 -18.5 -45.5t-46.5 -18.5z" />
    <glyph glyph-name="Ccaron" unicode="&#x10c;" horiz-adv-x="615" 
d="M551 123l29 -83q-91 -50 -201 -50q-153 0 -240 92t-87 240q0 146 95 244.5t247 98.5q99 0 169 -33v-98q-79 42 -167 42q-107 0 -169.5 -72t-62.5 -179q0 -110 61.5 -178t165.5 -68q82 0 160 44zM303 696l-100 147h85l60 -86l59 86h83l-99 -147h-88z" />
    <glyph glyph-name="ccaron" unicode="&#x10d;" horiz-adv-x="440" 
d="M271 -10q-110 0 -172.5 68.5t-62.5 174.5q0 108 69.5 180t175.5 72q73 0 125 -31v-89q-52 35 -115 35q-68 0 -108 -46t-40 -118q0 -76 38.5 -118.5t103.5 -42.5q53 0 112 32l30 -72q-65 -45 -156 -45zM208 531l-100 147h85l60 -85l59 85h83l-99 -147h-88z" />
    <glyph glyph-name="Dcaron" unicode="&#x10e;" horiz-adv-x="680" 
d="M82 0v659h189q171 0 264 -88.5t93 -236.5q0 -150 -97 -242t-268 -92h-181zM187 89h77q130 0 191 68t61 176q0 110 -64.5 173.5t-189.5 63.5h-75v-481zM252 696l-100 147h85l60 -86l59 86h83l-99 -147h-88z" />
    <glyph glyph-name="dcaron" unicode="&#x10f;" horiz-adv-x="533" 
d="M298 -10q-115 0 -188.5 63.5t-73.5 178.5q0 112 72.5 182.5t182.5 70.5q40 0 69 -7v230h104v-684q-65 -34 -166 -34zM298 77q38 0 62 10v303q-32 8 -63 8q-67 0 -110.5 -44t-43.5 -120q0 -73 42.5 -115t112.5 -42zM501 513l36 196h104l-61 -196h-79z" />
    <glyph glyph-name="Dcroat" unicode="&#x110;" horiz-adv-x="680" 
d="M82 0v291h-74v86h74v282h189q171 0 264 -88.5t93 -236.5q0 -150 -97 -242t-268 -92h-181zM187 89h77q130 0 191 68t61 176q0 110 -64.5 173.5t-189.5 63.5h-75v-193h155v-86h-155v-202z" />
    <glyph glyph-name="dcroat" unicode="&#x111;" horiz-adv-x="533" 
d="M289 -10q-109 0 -181 64t-72 179q0 112 72.5 181.5t184.5 69.5q41 0 67 -6v77h-134v79h134v74h104v-74h59v-79h-59v-529q-69 -36 -175 -36zM296 78q38 0 64 9v305q-30 9 -63 9q-69 0 -112.5 -43.5t-43.5 -120.5q0 -71 42.5 -115t112.5 -44z" />
    <glyph glyph-name="Emacron" unicode="&#x112;" horiz-adv-x="491" 
d="M82 0v659h349l-30 -89h-214v-190h213v-89h-213v-202h247v-89h-352zM117 708v81h273v-81h-273z" />
    <glyph glyph-name="emacron" unicode="&#x113;" horiz-adv-x="483" 
d="M447 211h-304q2 -62 39.5 -100t101.5 -38q62 0 119 32l31 -71q-67 -44 -161 -44q-117 0 -176.5 71t-59.5 177q0 109 56 178t151 69q96 0 149.5 -66.5t53.5 -182.5v-25zM142 285h199q-2 50 -26.5 84.5t-71.5 34.5q-46 0 -73 -34.5t-28 -84.5zM110 570v81h273v-81h-273z
" />
    <glyph glyph-name="Ebreve" unicode="&#x114;" horiz-adv-x="491" 
d="M82 0v659h349l-30 -89h-214v-190h213v-89h-213v-202h247v-89h-352zM316 830h72q-4 -62 -41.5 -97.5t-98.5 -35.5q-60 0 -97 35.5t-41 97.5h72q4 -30 21 -48t46 -18t46 18t21 48z" />
    <glyph glyph-name="ebreve" unicode="&#x115;" horiz-adv-x="483" 
d="M447 211h-304q2 -62 39.5 -100t101.5 -38q62 0 119 32l31 -71q-67 -44 -161 -44q-117 0 -176.5 71t-59.5 177q0 109 56 178t151 69q96 0 149.5 -66.5t53.5 -182.5v-25zM142 285h199q-2 50 -26.5 84.5t-71.5 34.5q-46 0 -73 -34.5t-28 -84.5zM314 676h72q-4 -62 -41.5 -98
t-98.5 -36q-60 0 -97 36t-41 98h72q8 -67 67 -67t67 67z" />
    <glyph glyph-name="Edotaccent" unicode="&#x116;" horiz-adv-x="491" 
d="M82 0v659h349l-30 -89h-214v-190h213v-89h-213v-202h247v-89h-352zM248 709q-28 0 -47 18.5t-19 46.5q0 27 19 45.5t47 18.5t46.5 -18.5t18.5 -45.5t-18.5 -46t-46.5 -19z" />
    <glyph glyph-name="edotaccent" unicode="&#x117;" horiz-adv-x="483" 
d="M447 211h-304q2 -62 39.5 -100t101.5 -38q62 0 119 32l31 -71q-67 -44 -161 -44q-117 0 -176.5 71t-59.5 177q0 109 56 178t151 69q96 0 149.5 -66.5t53.5 -182.5v-25zM142 285h199q-2 50 -26.5 84.5t-71.5 34.5q-46 0 -73 -34.5t-28 -84.5zM247 560q-28 0 -47 18.5
t-19 45.5t19 45.5t47 18.5t46.5 -18t18.5 -46q0 -27 -18.5 -45.5t-46.5 -18.5z" />
    <glyph glyph-name="Eogonek" unicode="&#x118;" horiz-adv-x="491" 
d="M82 0v659h349l-30 -89h-214v-190h213v-89h-213v-202h247v-89h-19q-47 -22 -75 -52t-28 -61q0 -37 36 -37q16 0 37 7l12 -59q-39 -12 -73 -12q-48 0 -74 23t-26 61q0 71 88 130h-230z" />
    <glyph glyph-name="eogonek" unicode="&#x119;" horiz-adv-x="483" 
d="M205 -130q0 67 74 119v2q-4 -1 -17 -1q-112 3 -169 73.5t-57 174.5q0 109 56 178t151 69q96 0 149.5 -66.5t53.5 -182.5v-25h-304q2 -62 39.5 -100t101.5 -38q62 0 119 32l31 -71q-141 -78 -141 -147q0 -37 36 -37q17 0 38 7l12 -59q-39 -12 -73 -12q-48 0 -74 23t-26 61
zM141 285h199q-2 50 -26.5 84.5t-71.5 34.5q-46 0 -73 -34.5t-28 -84.5z" />
    <glyph glyph-name="Ecaron" unicode="&#x11a;" horiz-adv-x="491" 
d="M82 0v659h349l-30 -89h-214v-190h213v-89h-213v-202h247v-89h-352zM208 696l-100 147h85l60 -86l59 86h83l-99 -147h-88z" />
    <glyph glyph-name="ecaron" unicode="&#x11b;" horiz-adv-x="483" 
d="M447 211h-304q2 -62 39.5 -100t101.5 -38q62 0 119 32l31 -71q-67 -44 -161 -44q-117 0 -176.5 71t-59.5 177q0 109 56 178t151 69q96 0 149.5 -66.5t53.5 -182.5v-25zM142 285h199q-2 50 -26.5 84.5t-71.5 34.5q-46 0 -73 -34.5t-28 -84.5zM203 531l-100 147h85l60 -85
l59 85h83l-99 -147h-88z" />
    <glyph glyph-name="Gcircumflex" unicode="&#x11c;" horiz-adv-x="697" 
d="M622 317v-275q-100 -52 -231 -52q-155 0 -247 91.5t-92 236.5q0 152 98 249.5t257 97.5q99 0 188 -34v-98q-86 43 -180 43q-120 0 -185.5 -68.5t-65.5 -181.5t63 -180t172 -67q72 0 118 22v216h105zM228 696l99 147h88l100 -147h-84l-60 86l-59 -86h-84z" />
    <glyph glyph-name="gcircumflex" unicode="&#x11d;" horiz-adv-x="494" 
d="M232 -237q-100 0 -158 37.5t-58 100.5q0 78 86 117q-32 18 -32 58q0 50 55 91q-77 46 -77 145q0 71 50 122t136 51q53 0 93 -20q5 -3 11 1q41 41 109 41q12 0 30 -3l-21 -76q-22 4 -33 4q-22 0 -38 -10q45 -46 45 -115q0 -78 -53 -126t-138 -48q-35 0 -59 9
q-17 -22 -17 -41q0 -24 32 -35.5t77.5 -17t91.5 -15.5t78 -39t32 -78q0 -67 -64 -110t-178 -43zM244 -162q59 0 94 19t35 48q0 33 -35.5 47.5t-96.5 22t-84 15.5q-47 -31 -47 -71q0 -37 36.5 -59t97.5 -22zM239 214q40 0 65.5 25t25.5 70q0 40 -25.5 67.5t-67.5 27.5
q-40 0 -64.5 -25t-24.5 -69q0 -42 24.5 -69t66.5 -27zM96 531l99 147h88l100 -147h-84l-60 86l-59 -86h-84z" />
    <glyph glyph-name="Gbreve" unicode="&#x11e;" horiz-adv-x="697" 
d="M622 317v-275q-100 -52 -231 -52q-155 0 -247 91.5t-92 236.5q0 152 98 249.5t257 97.5q99 0 188 -34v-98q-86 43 -180 43q-120 0 -185.5 -68.5t-65.5 -181.5t63 -180t172 -67q72 0 118 22v216h105zM433 830h72q-4 -62 -41.5 -97.5t-98.5 -35.5q-60 0 -97 35.5t-41 97.5
h72q4 -30 21 -48t46 -18t46 18t21 48z" />
    <glyph glyph-name="gbreve" unicode="&#x11f;" horiz-adv-x="494" 
d="M232 -237q-100 0 -158 37.5t-58 100.5q0 78 86 117q-32 18 -32 58q0 50 55 91q-77 46 -77 145q0 71 50 122t136 51q53 0 93 -20q5 -3 11 1q41 41 109 41q12 0 30 -3l-21 -76q-22 4 -33 4q-22 0 -38 -10q45 -46 45 -115q0 -78 -53 -126t-138 -48q-35 0 -59 9
q-17 -22 -17 -41q0 -24 32 -35.5t77.5 -17t91.5 -15.5t78 -39t32 -78q0 -67 -64 -110t-178 -43zM244 -162q59 0 94 19t35 48q0 33 -35.5 47.5t-96.5 22t-84 15.5q-47 -31 -47 -71q0 -37 36.5 -59t97.5 -22zM239 214q40 0 65.5 25t25.5 70q0 40 -25.5 67.5t-67.5 27.5
q-40 0 -64.5 -25t-24.5 -69q0 -42 24.5 -69t66.5 -27zM307 676h72q-4 -62 -41.5 -98t-98.5 -36q-60 0 -97 36t-41 98h72q8 -67 67 -67t67 67z" />
    <glyph glyph-name="Gdotaccent" unicode="&#x120;" horiz-adv-x="697" 
d="M622 317v-275q-100 -52 -231 -52q-155 0 -247 91.5t-92 236.5q0 152 98 249.5t257 97.5q99 0 188 -34v-98q-86 43 -180 43q-120 0 -185.5 -68.5t-65.5 -181.5t63 -180t172 -67q72 0 118 22v216h105zM371 709q-28 0 -47 18.5t-19 46.5q0 27 19 45.5t47 18.5t46.5 -18.5
t18.5 -45.5t-18.5 -46t-46.5 -19z" />
    <glyph glyph-name="gdotaccent" unicode="&#x121;" horiz-adv-x="494" 
d="M232 -237q-100 0 -158 37.5t-58 100.5q0 78 86 117q-32 18 -32 58q0 50 55 91q-77 46 -77 145q0 71 50 122t136 51q53 0 93 -20q5 -3 11 1q41 41 109 41q12 0 30 -3l-21 -76q-22 4 -33 4q-22 0 -38 -10q45 -46 45 -115q0 -78 -53 -126t-138 -48q-35 0 -59 9
q-17 -22 -17 -41q0 -24 32 -35.5t77.5 -17t91.5 -15.5t78 -39t32 -78q0 -67 -64 -110t-178 -43zM244 -162q59 0 94 19t35 48q0 33 -35.5 47.5t-96.5 22t-84 15.5q-47 -31 -47 -71q0 -37 36.5 -59t97.5 -22zM239 214q40 0 65.5 25t25.5 70q0 40 -25.5 67.5t-67.5 27.5
q-40 0 -64.5 -25t-24.5 -69q0 -42 24.5 -69t66.5 -27zM240 560q-28 0 -47 18.5t-19 45.5t19 45.5t47 18.5t46.5 -18t18.5 -46q0 -27 -18.5 -45.5t-46.5 -18.5z" />
    <glyph glyph-name="Gcommaaccent" unicode="&#x122;" horiz-adv-x="694" 
d="M619 317v-275q-100 -52 -231 -52q-155 0 -247 91.5t-92 236.5q0 152 98 249.5t257 97.5q99 0 188 -34v-98q-86 43 -180 43q-120 0 -185.5 -68.5t-65.5 -181.5t63 -180t172 -67q72 0 118 22v216h105zM299 -237l-26 64q73 17 73 64q0 27 -21 57h90q23 -32 23 -72
q0 -93 -139 -113z" />
    <glyph glyph-name="gcommaaccent" unicode="&#x123;" horiz-adv-x="494" 
d="M281 531h-90q-23 32 -23 72q0 92 139 113l26 -64q-73 -17 -73 -64q0 -27 21 -57zM232 -237q-100 0 -158 37.5t-58 100.5q0 78 86 117q-32 18 -32 58q0 50 55 91q-77 46 -77 145q0 71 50 122t136 51q53 0 93 -20q5 -3 11 1q41 41 109 41q12 0 30 -3l-21 -76q-22 4 -33 4
q-22 0 -38 -10q45 -46 45 -115q0 -78 -53 -126t-138 -48q-35 0 -59 9q-17 -22 -17 -41q0 -24 32 -35.5t77.5 -17t91.5 -15.5t78 -39t32 -78q0 -67 -64 -110t-178 -43zM244 -162q59 0 94 19t35 48q0 33 -35.5 47.5t-96.5 22t-84 15.5q-47 -31 -47 -71q0 -37 36.5 -59
t97.5 -22zM239 214q40 0 65.5 25t25.5 70q0 40 -25.5 67.5t-67.5 27.5q-40 0 -64.5 -25t-24.5 -69q0 -42 24.5 -69t66.5 -27z" />
    <glyph glyph-name="Hcircumflex" unicode="&#x124;" horiz-adv-x="704" 
d="M82 0v659h105v-278h330v278h105v-659h-105v292h-330v-292h-105zM210 696l99 147h88l100 -147h-84l-60 86l-59 -86h-84z" />
    <glyph glyph-name="hcircumflex" unicode="&#x125;" horiz-adv-x="532" 
d="M65 0v708h104v-290q77 67 158 67q64 0 106 -40t42 -130v-315h-104v282q0 53 -16.5 82.5t-60.5 29.5q-57 0 -125 -57v-337h-104zM-26 726l99 147h88l100 -147h-84l-60 86l-59 -86h-84z" />
    <glyph glyph-name="Hbar" unicode="&#x126;" horiz-adv-x="704" 
d="M82 0v477h-65v81h65v101h105v-101h330v101h105v-101h64v-81h-64v-477h-105v292h-330v-292h-105zM187 381h330v96h-330v-96z" />
    <glyph glyph-name="hbar" unicode="&#x127;" horiz-adv-x="527" 
d="M59 0v549h-60v81h60v78h104v-78h129v-81h-129v-131q77 67 158 67q64 0 106 -40t42 -130v-315h-104v282q0 53 -16.5 82.5t-60.5 29.5q-57 0 -125 -57v-337h-104z" />
    <glyph glyph-name="Itilde" unicode="&#x128;" horiz-adv-x="269" 
d="M82 0v659h105v-659h-105zM-17 722v33q0 38 22 59.5t56 21.5q31 0 74 -22.5t56 -22.5q15 0 19.5 9.5t4.5 29.5h69v-34q0 -37 -22 -58.5t-56 -21.5q-30 0 -73.5 22.5t-56.5 22.5q-14 0 -18.5 -9.5t-4.5 -29.5h-70z" />
    <glyph glyph-name="itilde" unicode="&#x129;" horiz-adv-x="234" 
d="M-33 549v34q0 38 22 59.5t56 21.5q31 0 74 -23t56 -23q15 0 19.5 9.5t4.5 30.5h69v-34q0 -38 -22 -59.5t-56 -21.5q-30 0 -73.5 22.5t-56.5 22.5q-14 0 -18.5 -9t-4.5 -30h-70zM65 0v473h104v-473h-104z" />
    <glyph glyph-name="imacron" unicode="&#x12b;" horiz-adv-x="234" 
d="M-19 570v81h273v-81h-273zM65 0v473h104v-473h-104z" />
    <glyph glyph-name="Ibreve" unicode="&#x12c;" horiz-adv-x="269" 
d="M82 0v659h105v-659h-105zM201 830h72q-4 -62 -41.5 -97.5t-98.5 -35.5q-60 0 -97 35.5t-41 97.5h72q4 -30 21 -48t46 -18t46 18t21 48z" />
    <glyph glyph-name="Iogonek" unicode="&#x12e;" horiz-adv-x="269" 
d="M82 4v655h105v-659q-39 -22 -61.5 -51t-22.5 -59q0 -40 37 -40q17 0 37 7l12 -59q-37 -12 -71 -12q-49 0 -75.5 24t-26.5 67q0 68 66 127z" />
    <glyph glyph-name="iogonek" unicode="&#x12f;" horiz-adv-x="234" 
d="M-1 -123q0 68 66 127v469h104v-473q-39 -22 -61 -51.5t-22 -58.5q0 -40 37 -40q17 0 37 7l12 -59q-37 -12 -71 -12q-49 0 -75.5 24t-26.5 67zM117 560q-28 0 -46.5 18.5t-18.5 45.5t18.5 45.5t46.5 18.5t46.5 -18t18.5 -46q0 -27 -18.5 -45.5t-46.5 -18.5z" />
    <glyph glyph-name="Idotaccent" unicode="&#x130;" horiz-adv-x="269" 
d="M82 0v659h105v-659h-105zM135 709q-28 0 -47 18.5t-19 46.5q0 27 19 45.5t47 18.5t46.5 -18.5t18.5 -45.5t-18.5 -46t-46.5 -19z" />
    <glyph glyph-name="dotlessi" unicode="&#x131;" horiz-adv-x="234" 
d="M65 0v473h104v-473h-104z" />
    <glyph glyph-name="IJ" unicode="&#x132;" horiz-adv-x="584" 
d="M82 0v659h105v-659h-105zM239 -170l21 85q26 -10 57 -10q48 0 64.5 26t16.5 75v653h105v-669q0 -80 -44 -127t-135 -47q-48 0 -85 14z" />
    <glyph glyph-name="ij" unicode="&#x133;" horiz-adv-x="480" 
d="M65 0v473h104v-473h-104zM117 560q-28 0 -46.5 18.5t-18.5 45.5t18.5 45.5t46.5 18.5t46.5 -18t18.5 -46q0 -27 -18.5 -45.5t-46.5 -18.5zM177 -221l20 86q25 -11 50 -11q34 0 49.5 20.5t15.5 67.5v531h104v-548q0 -78 -41.5 -120t-112.5 -42q-50 0 -85 16zM364 560
q-28 0 -46.5 18.5t-18.5 45.5t18.5 45.5t46.5 18.5q29 0 47.5 -18t18.5 -46q0 -27 -19 -45.5t-47 -18.5z" />
    <glyph glyph-name="Jcircumflex" unicode="&#x134;" horiz-adv-x="315" 
d="M-30 -170l21 85q26 -10 57 -10q48 0 64.5 26t16.5 75v653h105v-669q0 -80 -44 -127t-135 -47q-48 0 -85 14zM35 696l99 147h88l100 -147h-84l-60 86l-59 -86h-84z" />
    <glyph glyph-name="jcircumflex" unicode="&#x135;" horiz-adv-x="247" 
d="M-57 -217l20 76q31 -12 51 -12q36 0 50 24t14 70v532h104v-543q0 -84 -43 -125t-104 -41q-51 0 -92 19zM-20 531l99 147h87l101 -147h-84l-60 86l-59 -86h-84z" />
    <glyph glyph-name="Kcommaaccent" unicode="&#x136;" horiz-adv-x="579" 
d="M82 0v659h105v-288h2l234 288h123l-268 -322l283 -337h-128l-244 293h-2v-293h-105zM210 -237l-26 64q73 17 73 64q0 27 -21 57h90q23 -32 23 -72q0 -93 -139 -113z" />
    <glyph glyph-name="kcommaaccent" unicode="&#x137;" horiz-adv-x="475" 
d="M64 0v708h104v-403h2l163 168h120l-198 -204l216 -269h-122l-179 227h-2v-227h-104zM165 -237l-26 64q73 17 73 64q0 27 -21 57h90q23 -32 23 -72q0 -93 -139 -113z" />
    <glyph glyph-name="Lacute" unicode="&#x139;" horiz-adv-x="444" 
d="M82 0v659h105v-570h237v-89h-342zM87 696l58 147h114l-93 -147h-79z" />
    <glyph glyph-name="lacute" unicode="&#x13a;" horiz-adv-x="270" 
d="M67 732l50 127h111l-81 -127h-80zM64 100v608h104v-579q0 -25 8.5 -35t26.5 -10q12 0 30 6l21 -81q-36 -16 -81 -16q-109 0 -109 107z" />
    <glyph glyph-name="Lcommaaccent" unicode="&#x13b;" horiz-adv-x="444" 
d="M82 0v659h105v-570h237v-89h-342zM171 -237l-26 64q73 17 73 64q0 27 -21 57h90q23 -32 23 -72q0 -93 -139 -113z" />
    <glyph glyph-name="lcommaaccent" unicode="&#x13c;" horiz-adv-x="270" 
d="M60 100v608h104v-579q0 -25 8.5 -35t26.5 -10q12 0 30 6l21 -81q-36 -16 -81 -16q-109 0 -109 107zM77 -237l-26 64q73 17 73 64q0 27 -21 57h90q23 -32 23 -72q0 -93 -139 -113z" />
    <glyph glyph-name="Lcaron" unicode="&#x13d;" horiz-adv-x="444" 
d="M82 0v659h105v-570h237v-89h-342zM264 513l36 196h104l-61 -196h-79z" />
    <glyph glyph-name="lcaron" unicode="&#x13e;" horiz-adv-x="270" 
d="M64 100v608h104v-579q0 -25 8.5 -35t26.5 -10q12 0 30 6l21 -81q-36 -16 -81 -16q-109 0 -109 107zM204 513l36 196h104l-61 -196h-79z" />
    <glyph glyph-name="Ldot" unicode="&#x13f;" horiz-adv-x="444" 
d="M82 0v659h105v-570h237v-89h-342zM353 286q-25 0 -42.5 18.5t-17.5 44.5t17.5 44t42.5 18t42.5 -18t17.5 -44t-17.5 -44.5t-42.5 -18.5z" />
    <glyph glyph-name="ldot" unicode="&#x140;" horiz-adv-x="311" 
d="M64 100v608h104v-579q0 -25 8.5 -35t26.5 -10q12 0 30 6l21 -81q-36 -16 -81 -16q-109 0 -109 107zM272 279q-25 0 -42.5 18.5t-17.5 44.5t17.5 44t42.5 18t42.5 -18t17.5 -44t-17.5 -44.5t-42.5 -18.5z" />
    <glyph glyph-name="Lslash" unicode="&#x141;" horiz-adv-x="445" 
d="M22 192v98l60 36v333h105v-272l146 87v-98l-146 -86v-201h238v-89h-343v228z" />
    <glyph glyph-name="lslash" unicode="&#x142;" horiz-adv-x="299" 
d="M28 233v98l61 37v340h104v-278l70 39v-97l-70 -41v-201q0 -25 8.5 -35t27.5 -10q13 0 29 6l21 -82q-36 -16 -81 -16q-109 0 -109 107v169z" />
    <glyph glyph-name="Nacute" unicode="&#x143;" horiz-adv-x="738" 
d="M656 0h-93l-296 390q-2 3 -81 109h-2q3 -44 3 -106v-393h-105v659h103l285 -375q50 -64 81 -112h2q-2 70 -2 113v374h105v-659zM319 696l58 147h114l-93 -147h-79z" />
    <glyph glyph-name="nacute" unicode="&#x144;" horiz-adv-x="527" 
d="M59 0v473h88l11 -56q83 68 163 68q64 0 106 -40t42 -130v-315h-104v282q0 53 -16.5 82.5t-60.5 29.5q-57 0 -125 -57v-337h-104zM199 531l58 147h114l-93 -147h-79z" />
    <glyph glyph-name="Ncommaaccent" unicode="&#x145;" horiz-adv-x="738" 
d="M656 0h-93l-296 390q-2 3 -81 109h-2q3 -44 3 -106v-393h-105v659h103l285 -375q50 -64 81 -112h2q-2 70 -2 113v374h105v-659zM301 -237l-26 64q73 17 73 64q0 27 -21 57h90q23 -32 23 -72q0 -93 -139 -113z" />
    <glyph glyph-name="ncommaaccent" unicode="&#x146;" horiz-adv-x="527" 
d="M59 0v473h88l11 -56q83 68 163 68q64 0 106 -40t42 -130v-315h-104v282q0 53 -16.5 82.5t-60.5 29.5q-57 0 -125 -57v-337h-104zM183 -237l-26 64q73 17 73 64q0 27 -21 57h90q23 -32 23 -72q0 -93 -139 -113z" />
    <glyph glyph-name="Ncaron" unicode="&#x147;" horiz-adv-x="738" 
d="M656 0h-93l-296 390q-2 3 -81 109h-2q3 -44 3 -106v-393h-105v659h103l285 -375q50 -64 81 -112h2q-2 70 -2 113v374h105v-659zM328 696l-100 147h85l60 -86l59 86h83l-99 -147h-88z" />
    <glyph glyph-name="ncaron" unicode="&#x148;" horiz-adv-x="527" 
d="M59 0v473h88l11 -56q83 68 163 68q64 0 106 -40t42 -130v-315h-104v282q0 53 -16.5 82.5t-60.5 29.5q-57 0 -125 -57v-337h-104zM208 531l-100 147h85l60 -85l59 85h83l-99 -147h-88z" />
    <glyph glyph-name="Eng" unicode="&#x14a;" horiz-adv-x="742" 
d="M82 0v659h103l289 -375q50 -64 81 -112h2q-2 70 -2 113v374h105v-685q0 -82 -43.5 -127.5t-121.5 -45.5q-54 0 -90 16l22 85q24 -12 57 -12q41 0 56 24.5t15 73.5v27l-288 375q-2 3 -81 109h-2q3 -44 3 -106v-393h-105z" />
    <glyph glyph-name="eng" unicode="&#x14b;" horiz-adv-x="527" 
d="M230 -179l20 86q25 -11 50 -11q34 0 49.5 20.5t15.5 67.5v298q0 53 -16.5 82.5t-60.5 29.5q-57 0 -125 -57v-337h-104v473h88l11 -56q83 68 163 68q64 0 106 -40t42 -130v-348q0 -78 -41.5 -120t-112.5 -42q-50 0 -85 16z" />
    <glyph glyph-name="Omacron" unicode="&#x14c;" horiz-adv-x="762" 
d="M381 -10q-145 0 -237 93t-92 244q0 150 92.5 244t236.5 94q145 0 236.5 -94.5t91.5 -243.5q0 -151 -92.5 -244t-235.5 -93zM381 79q98 0 157.5 66.5t59.5 181.5q0 113 -58.5 181t-158.5 68q-98 0 -157.5 -67t-59.5 -182t59.5 -181.5t157.5 -66.5zM247 708v81h273v-81
h-273z" />
    <glyph glyph-name="omacron" unicode="&#x14d;" 
d="M267 -10q-102 0 -166.5 70.5t-64.5 177.5t64 177t167 70q102 0 166 -70t64 -177t-64 -177.5t-166 -70.5zM267 75q58 0 90.5 45t32.5 118q0 72 -32.5 117t-90.5 45t-91 -45t-33 -117q0 -73 33 -118t91 -45zM130 570v81h273v-81h-273z" />
    <glyph glyph-name="Obreve" unicode="&#x14e;" horiz-adv-x="762" 
d="M381 -10q-145 0 -237 93t-92 244q0 150 92.5 244t236.5 94q145 0 236.5 -94.5t91.5 -243.5q0 -151 -92.5 -244t-235.5 -93zM381 79q98 0 157.5 66.5t59.5 181.5q0 113 -58.5 181t-158.5 68q-98 0 -157.5 -67t-59.5 -182t59.5 -181.5t157.5 -66.5zM450 830h72
q-4 -62 -41.5 -97.5t-98.5 -35.5q-60 0 -97 35.5t-41 97.5h72q4 -30 21 -48t46 -18t46 18t21 48z" />
    <glyph glyph-name="obreve" unicode="&#x14f;" 
d="M267 -10q-102 0 -166.5 70.5t-64.5 177.5t64 177t167 70q102 0 166 -70t64 -177t-64 -177.5t-166 -70.5zM267 75q58 0 90.5 45t32.5 118q0 72 -32.5 117t-90.5 45t-91 -45t-33 -117q0 -73 33 -118t91 -45zM334 676h72q-4 -62 -41.5 -98t-98.5 -36q-60 0 -97 36t-41 98h72
q8 -67 67 -67t67 67z" />
    <glyph glyph-name="Ohungarumlaut" unicode="&#x150;" horiz-adv-x="762" 
d="M381 -10q-145 0 -237 93t-92 244q0 150 92.5 244t236.5 94q145 0 236.5 -94.5t91.5 -243.5q0 -151 -92.5 -244t-235.5 -93zM381 79q98 0 157.5 66.5t59.5 181.5q0 113 -58.5 181t-158.5 68q-98 0 -157.5 -67t-59.5 -182t59.5 -181.5t157.5 -66.5zM264 696l58 147h116
l-93 -147h-81zM433 696l58 147h116l-93 -147h-81z" />
    <glyph glyph-name="ohungarumlaut" unicode="&#x151;" 
d="M267 -10q-102 0 -166.5 70.5t-64.5 177.5t64 177t167 70q102 0 166 -70t64 -177t-64 -177.5t-166 -70.5zM267 75q58 0 90.5 45t32.5 118q0 72 -32.5 117t-90.5 45t-91 -45t-33 -117q0 -73 33 -118t91 -45zM151 531l58 147h116l-93 -147h-81zM320 531l58 147h116l-93 -147
h-81z" />
    <glyph glyph-name="OE" unicode="&#x152;" horiz-adv-x="900" 
d="M842 0h-236q-52 0 -124.5 -5t-95.5 -5q-119 0 -201 59q-130 88 -130 275q0 91 35.5 165t100.5 118q83 58 202 58q24 0 93 -3t121 -3h232l-29 -89h-215v-190h214v-89h-214v-202h247v-89zM393 79q57 0 97 9v477q-40 11 -100 11q-84 0 -137 -45q-86 -66 -86 -204
q0 -147 94 -210q53 -38 132 -38z" />
    <glyph glyph-name="oe" unicode="&#x153;" horiz-adv-x="837" 
d="M265 -10q-101 0 -165 70.5t-64 177.5t63 177t163 70q60 0 105 -25.5t70 -69.5h2q52 95 159 95q92 0 147 -67.5t55 -181.5v-25h-305q2 -62 40.5 -100t101.5 -38q62 0 119 32l31 -71q-69 -44 -161 -44q-126 0 -185 97h-2q-58 -97 -174 -97zM267 74q58 0 90 45.5t32 118.5
t-32 118t-90 45t-91 -45.5t-33 -117.5q0 -73 33 -118.5t91 -45.5zM495 285h198q-1 50 -25.5 84.5t-71.5 34.5q-46 0 -73 -34.5t-28 -84.5z" />
    <glyph glyph-name="Racute" unicode="&#x154;" horiz-adv-x="573" 
d="M82 0v659h165q89 0 143 -30q91 -46 91 -155q0 -65 -34.5 -109t-95.5 -63v-2q27 -15 81 -106l113 -194h-121l-101 175q-47 83 -74 89h-62v-264h-105zM187 351h56q46 0 79 18q50 30 50 94q0 60 -43 87q-30 23 -85 23h-57v-222zM201 696l58 147h114l-93 -147h-79z" />
    <glyph glyph-name="racute" unicode="&#x155;" horiz-adv-x="349" 
d="M59 0v473h87l12 -55q66 67 131 67q36 0 62 -17l-37 -89q-23 13 -50 13q-44 0 -101 -53v-339h-104zM132 531l58 147h114l-93 -147h-79z" />
    <glyph glyph-name="Rcommaaccent" unicode="&#x156;" horiz-adv-x="573" 
d="M82 0v659h165q89 0 143 -30q91 -46 91 -155q0 -65 -34.5 -109t-95.5 -63v-2q27 -15 81 -106l113 -194h-121l-101 175q-47 83 -74 89h-62v-264h-105zM187 351h56q46 0 79 18q50 30 50 94q0 60 -43 87q-30 23 -85 23h-57v-222zM216 -237l-26 64q73 17 73 64q0 27 -21 57h90
q23 -32 23 -72q0 -93 -139 -113z" />
    <glyph glyph-name="rcommaaccent" unicode="&#x157;" horiz-adv-x="349" 
d="M59 0v473h87l12 -55q66 67 131 67q36 0 62 -17l-37 -89q-23 13 -50 13q-44 0 -101 -53v-339h-104zM48 -237l-26 64q73 17 73 64q0 27 -21 57h90q23 -32 23 -72q0 -93 -139 -113z" />
    <glyph glyph-name="Rcaron" unicode="&#x158;" horiz-adv-x="573" 
d="M82 0v659h165q89 0 143 -30q91 -46 91 -155q0 -65 -34.5 -109t-95.5 -63v-2q27 -15 81 -106l113 -194h-121l-101 175q-47 83 -74 89h-62v-264h-105zM187 351h56q46 0 79 18q50 30 50 94q0 60 -43 87q-30 23 -85 23h-57v-222zM210 696l-100 147h85l60 -86l59 86h83
l-99 -147h-88z" />
    <glyph glyph-name="rcaron" unicode="&#x159;" horiz-adv-x="349" 
d="M57 0v473h87l12 -55q66 67 131 67q36 0 62 -17l-37 -89q-23 13 -50 13q-44 0 -101 -53v-339h-104zM140 531l-100 147h85l60 -85l59 85h83l-99 -147h-88z" />
    <glyph glyph-name="Sacute" unicode="&#x15a;" horiz-adv-x="517" 
d="M50 45l42 80q69 -46 146 -46q51 0 84.5 21t33.5 66q0 38 -29.5 67t-72 50t-84.5 44.5t-71.5 64t-29.5 95.5q0 76 56 127t152 51q93 0 155 -33v-95q-76 39 -152 39q-42 0 -70.5 -19t-28.5 -60q0 -35 29.5 -62.5t71.5 -48.5t84 -45t71.5 -66.5t29.5 -99.5q0 -85 -63 -135
t-164 -50q-113 0 -190 55zM218 696l58 147h114l-93 -147h-79z" />
    <glyph glyph-name="sacute" unicode="&#x15b;" horiz-adv-x="406" 
d="M23 34l32 77q60 -38 126 -38q89 0 89 59q0 24 -23 40.5t-55.5 28.5t-65 27t-55.5 44.5t-23 73.5q0 61 46.5 100t126.5 39q72 0 131 -23v-89q-67 29 -127 29q-75 0 -75 -50q0 -23 23 -39t56 -28t65.5 -27.5t55.5 -47t23 -76.5q0 -72 -53 -108t-134 -36q-91 0 -163 44z
M161 531l58 147h114l-93 -147h-79z" />
    <glyph glyph-name="Scircumflex" unicode="&#x15c;" horiz-adv-x="517" 
d="M50 45l42 80q69 -46 146 -46q51 0 84.5 21t33.5 66q0 38 -29.5 67t-72 50t-84.5 44.5t-71.5 64t-29.5 95.5q0 76 56 127t152 51q93 0 155 -33v-95q-76 39 -152 39q-42 0 -70.5 -19t-28.5 -60q0 -35 29.5 -62.5t71.5 -48.5t84 -45t71.5 -66.5t29.5 -99.5q0 -85 -63 -135
t-164 -50q-113 0 -190 55zM118 696l99 147h88l100 -147h-84l-60 86l-59 -86h-84z" />
    <glyph glyph-name="scircumflex" unicode="&#x15d;" horiz-adv-x="406" 
d="M23 34l32 77q60 -38 126 -38q89 0 89 59q0 24 -23 40.5t-55.5 28.5t-65 27t-55.5 44.5t-23 73.5q0 61 46.5 100t126.5 39q72 0 131 -23v-89q-67 29 -127 29q-75 0 -75 -50q0 -23 23 -39t56 -28t65.5 -27.5t55.5 -47t23 -76.5q0 -72 -53 -108t-134 -36q-91 0 -163 44z
M62 531l99 147h88l100 -147h-84l-60 86l-59 -86h-84z" />
    <glyph glyph-name="Scedilla" unicode="&#x15e;" horiz-adv-x="511" 
d="M144 -201l16 52q22 -9 48 -9q51 0 51 34q0 21 -21 28t-62 7l25 81q-89 9 -151 53l42 80q69 -46 146 -46q51 0 84.5 21t33.5 66q0 38 -29.5 67t-72 50t-84.5 44.5t-71.5 64t-29.5 95.5q0 76 56 127t152 51q93 0 155 -33v-95q-76 39 -152 39q-42 0 -70.5 -19t-28.5 -60
q0 -35 29.5 -62.5t71.5 -48.5t84 -45t71.5 -66.5t29.5 -99.5q0 -76 -51.5 -124.5t-136.5 -57.5l-13 -44q83 -5 83 -73q0 -40 -34 -64t-98 -24q-42 0 -73 11z" />
    <glyph glyph-name="scedilla" unicode="&#x15f;" horiz-adv-x="406" 
d="M89 -201l15 52q24 -9 49 -9q50 0 50 34q0 22 -21 28.5t-62 6.5l25 82q-68 7 -122 41l32 77q60 -38 126 -38q89 0 89 59q0 24 -23 40.5t-55.5 28.5t-65 27t-55.5 44.5t-23 73.5q0 61 46.5 100t126.5 39q72 0 131 -23v-89q-67 29 -127 29q-75 0 -75 -50q0 -23 23 -39
t56 -28t65.5 -27.5t55.5 -47t23 -76.5q0 -63 -41 -98.5t-108 -42.5l-14 -44q83 -5 83 -73q0 -40 -34 -64t-98 -24q-41 0 -72 11z" />
    <glyph glyph-name="Scaron" unicode="&#x160;" horiz-adv-x="517" 
d="M50 45l42 80q69 -46 146 -46q51 0 84.5 21t33.5 66q0 38 -29.5 67t-72 50t-84.5 44.5t-71.5 64t-29.5 95.5q0 76 56 127t152 51q93 0 155 -33v-95q-76 39 -152 39q-42 0 -70.5 -19t-28.5 -60q0 -35 29.5 -62.5t71.5 -48.5t84 -45t71.5 -66.5t29.5 -99.5q0 -85 -63 -135
t-164 -50q-113 0 -190 55zM214 696l-100 147h85l60 -86l59 86h83l-99 -147h-88z" />
    <glyph glyph-name="scaron" unicode="&#x161;" horiz-adv-x="406" 
d="M23 34l32 77q60 -38 126 -38q89 0 89 59q0 24 -23 40.5t-55.5 28.5t-65 27t-55.5 44.5t-23 73.5q0 61 46.5 100t126.5 39q72 0 131 -23v-89q-67 29 -127 29q-75 0 -75 -50q0 -23 23 -39t56 -28t65.5 -27.5t55.5 -47t23 -76.5q0 -72 -53 -108t-134 -36q-91 0 -163 44z
M162 531l-100 147h85l60 -85l59 85h83l-99 -147h-88z" />
    <glyph glyph-name="Tcommaaccent" unicode="&#x162;" horiz-adv-x="523" 
d="M207 0v570h-191v89h505l-30 -89h-179v-570h-105zM188 -237l-26 64q73 17 73 64q0 27 -21 57h90q23 -32 23 -72q0 -93 -139 -113z" />
    <glyph glyph-name="tcommaaccent" unicode="&#x163;" horiz-adv-x="373" 
d="M227 -10q-59 0 -92.5 32t-33.5 90v279h-83v82h83v109l104 32v-141h142l-26 -82h-116v-256q0 -60 47 -60q39 0 74 24l33 -72q-53 -37 -132 -37zM120 -237l-26 64q73 17 73 64q0 27 -21 57h90q23 -32 23 -72q0 -93 -139 -113z" />
    <glyph glyph-name="Tcaron" unicode="&#x164;" horiz-adv-x="523" 
d="M207 0v570h-191v89h505l-30 -89h-179v-570h-105zM218 696l-100 147h85l60 -86l59 86h83l-99 -147h-88z" />
    <glyph glyph-name="tcaron" unicode="&#x165;" horiz-adv-x="373" 
d="M227 -10q-59 0 -92.5 32t-33.5 90v279h-83v82h83v109l104 32v-141h142l-26 -82h-116v-256q0 -60 47 -60q39 0 74 24l33 -72q-53 -37 -132 -37zM248 513l36 196h104l-61 -196h-79z" />
    <glyph glyph-name="Tbar" unicode="&#x166;" horiz-adv-x="523" 
d="M207 0v271h-118v87h118v212h-191v89h505l-30 -89h-179v-212h118v-87h-118v-271h-105z" />
    <glyph glyph-name="tbar" unicode="&#x167;" horiz-adv-x="373" 
d="M18 213v81h83v97h-83v82h83v109l104 32v-141h142l-26 -82h-116v-97h93v-81h-93v-78q0 -60 47 -60q35 0 76 26l30 -72q-57 -39 -132 -39q-59 0 -92 32t-33 90v101h-83z" />
    <glyph glyph-name="Utilde" unicode="&#x168;" horiz-adv-x="681" 
d="M341 -10q-187 0 -242 132q-22 48 -22 120v417h105v-409q0 -54 16 -89q36 -82 143 -82q106 0 142 82q17 34 17 91v407h105v-417q0 -70 -23 -122q-57 -130 -241 -130zM192 722v33q0 38 22 59.5t56 21.5q31 0 74 -22.5t56 -22.5q15 0 19.5 9.5t4.5 29.5h69v-34
q0 -37 -22 -58.5t-56 -21.5q-30 0 -73.5 22.5t-56.5 22.5q-14 0 -18.5 -9.5t-4.5 -29.5h-70z" />
    <glyph glyph-name="utilde" unicode="&#x169;" horiz-adv-x="525" 
d="M210 -10q-42 0 -80.5 21t-56.5 70q-14 36 -14 95v297h104v-283q0 -42 9 -64q18 -46 73 -46q66 0 109 50v343h104v-342q0 -99 9 -131h-90l-17 51q-68 -61 -150 -61zM111 549v34q0 38 22 59.5t56 21.5q31 0 74 -23t56 -23q15 0 19.5 9.5t4.5 30.5h69v-34q0 -38 -22 -59.5
t-56 -21.5q-30 0 -73.5 22.5t-56.5 22.5q-14 0 -18.5 -9t-4.5 -30h-70z" />
    <glyph glyph-name="Umacron" unicode="&#x16a;" horiz-adv-x="681" 
d="M341 -10q-187 0 -242 132q-22 48 -22 120v417h105v-409q0 -54 16 -89q36 -82 143 -82q106 0 142 82q17 34 17 91v407h105v-417q0 -70 -23 -122q-57 -130 -241 -130zM207 708v81h273v-81h-273z" />
    <glyph glyph-name="umacron" unicode="&#x16b;" horiz-adv-x="525" 
d="M210 -10q-42 0 -80.5 21t-56.5 70q-14 36 -14 95v297h104v-283q0 -42 9 -64q18 -46 73 -46q66 0 109 50v343h104v-342q0 -99 9 -131h-90l-17 51q-68 -61 -150 -61zM125 570v81h273v-81h-273z" />
    <glyph glyph-name="Ubreve" unicode="&#x16c;" horiz-adv-x="681" 
d="M341 -10q-187 0 -242 132q-22 48 -22 120v417h105v-409q0 -54 16 -89q36 -82 143 -82q106 0 142 82q17 34 17 91v407h105v-417q0 -70 -23 -122q-57 -130 -241 -130zM410 830h72q-4 -62 -41.5 -97.5t-98.5 -35.5q-60 0 -97 35.5t-41 97.5h72q4 -30 21 -48t46 -18t46 18
t21 48z" />
    <glyph glyph-name="ubreve" unicode="&#x16d;" horiz-adv-x="525" 
d="M210 -10q-42 0 -80.5 21t-56.5 70q-14 36 -14 95v297h104v-283q0 -42 9 -64q18 -46 73 -46q66 0 109 50v343h104v-342q0 -99 9 -131h-90l-17 51q-68 -61 -150 -61zM327 676h72q-4 -62 -41.5 -98t-98.5 -36q-60 0 -97 36t-41 98h72q8 -67 67 -67t67 67z" />
    <glyph glyph-name="Uring" unicode="&#x16e;" horiz-adv-x="681" 
d="M341 -10q-187 0 -242 132q-22 48 -22 120v417h105v-409q0 -54 16 -89q36 -82 143 -82q106 0 142 82q17 34 17 91v407h105v-417q0 -70 -23 -122q-57 -130 -241 -130zM344 653q-50 0 -81 26.5t-31 70.5t31 70t81 26t81 -26t31 -70t-31 -70.5t-81 -26.5zM344 701q20 0 32 13
t12 36q0 22 -12 35t-32 13t-32 -13t-12 -35q0 -23 12 -36t32 -13z" />
    <glyph glyph-name="uring" unicode="&#x16f;" horiz-adv-x="525" 
d="M210 -10q-42 0 -80.5 21t-56.5 70q-14 36 -14 95v297h104v-283q0 -42 9 -64q18 -46 73 -46q66 0 109 50v343h104v-342q0 -99 9 -131h-90l-17 51q-68 -61 -150 -61zM262 523q-50 0 -81 26.5t-31 70.5t31 70t81 26t81 -26t31 -70t-31 -70.5t-81 -26.5zM262 571q20 0 32 13
t12 36q0 22 -12 35t-32 13t-32 -13t-12 -35q0 -23 12 -36t32 -13z" />
    <glyph glyph-name="Uhungarumlaut" unicode="&#x170;" horiz-adv-x="681" 
d="M341 -10q-187 0 -242 132q-22 48 -22 120v417h105v-409q0 -54 16 -89q36 -82 143 -82q106 0 142 82q17 34 17 91v407h105v-417q0 -70 -23 -122q-57 -130 -241 -130zM210 696l58 147h116l-93 -147h-81zM379 696l58 147h116l-93 -147h-81z" />
    <glyph glyph-name="uhungarumlaut" unicode="&#x171;" horiz-adv-x="525" 
d="M210 -10q-42 0 -80.5 21t-56.5 70q-14 36 -14 95v297h104v-283q0 -42 9 -64q18 -46 73 -46q66 0 109 50v343h104v-342q0 -99 9 -131h-90l-17 51q-68 -61 -150 -61zM132 531l58 147h116l-93 -147h-81zM301 531l58 147h116l-93 -147h-81z" />
    <glyph glyph-name="Uogonek" unicode="&#x172;" horiz-adv-x="681" 
d="M430 -143l12 -59q-39 -12 -74 -12q-47 0 -73 23t-26 61q0 62 72 118v2q-186 0 -242 132q-22 48 -22 120v417h105v-409q0 -54 16 -89q36 -82 143 -82q106 0 142 82q17 34 17 91v407h105v-417q0 -70 -23 -122q-29 -71 -108 -107q-47 -21 -82.5 -56.5t-35.5 -69.5
q0 -37 36 -37q17 0 38 7z" />
    <glyph glyph-name="uogonek" unicode="&#x173;" horiz-adv-x="525" 
d="M376 5l-16 46q-68 -61 -150 -61q-42 0 -80.5 21t-56.5 70q-14 36 -14 95v297h104v-283q0 -42 9 -64q18 -46 73 -46q66 0 109 50v343h104v-332q0 -111 9 -143q-101 -49 -101 -111q0 -37 35 -37q17 0 38 7l12 -59q-39 -12 -73 -12q-48 0 -74 23t-26 61q0 73 98 135z" />
    <glyph glyph-name="Wcircumflex" unicode="&#x174;" horiz-adv-x="930" 
d="M240 -4l-230 663h118l123 -385q23 -71 36 -123h3q15 56 38 122l92 272l-40 114h108l129 -381q33 -100 40 -126h2q18 74 34 124l118 383h108l-220 -663h-88l-101 289q-33 96 -39 121h-3q-13 -46 -39 -120l-103 -290h-86zM325 696l99 147h88l100 -147h-84l-60 86l-59 -86
h-84z" />
    <glyph glyph-name="wcircumflex" unicode="&#x175;" horiz-adv-x="729" 
d="M174 -3l-166 476h107l104 -339h2l103 339h85l107 -340h2l102 340h103l-168 -476h-81l-107 340h-2l-107 -340h-84zM222 531l99 147h88l100 -147h-84l-60 86l-59 -86h-84z" />
    <glyph glyph-name="Ycircumflex" unicode="&#x176;" horiz-adv-x="569" 
d="M232 0v262l-222 397h115l161 -302h2l157 302h114l-221 -399v-260h-106zM143 696l99 147h88l100 -147h-84l-60 86l-59 -86h-84z" />
    <glyph glyph-name="ycircumflex" unicode="&#x177;" horiz-adv-x="501" 
d="M494 473l-180 -495q-25 -69 -52.5 -113.5t-57.5 -65.5t-56.5 -28.5t-61.5 -7.5q-54 0 -99 20l26 83q36 -17 69 -17q44 0 77.5 35t60.5 117l-212 472h112l147 -350h2l117 350h108zM114 531l99 147h88l100 -147h-84l-60 86l-59 -86h-84z" />
    <glyph glyph-name="Ydieresis" unicode="&#x178;" horiz-adv-x="569" 
d="M232 0v262l-222 397h115l161 -302h2l157 302h114l-221 -399v-260h-106zM194 702q-23 0 -39.5 16.5t-16.5 39.5t16.5 39.5t39.5 16.5t39 -16.5t16 -39.5t-16 -39.5t-39 -16.5zM380 702q-23 0 -39 16.5t-16 39.5t16 39.5t39 16.5t39 -16.5t16 -39.5t-16 -39.5t-39 -16.5z
" />
    <glyph glyph-name="Zacute" unicode="&#x179;" horiz-adv-x="562" 
d="M34 0l328 570h-290l-28 89h484l-323 -570h331v-89h-502zM237 696l58 147h114l-93 -147h-79z" />
    <glyph glyph-name="zacute" unicode="&#x17a;" horiz-adv-x="404" 
d="M17 0l226 391h-190l-22 82h365l-224 -391h221v-82h-376zM157 531l58 147h114l-93 -147h-79z" />
    <glyph glyph-name="Zdotaccent" unicode="&#x17b;" horiz-adv-x="562" 
d="M34 0l328 570h-290l-28 89h484l-323 -570h331v-89h-502zM292 709q-28 0 -47 18.5t-19 46.5q0 27 19 45.5t47 18.5t46.5 -18.5t18.5 -45.5t-18.5 -46t-46.5 -19z" />
    <glyph glyph-name="zdotaccent" unicode="&#x17c;" horiz-adv-x="404" 
d="M17 0l226 391h-190l-22 82h365l-224 -391h221v-82h-376zM212 560q-28 0 -47 18.5t-19 45.5t19 45.5t47 18.5t46.5 -18t18.5 -46q0 -27 -18.5 -45.5t-46.5 -18.5z" />
    <glyph glyph-name="Zcaron" unicode="&#x17d;" horiz-adv-x="562" 
d="M34 0l328 570h-290l-28 89h484l-323 -570h331v-89h-502zM246 696l-100 147h85l60 -86l59 86h83l-99 -147h-88z" />
    <glyph glyph-name="zcaron" unicode="&#x17e;" horiz-adv-x="404" 
d="M17 0l226 391h-190l-22 82h365l-224 -391h221v-82h-376zM168 531l-100 147h85l60 -85l59 85h83l-99 -147h-88z" />
    <glyph glyph-name="florin" unicode="&#x192;" horiz-adv-x="538" 
d="M300 306l-24 -273q-9 -97 -49 -145q-50 -58 -142 -58q-65 0 -120 28l39 83q37 -19 73 -19q45 0 69 31q18 25 23 73l25 280h-98v83h106l9 115q7 89 42 134q49 70 149 70q66 0 121 -28l-40 -83q-33 19 -72 19q-48 0 -72 -35q-17 -27 -20 -71l-11 -121h126l-27 -83h-107z
" />
    <glyph glyph-name="Aringacute" unicode="&#x1fa;" horiz-adv-x="617" 
d="M11 0l250 653q-32 9 -50.5 33t-18.5 58q0 39 24.5 64.5t65.5 30.5l44 114h116l-81 -124q55 -24 55 -85q0 -33 -18.5 -56.5t-49.5 -32.5l258 -655h-113l-65 169h-244l-63 -169h-110zM215 255h181l-54 151q-30 89 -35 108h-2q-8 -35 -36 -108zM304 696q20 0 31.5 13
t11.5 35q0 23 -11.5 36t-31.5 13t-32 -13t-12 -36q0 -22 12 -35t32 -13z" />
    <glyph glyph-name="aringacute" unicode="&#x1fb;" horiz-adv-x="482" 
d="M241 516q-50 0 -81 26.5t-31 70.5q0 37 23 62t62 31l52 135h116l-91 -141q62 -23 62 -87q0 -44 -31 -70.5t-81 -26.5zM241 564q20 0 31.5 13t11.5 36q0 22 -11.5 35t-31.5 13t-32 -13t-12 -35q0 -23 12 -36t32 -13zM189 -10q-68 0 -111 41.5t-43 108.5q0 88 79 128
q42 22 121 25l85 3v20q0 88 -95 88q-65 0 -126 -35l-36 69q82 47 178 47q183 0 183 -169v-184q0 -100 9 -132h-89l-17 48q-62 -58 -138 -58zM217 73q53 0 103 45v107l-71 -3q-50 -1 -76 -16q-33 -18 -33 -60q0 -34 21 -53.5t56 -19.5z" />
    <glyph glyph-name="AEacute" unicode="&#x1fc;" horiz-adv-x="825" 
d="M10 0l352 659h403l-30 -89h-260l33 -190h226v-89h-210l34 -202h210v-89h-301l-29 169h-227l-90 -169h-111zM258 255h166l-26 168q-5 24 -13 88h-2q-11 -29 -46 -97zM440 696l58 147h114l-93 -147h-79z" />
    <glyph glyph-name="aeacute" unicode="&#x1fd;" horiz-adv-x="767" 
d="M196 -10q-72 0 -116.5 40.5t-44.5 109.5q0 76 55 112t144 36h91v28q0 44 -27 66t-71 22q-65 0 -128 -36l-36 70q82 47 176 47q108 0 146 -75h2q52 75 147 75q92 0 144.5 -66t52.5 -183v-22h-303q2 -64 39.5 -102.5t100.5 -38.5q62 0 119 32l31 -71q-69 -44 -161 -44
q-122 0 -183 83q-71 -83 -178 -83zM217 73q36 0 69.5 19t53.5 44q-11 33 -13 78h-86q-101 0 -101 -70q0 -33 21 -52t56 -19zM428 288h197q-2 49 -26.5 82.5t-70.5 33.5q-45 0 -71.5 -33.5t-28.5 -82.5zM344 531l58 147h114l-93 -147h-79z" />
    <glyph glyph-name="Oslashacute" unicode="&#x1fe;" horiz-adv-x="767" 
d="M138 -27l-66 50l62 74q-79 92 -79 230q0 150 92.5 244t236.5 94q101 0 179 -54l62 75l66 -51l-63 -75q84 -94 84 -233q0 -151 -92.5 -244t-235.5 -93q-106 0 -186 55zM563 479l-306 -360q52 -41 127 -41q98 0 158 67.5t60 181.5q0 91 -39 152zM201 180l304 358
q-50 39 -121 39q-98 0 -158.5 -67.5t-60.5 -182.5q0 -89 36 -147zM337 696l58 147h114l-93 -147h-79z" />
    <glyph glyph-name="oslashacute" unicode="&#x1ff;" 
d="M218 531l58 147h114l-93 -147h-79zM99 -25l-47 37l44 54q-60 69 -60 172q0 107 64 177t167 70q69 0 126 -39l39 49l47 -36l-41 -51q59 -70 59 -170q0 -107 -64 -177.5t-166 -70.5q-72 0 -127 39zM195 99q29 -26 72 -26q58 0 91.5 46t33.5 119q0 54 -17 89zM159 148
l179 228q-29 26 -71 26q-58 0 -92 -46t-34 -118q0 -52 18 -90z" />
    <glyph glyph-name="Scommaaccent" unicode="&#x218;" horiz-adv-x="517" 
d="M50 45l42 80q69 -46 146 -46q51 0 84.5 21t33.5 66q0 38 -29.5 67t-72 50t-84.5 44.5t-71.5 64t-29.5 95.5q0 76 56 127t152 51q93 0 155 -33v-95q-76 39 -152 39q-42 0 -70.5 -19t-28.5 -60q0 -35 29.5 -62.5t71.5 -48.5t84 -45t71.5 -66.5t29.5 -99.5q0 -85 -63 -135
t-164 -50q-113 0 -190 55zM175 -237l-26 64q73 17 73 64q0 27 -21 57h90q23 -32 23 -72q0 -93 -139 -113z" />
    <glyph glyph-name="scommaaccent" unicode="&#x219;" horiz-adv-x="406" 
d="M23 34l32 77q60 -38 126 -38q89 0 89 59q0 24 -23 40.5t-55.5 28.5t-65 27t-55.5 44.5t-23 73.5q0 61 46.5 100t126.5 39q72 0 131 -23v-89q-67 29 -127 29q-75 0 -75 -50q0 -23 23 -39t56 -28t65.5 -27.5t55.5 -47t23 -76.5q0 -72 -53 -108t-134 -36q-91 0 -163 44z
M128 -237l-26 64q73 17 73 64q0 27 -21 57h90q23 -32 23 -72q0 -93 -139 -113z" />
    <glyph glyph-name="circumflex" unicode="&#x2c6;" horiz-adv-x="376" 
d="M44 531l99 147h88l100 -147h-84l-60 86l-59 -86h-84z" />
    <glyph glyph-name="caron" unicode="&#x2c7;" horiz-adv-x="376" 
d="M144 531l-100 147h85l60 -85l59 85h83l-99 -147h-88z" />
    <glyph glyph-name="breve" unicode="&#x2d8;" horiz-adv-x="376" 
d="M255 676h72q-4 -62 -41.5 -98t-98.5 -36q-60 0 -97 36t-41 98h72q8 -67 67 -67t67 67z" />
    <glyph glyph-name="dotaccent" unicode="&#x2d9;" horiz-adv-x="376" 
d="M188 560q-28 0 -47 18.5t-19 45.5t19 45.5t47 18.5t46.5 -18t18.5 -46q0 -27 -18.5 -45.5t-46.5 -18.5z" />
    <glyph glyph-name="ring" unicode="&#x2da;" horiz-adv-x="376" 
d="M188 523q-50 0 -81 26.5t-31 70.5t31 70t81 26t81 -26t31 -70t-31 -70.5t-81 -26.5zM188 571q20 0 32 13t12 36q0 22 -12 35t-32 13t-32 -13t-12 -35q0 -23 12 -36t32 -13z" />
    <glyph glyph-name="ogonek" unicode="&#x2db;" horiz-adv-x="376" 
d="M253 -143l12 -59q-38 -12 -73 -12q-47 0 -73.5 23t-26.5 61q0 74 107 143l84 -13q-103 -52 -103 -113q0 -37 36 -37q17 0 37 7z" />
    <glyph glyph-name="tilde" unicode="&#x2dc;" horiz-adv-x="376" 
d="M37 549v34q0 38 22 59.5t56 21.5q31 0 74 -23t56 -23q15 0 19.5 9.5t4.5 30.5h69v-34q0 -38 -22 -59.5t-56 -21.5q-30 0 -73.5 22.5t-56.5 22.5q-14 0 -18.5 -9t-4.5 -30h-70z" />
    <glyph glyph-name="hungarumlaut" unicode="&#x2dd;" horiz-adv-x="376" 
d="M75 531l58 147h116l-93 -147h-81zM244 531l58 147h116l-93 -147h-81z" />
    <glyph glyph-name="uni0315" unicode="&#x315;" horiz-adv-x="376" 
d="M119 513l36 196h104l-61 -196h-79z" />
    <glyph glyph-name="uni0326" unicode="&#x326;" horiz-adv-x="376" 
d="M131 -237l-26 64q73 17 73 64q0 27 -21 57h90q23 -32 23 -72q0 -93 -139 -113z" />
    <glyph glyph-name="Alphatonos" unicode="&#x386;" horiz-adv-x="621" 
d="M20 473l38 186h105l-59 -186h-84zM13 0l253 662h81l261 -662h-113l-65 169h-245l-62 -169h-110zM217 255h181l-54 150l-35 106h-2q-5 -20 -36 -106z" />
    <glyph glyph-name="Epsilontonos" unicode="&#x388;" horiz-adv-x="611" 
d="M2 473l38 186h105l-59 -186h-84zM199 0v659h349l-30 -89h-214v-190h214v-89h-214v-202h247v-89h-352z" />
    <glyph glyph-name="Etatonos" unicode="&#x389;" horiz-adv-x="813" 
d="M2 473l38 186h105l-59 -186h-84zM189 0v659h106v-278h329v278h106v-659h-106v292h-329v-292h-106z" />
    <glyph glyph-name="Iotatonos" unicode="&#x38a;" horiz-adv-x="388" 
d="M199 0v659h105v-659h-105zM2 473l38 186h105l-59 -186h-84z" />
    <glyph glyph-name="Omicrontonos" unicode="&#x38c;" horiz-adv-x="841" 
d="M2 473l38 186h105l-59 -186h-84zM461 -10q-145 0 -237 93t-92 244q0 149 92.5 243.5t236.5 94.5q145 0 236.5 -94.5t91.5 -243.5q0 -151 -92.5 -244t-235.5 -93zM461 79q98 0 157.5 66.5t59.5 181.5q0 113 -58.5 181t-158.5 68q-98 0 -157.5 -67t-59.5 -182t59.5 -181.5
t157.5 -66.5z" />
    <glyph glyph-name="Upsilontonos" unicode="&#x38e;" horiz-adv-x="758" 
d="M2 473l38 186h105l-59 -186h-84zM408 0v185q0 89 -57.5 203t-175.5 271h118q133 -176 167 -302h2q26 122 166 302h116q-118 -160 -174 -266t-56 -212v-181h-106z" />
    <glyph glyph-name="Omegatonos" unicode="&#x38f;" horiz-adv-x="828" 
d="M2 473l38 186h105l-59 -186h-84zM136 0v89h52q41 0 88 -9l1 3q-64 47 -102 116t-38 151q0 130 85.5 222.5t234.5 92.5q100 0 174 -45.5t109.5 -116t35.5 -153.5t-38 -151.5t-101 -115.5v-3q47 9 88 9h52v-89h-264v71q151 109 151 275q0 99 -54.5 164.5t-152.5 65.5
t-153 -65.5t-55 -164.5q0 -166 151 -275v-71h-264z" />
    <glyph glyph-name="iotadieresistonos" unicode="&#x390;" horiz-adv-x="274" 
d="M177 -7q-56 0 -86.5 29t-30.5 85v366h105v-346q0 -43 40 -43q19 0 33 7l22 -82q-36 -16 -83 -16zM26 552q-22 0 -36.5 15t-14.5 37t14.5 37t36.5 15t36 -15t14 -37t-14 -37t-36 -15zM79 531l45 167h85l-70 -167h-60zM246 552q-22 0 -36 15t-14 37t14 37t36 15t36.5 -15
t14.5 -37t-14.5 -37t-36.5 -15z" />
    <glyph glyph-name="Alpha" unicode="&#x391;" horiz-adv-x="621" 
d="M13 0l253 662h81l261 -662h-113l-65 169h-244l-63 -169h-110zM217 255h181l-54 150l-35 106h-2q-9 -34 -36 -106z" />
    <glyph glyph-name="Beta" unicode="&#x392;" horiz-adv-x="560" 
d="M84 0v659h180q100 0 152 -48t52 -119q0 -46 -22 -83t-61 -55v-2q58 -13 92 -57t34 -103q0 -83 -60 -137.5t-169 -54.5h-198zM189 87h84q131 0 131 104q0 47 -32.5 74t-87.5 27h-95v-205zM189 379h62q55 0 84 26t29 71q0 44 -28 70t-85 26h-62v-193z" />
    <glyph glyph-name="Gamma" unicode="&#x393;" horiz-adv-x="447" 
d="M84 0v659h359l-30 -89h-224v-570h-105z" />
    <glyph glyph-name="Epsilon" unicode="&#x395;" horiz-adv-x="495" 
d="M84 0v659h349l-30 -89h-214v-190h213v-89h-213v-202h247v-89h-352z" />
    <glyph glyph-name="Zeta" unicode="&#x396;" horiz-adv-x="563" 
d="M36 0l328 570h-290l-28 89h484l-323 -570h331v-89h-502z" />
    <glyph glyph-name="Eta" unicode="&#x397;" horiz-adv-x="707" 
d="M84 0v659h105v-278h330v278h105v-659h-105v292h-330v-292h-105z" />
    <glyph glyph-name="Theta" unicode="&#x398;" horiz-adv-x="760" 
d="M380 -10q-145 0 -237 93t-92 244q0 149 92.5 243.5t236.5 94.5q145 0 236.5 -94.5t91.5 -243.5q0 -151 -92.5 -244t-235.5 -93zM380 79q99 0 159 67t60 181q0 113 -59 181t-160 68q-98 0 -158.5 -67.5t-60.5 -181.5t60 -181t159 -67zM527 376v-85h-300v85h300z" />
    <glyph glyph-name="Iota" unicode="&#x399;" horiz-adv-x="272" 
d="M84 0v659h105v-659h-105z" />
    <glyph glyph-name="Kappa" unicode="&#x39a;" horiz-adv-x="578" 
d="M84 0v659h105v-288h2l234 288h123l-268 -322l283 -337h-128l-244 293h-2v-293h-105z" />
    <glyph glyph-name="Lambda" unicode="&#x39b;" horiz-adv-x="623" 
d="M13 0l255 662h83l259 -662h-114l-148 403q-16 44 -36 108h-2q-10 -40 -35 -106l-150 -405h-112z" />
    <glyph glyph-name="Mu" unicode="&#x39c;" horiz-adv-x="815" 
d="M84 0v659h96l177 -258l57 -89h2q18 34 55 93l163 254h97v-659h-105v389q0 66 1 95h-1q-8 -15 -46 -76l-141 -221h-50l-155 226q-33 48 -45 70h-2q2 -28 2 -92v-391h-105z" />
    <glyph glyph-name="Nu" unicode="&#x39d;" horiz-adv-x="742" 
d="M658 0h-93l-296 390q-2 3 -81 109h-2q3 -44 3 -106v-393h-105v659h103l285 -375q50 -64 81 -112h2q-2 70 -2 113v374h105v-659z" />
    <glyph glyph-name="Xi" unicode="&#x39e;" horiz-adv-x="546" 
d="M39 0v89h467v-89h-467zM104 292v89h335v-89h-335zM54 570v89h449l-31 -89h-418z" />
    <glyph glyph-name="Omicron" unicode="&#x39f;" horiz-adv-x="760" 
d="M383 -10q-145 0 -237 93t-92 244q0 150 92.5 244t236.5 94q145 0 236.5 -94.5t91.5 -243.5q0 -151 -92.5 -244t-235.5 -93zM383 79q98 0 157.5 66.5t59.5 181.5q0 113 -58.5 181t-158.5 68q-98 0 -157.5 -67t-59.5 -182t59.5 -181.5t157.5 -66.5z" />
    <glyph glyph-name="Pi" unicode="&#x3a0;" horiz-adv-x="679" 
d="M84 0v659h512v-659h-105v570h-302v-570h-105z" />
    <glyph glyph-name="Rho" unicode="&#x3a1;" horiz-adv-x="528" 
d="M84 0v659h147q92 0 147 -29q103 -54 103 -184q0 -62 -29.5 -113t-91.5 -77q-56 -24 -138 -24h-33v-232h-105zM189 318h40q52 0 83 17q59 28 59 111q0 75 -55 108q-33 19 -88 19h-39v-255z" />
    <glyph glyph-name="Sigma" unicode="&#x3a3;" horiz-adv-x="535" 
d="M21 0l202 347l-192 312h462l-29 -89h-260l131 -221l-147 -260h293v-89h-460z" />
    <glyph glyph-name="Tau" unicode="&#x3a4;" horiz-adv-x="527" 
d="M209 0v570h-191v89h505l-30 -89h-179v-570h-105z" />
    <glyph glyph-name="Upsilon" unicode="&#x3a5;" horiz-adv-x="597" 
d="M248 0v185q0 89 -57.5 202.5t-176.5 271.5h118q133 -176 167 -302h3q25 122 165 302h116q-118 -160 -174 -266t-56 -212v-181h-105z" />
    <glyph glyph-name="Phi" unicode="&#x3a6;" horiz-adv-x="780" 
d="M338 -20v61q-132 12 -209 87.5t-77 197.5q0 123 77.5 199.5t208.5 90.5v58h104v-58q131 -14 208.5 -90.5t77.5 -199.5q0 -122 -77 -197.5t-209 -87.5v-61h-104zM338 132v393q-84 -10 -131 -61t-47 -138q0 -84 45.5 -134.5t132.5 -59.5zM442 132q87 9 132.5 59.5
t45.5 134.5q0 87 -47 138t-131 61v-393z" />
    <glyph glyph-name="Chi" unicode="&#x3a7;" horiz-adv-x="616" 
d="M17 0l233 331l-216 328h119l164 -248l172 248h116l-228 -325l221 -334h-119l-168 254l-179 -254h-115z" />
    <glyph glyph-name="Psi" unicode="&#x3a8;" horiz-adv-x="760" 
d="M328 0v209q-133 10 -193 90.5t-60 248.5q0 60 4 111h104q-4 -48 -4 -104q0 -127 34.5 -187t114.5 -64v355h105v-355q79 4 113.5 64t34.5 187q0 50 -3 104h103q5 -63 5 -111q0 -168 -60.5 -248.5t-192.5 -90.5v-209h-105z" />
    <glyph glyph-name="uni03A9" unicode="&#x3a9;" horiz-adv-x="744" 
d="M429 0v71q151 110 151 275q0 99 -55 164.5t-153 65.5t-153 -65.5t-55 -164.5q0 -166 151 -275v-71h-264v89h52q43 0 88 -9l1 3q-64 47 -102 116t-38 151q0 130 85.5 222.5t234.5 92.5t234 -92.5t85 -222.5q0 -83 -38 -151.5t-101 -115.5v-3q47 9 88 9h53v-89h-264z" />
    <glyph glyph-name="Iotadieresis" unicode="&#x3aa;" horiz-adv-x="272" 
d="M84 0v659h105v-659h-105zM43 702q-23 0 -39.5 16.5t-16.5 39.5t16.5 39.5t39.5 16.5t39 -16.5t16 -39.5t-16 -39.5t-39 -16.5zM229 702q-23 0 -39 16.5t-16 39.5t16 39.5t39 16.5t39 -16.5t16 -39.5t-16 -39.5t-39 -16.5z" />
    <glyph glyph-name="Upsilondieresis" unicode="&#x3ab;" horiz-adv-x="597" 
d="M248 0v185q0 89 -57.5 202.5t-176.5 271.5h118q133 -176 167 -302h3q25 122 165 302h116q-118 -160 -174 -266t-56 -212v-181h-105zM208 702q-23 0 -39.5 16.5t-16.5 39.5t16.5 39.5t39.5 16.5t39 -16.5t16 -39.5t-16 -39.5t-39 -16.5zM394 702q-23 0 -39 16.5t-16 39.5
t16 39.5t39 16.5t39 -16.5t16 -39.5t-16 -39.5t-39 -16.5z" />
    <glyph glyph-name="alphatonos" unicode="&#x3ac;" horiz-adv-x="587" 
d="M223 -10q-82 0 -133.5 68.5t-51.5 179.5q0 107 51 177t134 70q116 0 162 -140h2q22 79 48 136l86 -38q-57 -116 -88 -207l8 -27.5l8.5 -30t7.5 -22.5q13 -36 27 -52.5t37 -16.5q16 0 26 5l22 -86q-26 -11 -57 -11q-64 0 -96 60q-15 28 -29 81h-2q-17 -60 -58.5 -103
t-103.5 -43zM232 77q81 0 115 166q-20 73 -45.5 114t-65.5 41q-41 0 -67 -44.5t-26 -115.5q0 -69 25 -115t64 -46zM414 698l-114 -167h-83l74 167h123z" />
    <glyph glyph-name="epsilontonos" unicode="&#x3ad;" horiz-adv-x="456" 
d="M393 698l-114 -167h-83l74 167h123zM255 -10q-104 0 -158.5 42.5t-54.5 105.5q0 40 22.5 69t64.5 39v2q-77 26 -77 102q0 60 51 97.5t139 37.5q90 0 158 -28v-85q-72 32 -149 32q-44 0 -70 -16.5t-26 -44.5q0 -27 27 -45t82 -18q40 0 74 3v-78q-30 3 -70 3
q-123 0 -123 -67q0 -34 31 -52t84 -18q74 0 150 38l32 -69q-90 -50 -187 -50z" />
    <glyph glyph-name="etatonos" unicode="&#x3ae;" horiz-adv-x="584" 
d="M108 0v337q0 32 -8.5 43.5t-25.5 11.5q-14 0 -27 -5l-21 83q35 15 71 15q81 0 100 -74h2q90 74 173 74q63 0 105 -40t42 -130v-552h-104v519q0 53 -16.5 82.5t-60.5 29.5q-58 0 -126 -57v-337h-104zM468 698l-114 -167h-83l74 167h123z" />
    <glyph glyph-name="iotatonos" unicode="&#x3af;" horiz-adv-x="274" 
d="M177 -7q-56 0 -86.5 29t-30.5 85v366h105v-346q0 -43 40 -43q19 0 33 7l22 -82q-36 -16 -83 -16zM264 698l-114 -167h-83l74 167h123z" />
    <glyph glyph-name="upsilondieresistonos" unicode="&#x3b0;" horiz-adv-x="570" 
d="M14 470q38 15 76 15q105 0 105 -126q0 -20 -4.5 -65.5t-4.5 -69.5q0 -149 106 -149q60 0 90.5 49t30.5 137q0 48 -16.5 107.5t-47.5 104.5h108q62 -95 62 -217q0 -120 -59 -193t-169 -73q-101 0 -155.5 56.5t-54.5 158.5q0 28 4.5 71.5t4.5 63.5q0 52 -32 52
q-10 0 -22 -5zM164 552q-22 0 -36.5 15t-14.5 37t14.5 37t36.5 15t36 -15t14 -37t-14 -37t-36 -15zM217 531l45 167h85l-70 -167h-60zM384 552q-22 0 -36 15t-14 37t14 37t36 15t36.5 -15t14.5 -37t-14.5 -37t-36.5 -15z" />
    <glyph glyph-name="alpha" unicode="&#x3b1;" horiz-adv-x="587" 
d="M223 -10q-82 0 -133.5 68.5t-51.5 179.5q0 107 51 177t134 70q116 0 162 -140h2q22 79 48 136l86 -38q-57 -116 -88 -207l8 -27.5l8.5 -30t7.5 -22.5q13 -36 27 -52.5t37 -16.5q16 0 26 5l22 -86q-26 -11 -57 -11q-64 0 -96 60q-15 28 -29 81h-2q-17 -60 -58.5 -103
t-103.5 -43zM232 77q81 0 115 166q-20 73 -45.5 114t-65.5 41q-41 0 -67 -44.5t-26 -115.5q0 -69 25 -115t64 -46z" />
    <glyph glyph-name="beta" unicode="&#x3b2;" horiz-adv-x="548" 
d="M71 -237v737q0 104 56 156t146 52q98 0 152.5 -56t54.5 -131q0 -61 -27.5 -102t-70.5 -56v-2q55 -11 90.5 -57.5t35.5 -109.5q0 -91 -59.5 -147.5t-152.5 -56.5q-72 0 -119 31h-2v-258h-104zM175 113q44 -36 111 -36q52 0 84 31.5t32 88.5q0 55 -36 87.5t-105 32.5
q-15 0 -24 -1v84h20q54 0 85 29.5t31 83.5q0 47 -26.5 77.5t-72.5 30.5q-45 0 -72 -32t-27 -91v-385z" />
    <glyph glyph-name="gamma" unicode="&#x3b3;" horiz-adv-x="555" 
d="M295 128h2q47 209 176 357q59 -57 72 -68q-76 -92 -129.5 -199.5t-85.5 -261.5v-193h-110q0 101 10 193q-4 124 -21.5 221t-53 158.5t-84.5 61.5q-18 0 -31 -5l-23 82q31 11 64 11q54 0 95 -30t65 -82t37 -112.5t17 -132.5z" />
    <glyph glyph-name="delta" unicode="&#x3b4;" horiz-adv-x="538" 
d="M207 435v2q-41 33 -63 63.5t-22 70.5q0 62 48 99.5t121 37.5q103 0 206 -45l-32 -82q-94 41 -165 41q-73 0 -73 -51q0 -26 28 -52.5t67.5 -53.5t79.5 -59.5t68 -81.5t28 -108q0 -94 -63 -160t-170 -66q-103 0 -165 62t-62 155q0 83 46 141.5t123 86.5zM393 212
q0 54 -29 92.5t-82 76.5q-65 -20 -101.5 -64.5t-36.5 -106.5q0 -60 32 -97.5t89 -37.5t92.5 37.5t35.5 99.5z" />
    <glyph glyph-name="epsilon" unicode="&#x3b5;" horiz-adv-x="456" 
d="M255 -10q-104 0 -158.5 42.5t-54.5 105.5q0 40 22.5 69t64.5 39v2q-77 26 -77 102q0 60 51 97.5t139 37.5q90 0 158 -28v-85q-72 32 -149 32q-44 0 -70 -16.5t-26 -44.5q0 -27 27 -45t82 -18q40 0 74 3v-78q-30 3 -70 3q-123 0 -123 -67q0 -34 31 -52t84 -18q74 0 150 38
l32 -69q-90 -50 -187 -50z" />
    <glyph glyph-name="zeta" unicode="&#x3b6;" horiz-adv-x="456" 
d="M285 -144q46 68 46 95q0 23 -21.5 38.5t-53 24t-69 24t-69 35.5t-53 61.5t-21.5 99.5q0 126 72 228.5t188 164.5v3q-110 -28 -219 -33l-23 85q162 0 366 26l5 -61q-282 -166 -282 -398q0 -54 29.5 -87t72 -47.5t85 -27t72 -39t29.5 -71.5q0 -66 -69 -165z" />
    <glyph glyph-name="eta" unicode="&#x3b7;" horiz-adv-x="584" 
d="M108 0v337q0 32 -8.5 43.5t-25.5 11.5q-14 0 -27 -5l-21 83q35 15 71 15q81 0 100 -74h2q90 74 173 74q63 0 105 -40t42 -130v-552h-104v519q0 53 -16.5 82.5t-60.5 29.5q-58 0 -126 -57v-337h-104z" />
    <glyph glyph-name="theta" unicode="&#x3b8;" horiz-adv-x="541" 
d="M270 -10q-227 0 -227 359q0 176 57 267.5t171 91.5q113 0 170 -91.5t57 -267.5t-57 -267.5t-171 -91.5zM270 76q61 0 89.5 59t30.5 180h-239q2 -121 30 -180t89 -59zM151 398h238q-3 113 -31 168.5t-87 55.5t-87.5 -55.5t-32.5 -168.5z" />
    <glyph glyph-name="iota" unicode="&#x3b9;" horiz-adv-x="274" 
d="M177 -7q-56 0 -86.5 29t-30.5 85v366h105v-346q0 -43 40 -43q19 0 33 7l22 -82q-36 -16 -83 -16z" />
    <glyph glyph-name="kappa" unicode="&#x3ba;" horiz-adv-x="548" 
d="M171 0h-104v473h104v-213h2q60 71 148 132t163 92l34 -91q-95 -34 -209 -125l212 -268h-122l-165 211q-35 -32 -63 -68v-143z" />
    <glyph glyph-name="lambda" unicode="&#x3bb;" horiz-adv-x="501" 
d="M13 0l211 473q-32 90 -55 119t-59 29q-28 0 -60 -14l-27 80q49 21 96 21q77 0 118.5 -48.5t86.5 -176.5l172 -483h-110l-114 349h-2l-146 -349h-111z" />
    <glyph glyph-name="uni03BC" unicode="&#x3bc;" horiz-adv-x="566" 
d="M360 208v265h104v-315q0 -43 10 -57.5t32 -14.5q12 0 28 6l21 -83q-34 -16 -73 -16q-41 0 -66 24t-31 65h-2q-42 -92 -130 -92q-57 0 -86 38h-2q4 -55 4 -130v-135h-104v710h104v-294q0 -46 23 -72.5t65 -26.5q41 0 72 32.5t31 95.5z" />
    <glyph glyph-name="nu" unicode="&#x3bd;" horiz-adv-x="486" 
d="M174 -3l-165 476h106l120 -361h2q104 111 104 232q0 62 -27 129h112q23 -63 23 -125q0 -90 -50.5 -174t-150.5 -177h-74z" />
    <glyph glyph-name="xi" unicode="&#x3be;" horiz-adv-x="459" 
d="M293 -143q42 54 42 88q0 28 -29.5 45.5t-71 28.5t-83 26.5t-71 50t-29.5 87.5q0 58 35.5 98t94.5 59v2q-91 26 -91 106q0 106 170 177v3q-107 -22 -180 -25l-23 85q217 0 374 20l5 -61q-239 -83 -239 -183q0 -80 132 -80q32 0 56 3v-84q-23 3 -58 3q-71 0 -120 -26.5
t-49 -80.5q0 -35 29.5 -57t71 -34t83.5 -25.5t71.5 -42.5t29.5 -75q0 -60 -66 -153z" />
    <glyph glyph-name="omicron" unicode="&#x3bf;" horiz-adv-x="538" 
d="M269 -10q-102 0 -166.5 70.5t-64.5 177.5t64 177t167 70q102 0 166 -70t64 -177t-64 -177.5t-166 -70.5zM269 75q58 0 90.5 45t32.5 118q0 72 -32.5 117t-90.5 45t-91 -45t-33 -117q0 -73 33 -118t91 -45z" />
    <glyph glyph-name="pi" unicode="&#x3c0;" horiz-adv-x="621" 
d="M112 0v391h-88v82h574l-27 -82h-88v-262q0 -43 34 -43q12 0 24 4l20 -84q-33 -13 -72 -13q-110 0 -110 111v287h-163v-391h-104z" />
    <glyph glyph-name="rho" unicode="&#x3c1;" horiz-adv-x="541" 
d="M65 -237v485q0 115 55.5 176t154.5 61q104 0 166 -65.5t62 -179.5q0 -110 -62 -180t-164 -70q-63 0 -106 30h-2v-257h-104zM169 109q43 -33 97 -33q64 0 97 46.5t33 119.5q0 76 -34 116.5t-85 40.5q-56 0 -82 -41t-26 -110v-139z" />
    <glyph glyph-name="sigmafinal" unicode="&#x3c2;" horiz-adv-x="437" 
d="M250 -142q46 61 46 93q0 21 -14 37.5t-37 28.5t-50.5 24t-55 29.5t-50.5 40t-37 59.5t-14 84q0 105 62.5 168t165.5 63q79 0 131 -31v-89q-52 35 -122 35q-64 0 -97 -39t-33 -100q0 -49 26.5 -82t64 -51l75 -35t64 -46t26.5 -73q0 -66 -69 -162z" />
    <glyph glyph-name="sigma" unicode="&#x3c3;" horiz-adv-x="573" 
d="M418 392v-2q58 -73 58 -170q0 -98 -60.5 -164t-159.5 -66t-158.5 65.5t-59.5 169.5q0 117 67.5 182.5t181.5 65.5h291l-27 -86h-55q-41 0 -78 5zM144 223q0 -68 28.5 -108t83.5 -40t85 42t30 110q0 92 -56 162h-16q-78 0 -116.5 -45.5t-38.5 -120.5z" />
    <glyph glyph-name="tau" unicode="&#x3c4;" horiz-adv-x="449" 
d="M297 -10q-66 0 -106 33t-40 97v271h-131v82h423l-26 -82h-162v-258q0 -58 60 -58q39 0 71 21l32 -72q-53 -34 -121 -34z" />
    <glyph glyph-name="upsilon" unicode="&#x3c5;" horiz-adv-x="570" 
d="M14 470q38 15 76 15q105 0 105 -126q0 -20 -4.5 -65.5t-4.5 -69.5q0 -149 106 -149q60 0 90.5 49t30.5 137q0 48 -16.5 107.5t-47.5 104.5h108q62 -95 62 -217q0 -120 -59 -193t-169 -73q-101 0 -155.5 56.5t-54.5 158.5q0 28 4.5 71.5t4.5 63.5q0 52 -32 52
q-10 0 -22 -5z" />
    <glyph glyph-name="phi" unicode="&#x3c6;" horiz-adv-x="691" 
d="M294 -237v227q-115 12 -185.5 81t-70.5 167q0 99 70.5 168t185.5 81v221h103v-221q115 -12 185.5 -81t70.5 -167q0 -99 -70.5 -168t-185.5 -81v-227h-103zM294 74v329q-66 -8 -108.5 -53.5t-42.5 -111.5t42.5 -111t108.5 -53zM397 74q66 8 108.5 53t42.5 112
q0 65 -42.5 110.5t-108.5 53.5v-329z" />
    <glyph glyph-name="chi" unicode="&#x3c7;" horiz-adv-x="511" 
d="M108 -237h-110l204 377q-42 143 -68.5 199t-64.5 56q-17 0 -29 -5l-23 82q32 12 67 12q63 0 102.5 -55.5t80.5 -192.5h2l123 237h109l-190 -349q58 -180 75 -216q29 -61 66 -61q12 0 29 5l22 -81q-30 -12 -66 -12q-66 0 -106 60t-84 209h-2z" />
    <glyph glyph-name="psi" unicode="&#x3c8;" horiz-adv-x="702" 
d="M398 -237h-103v227q-116 6 -179.5 64t-63.5 164q0 25 5 68.5t5 67.5q0 59 -24 119h102q26 -51 26 -119q0 -20 -4 -62t-4 -66q0 -68 34.5 -108t102.5 -44v634h103v-634q75 5 117 55.5t42 136.5q0 122 -61 207h109q59 -90 59 -213q0 -118 -70.5 -190t-195.5 -79v-228z" />
    <glyph glyph-name="omega" unicode="&#x3c9;" horiz-adv-x="758" 
d="M380 124h-2q-14 -63 -55.5 -98.5t-102.5 -35.5q-82 0 -132 61.5t-50 154.5q0 153 111 275l101 -19q-108 -120 -108 -251q0 -63 23.5 -98t66.5 -35q48 0 72.5 47.5t24.5 124.5q0 63 -5 103h111q-6 -38 -6 -103q0 -77 24.5 -124.5t72.5 -47.5q43 0 67 35t24 98
q0 129 -109 251l102 19q110 -123 110 -275q0 -93 -50 -154.5t-132 -61.5q-60 0 -101.5 35.5t-56.5 98.5z" />
    <glyph glyph-name="iotadieresis" unicode="&#x3ca;" horiz-adv-x="274" 
d="M177 -7q-56 0 -86.5 29t-30.5 85v366h105v-346q0 -43 40 -43q19 0 33 7l22 -82q-36 -16 -83 -16zM26 549q-23 0 -39.5 16.5t-16.5 39.5t16.5 39.5t39.5 16.5t39 -16.5t16 -39.5t-16 -39.5t-39 -16.5zM212 549q-23 0 -39 16.5t-16 39.5t16 39.5t39 16.5t39 -16.5t16 -39.5
t-16 -39.5t-39 -16.5z" />
    <glyph glyph-name="upsilondieresis" unicode="&#x3cb;" horiz-adv-x="570" 
d="M14 470q38 15 76 15q105 0 105 -126q0 -20 -4.5 -65.5t-4.5 -69.5q0 -149 106 -149q60 0 90.5 49t30.5 137q0 48 -16.5 107.5t-47.5 104.5h108q62 -95 62 -217q0 -120 -59 -193t-169 -73q-101 0 -155.5 56.5t-54.5 158.5q0 28 4.5 71.5t4.5 63.5q0 52 -32 52
q-10 0 -22 -5zM176 549q-23 0 -39.5 16.5t-16.5 39.5t16.5 39.5t39.5 16.5t39 -16.5t16 -39.5t-16 -39.5t-39 -16.5zM362 549q-23 0 -39 16.5t-16 39.5t16 39.5t39 16.5t39 -16.5t16 -39.5t-16 -39.5t-39 -16.5z" />
    <glyph glyph-name="omicrontonos" unicode="&#x3cc;" horiz-adv-x="538" 
d="M269 -10q-102 0 -166.5 70.5t-64.5 177.5t64 177t167 70q102 0 166 -70t64 -177t-64 -177.5t-166 -70.5zM269 75q58 0 90.5 45t32.5 118q0 72 -32.5 117t-90.5 45t-91 -45t-33 -117q0 -73 33 -118t91 -45zM422 698l-114 -167h-83l74 167h123z" />
    <glyph glyph-name="upsilontonos" unicode="&#x3cd;" horiz-adv-x="570" 
d="M412 698l-114 -167h-83l74 167h123zM14 470q38 15 76 15q105 0 105 -126q0 -20 -4.5 -65.5t-4.5 -69.5q0 -149 106 -149q60 0 90.5 49t30.5 137q0 48 -16.5 107.5t-47.5 104.5h108q62 -95 62 -217q0 -120 -59 -193t-169 -73q-101 0 -155.5 56.5t-54.5 158.5
q0 28 4.5 71.5t4.5 63.5q0 52 -32 52q-10 0 -22 -5z" />
    <glyph glyph-name="omegatonos" unicode="&#x3ce;" horiz-adv-x="781" 
d="M391 124h-2q-14 -63 -55.5 -98.5t-102.5 -35.5q-82 0 -132 61.5t-50 154.5q0 153 111 275l101 -19q-108 -120 -108 -251q0 -63 23.5 -98t66.5 -35q48 0 72.5 47.5t24.5 124.5q0 63 -5 103h111q-6 -38 -6 -103q0 -77 24.5 -124.5t72.5 -47.5q43 0 67 35t24 98
q0 129 -109 251l102 19q110 -123 110 -275q0 -93 -50 -154.5t-132 -61.5q-60 0 -101.5 35.5t-56.5 98.5zM546 698l-114 -167h-83l74 167h123z" />
    <glyph glyph-name="uni0400" unicode="&#x400;" horiz-adv-x="495" 
d="M84 0v659h349l-30 -89h-214v-190h213v-89h-213v-202h247v-89h-352zM220 696l-93 147h116l58 -147h-81z" />
    <glyph glyph-name="afii10023" unicode="&#x401;" horiz-adv-x="495" 
d="M84 0v659h349l-30 -89h-214v-190h213v-89h-213v-202h247v-89h-352zM162 702q-23 0 -39.5 16.5t-16.5 39.5t16.5 39.5t39.5 16.5t39 -16.5t16 -39.5t-16 -39.5t-39 -16.5zM348 702q-23 0 -39 16.5t-16 39.5t16 39.5t39 16.5t39 -16.5t16 -39.5t-16 -39.5t-39 -16.5z" />
    <glyph glyph-name="afii10051" unicode="&#x402;" horiz-adv-x="721" 
d="M209 0v573h-191v86h537l-29 -86h-212v-183q50 4 81 4q275 0 275 -209q0 -83 -51.5 -137.5t-140.5 -54.5q-47 0 -84 14l23 84q27 -9 51 -9q43 0 69 28t26 78q0 65 -43 91t-128 26q-26 0 -78 -5v-300h-105z" />
    <glyph glyph-name="afii10052" unicode="&#x403;" horiz-adv-x="447" 
d="M84 0v659h359l-30 -89h-224v-570h-105zM214 696l58 147h114l-93 -147h-79z" />
    <glyph glyph-name="afii10053" unicode="&#x404;" horiz-adv-x="623" 
d="M373 -10q-155 0 -237 90t-82 242t88.5 247.5t243.5 95.5q104 0 174 -33v-97q-81 42 -172 42q-97 0 -155 -54.5t-67 -145.5h328v-85h-330q6 -100 62.5 -157t156.5 -57q85 0 165 44l30 -82q-92 -50 -205 -50z" />
    <glyph glyph-name="afii10054" unicode="&#x405;" horiz-adv-x="523" 
d="M52 45l42 80q69 -46 146 -46q51 0 84.5 21t33.5 66q0 38 -29.5 67t-72 50t-84.5 44.5t-71.5 64t-29.5 95.5q0 76 56 127t152 51q93 0 155 -33v-95q-76 39 -152 39q-42 0 -70.5 -19t-28.5 -60q0 -35 29.5 -62.5t71.5 -48.5t84 -45t71.5 -66.5t29.5 -99.5q0 -85 -63 -135
t-164 -50q-113 0 -190 55z" />
    <glyph glyph-name="afii10055" unicode="&#x406;" horiz-adv-x="272" 
d="M84 0v659h105v-659h-105z" />
    <glyph glyph-name="afii10056" unicode="&#x407;" horiz-adv-x="272" 
d="M84 0v659h105v-659h-105zM43 702q-23 0 -39.5 16.5t-16.5 39.5t16.5 39.5t39.5 16.5t39 -16.5t16 -39.5t-16 -39.5t-39 -16.5zM229 702q-23 0 -39 16.5t-16 39.5t16 39.5t39 16.5t39 -16.5t16 -39.5t-16 -39.5t-39 -16.5z" />
    <glyph glyph-name="afii10057" unicode="&#x408;" horiz-adv-x="319" 
d="M-28 -170l21 85q26 -10 57 -10q48 0 64.5 26t16.5 75v653h105v-669q0 -80 -44 -127t-135 -47q-48 0 -85 14z" />
    <glyph glyph-name="afii10058" unicode="&#x409;" horiz-adv-x="905" 
d="M545 87h54q77 0 113.5 28.5t36.5 88.5q0 67 -46 93q-37 23 -115 23h-43v-233zM47 -5q-22 0 -32 3v97q10 -2 21 -2q45 0 74 46q41 66 71.5 214.5t44.5 305.5h319v-252h41q119 0 181 -37q89 -49 89 -164q0 -96 -62.5 -151t-197.5 -55h-156v573h-126q-13 -144 -46 -288.5
t-79 -214.5q-50 -75 -142 -75z" />
    <glyph glyph-name="afii10059" unicode="&#x40a;" horiz-adv-x="964" 
d="M84 0v659h105v-278h308v278h105v-252h43q119 0 181 -37q89 -48 89 -164q0 -96 -62 -151t-198 -55h-158v292h-308v-292h-105zM602 87h56q151 0 151 117q0 66 -47 93q-35 23 -114 23h-46v-233z" />
    <glyph glyph-name="afii10060" unicode="&#x40b;" horiz-adv-x="751" 
d="M209 0v573h-191v86h534l-29 -86h-209v-180q60 6 88 6q102 0 165 -27t89 -96q16 -37 16 -108v-168h-105v159q0 53 -11 79q-15 41 -53 56t-99 15q-45 0 -90 -6v-303h-105z" />
    <glyph glyph-name="afii10061" unicode="&#x40c;" horiz-adv-x="607" 
d="M267 696l58 147h114l-93 -147h-79zM84 0v659h105v-284h62q34 0 59 23.5t36 51.5t27.5 75t28.5 71q36 69 111 69q32 0 56 -9v-93q-21 7 -37 7q-32 0 -48 -29q-10 -17 -26.5 -65t-37 -84.5t-49.5 -53.5v-2q41 -15 80 -90l130 -246h-121l-106 213q-37 76 -70 76h-95v-289
h-105z" />
    <glyph glyph-name="uni040D" unicode="&#x40d;" horiz-adv-x="739" 
d="M84 0v659h105v-374q0 -43 -2 -113h2q31 48 81 112l282 375h103v-659h-105v393q0 77 2 106h-2l-80 -109l-293 -390h-93zM339 696l-93 147h116l58 -147h-81z" />
    <glyph glyph-name="afii10062" unicode="&#x40e;" horiz-adv-x="590" 
d="M143 -8q-27 0 -48 4v90q26 -4 38 -4q41 0 64.5 24t54.5 84l-235 469h117l171 -361h2l156 361h115l-231 -500q-41 -90 -89.5 -128.5t-114.5 -38.5zM298 690q-83 0 -128 44t-43 116h88q0 -37 20 -59.5t63 -22.5q42 0 62 22.5t20 59.5h89q2 -71 -43.5 -115.5t-127.5 -44.5z
" />
    <glyph glyph-name="afii10145" unicode="&#x40f;" horiz-adv-x="681" 
d="M84 0v659h105v-566h304v566h105v-659h-206v-185h-102v185h-206z" />
    <glyph glyph-name="afii10017" unicode="&#x410;" horiz-adv-x="621" 
d="M13 0l253 662h81l261 -662h-113l-65 169h-244l-63 -169h-110zM217 255h181l-54 150l-35 106h-2q-9 -34 -36 -106z" />
    <glyph glyph-name="afii10018" unicode="&#x411;" horiz-adv-x="560" 
d="M189 87h64q151 0 151 112q0 68 -48 94q-34 19 -113 19h-54v-225zM84 0v659h400l-29 -86h-266v-174h52q113 0 176 -32q94 -48 94 -165q0 -94 -62.5 -148t-198.5 -54h-166z" />
    <glyph glyph-name="afii10019" unicode="&#x412;" horiz-adv-x="560" 
d="M84 0v659h180q100 0 152 -48t52 -119q0 -46 -22 -83t-61 -55v-2q58 -13 92 -57t34 -103q0 -83 -60 -137.5t-169 -54.5h-198zM189 87h84q131 0 131 104q0 47 -32.5 74t-87.5 27h-95v-205zM189 379h62q55 0 84 26t29 71q0 44 -28 70t-85 26h-62v-193z" />
    <glyph glyph-name="afii10020" unicode="&#x413;" horiz-adv-x="447" 
d="M84 0v659h359l-30 -89h-224v-570h-105z" />
    <glyph glyph-name="afii10021" unicode="&#x414;" horiz-adv-x="680" 
d="M22 -185v275h40q132 164 194 569h311v-569h83v-275h-102v185h-424v-185h-102zM462 90v483h-123q-44 -304 -159 -481v-2h282z" />
    <glyph glyph-name="afii10022" unicode="&#x415;" horiz-adv-x="495" 
d="M84 0v659h349l-30 -89h-214v-190h213v-89h-213v-202h247v-89h-352z" />
    <glyph glyph-name="afii10024" unicode="&#x416;" horiz-adv-x="900" 
d="M27 0l117 236q22 44 41 66.5t42 30.5v2q-30 17 -48 55.5t-31.5 85.5t-24.5 65q-16 29 -47 29q-22 0 -38 -7v93q24 9 54 9q74 0 109 -69q13 -26 27.5 -71.5l24.5 -75.5t33 -53.5t57 -23.5h56v287h102v-287h56q34 0 57 23.5t33 53.5l24.5 75.5t27.5 71.5q36 69 109 69
q30 0 54 -9v-93q-16 7 -38 7q-29 0 -47 -29q-11 -18 -24.5 -65t-31.5 -85.5t-48 -55.5v-2q23 -8 42 -30.5t41 -66.5l117 -236h-118l-98 211q-35 76 -68 76h-88v-287h-102v287h-88q-33 0 -68 -76l-98 -211h-118z" />
    <glyph glyph-name="afii10025" unicode="&#x417;" horiz-adv-x="522" 
d="M223 -10q-95 0 -165 32v92q72 -35 159 -35q66 0 104.5 28.5t38.5 83.5q0 102 -156 102q-44 0 -68 -2v88q19 -2 55 -2q154 0 154 102q0 45 -30.5 71t-90.5 26q-75 0 -148 -38l-28 81q86 46 189 46q105 0 161.5 -50.5t56.5 -125.5q0 -109 -111 -150v-2q60 -10 93 -49.5
t33 -99.5q0 -88 -63 -143t-184 -55z" />
    <glyph glyph-name="afii10026" unicode="&#x418;" horiz-adv-x="739" 
d="M84 0v659h105v-374q0 -43 -2 -113h2q31 48 81 112l282 375h103v-659h-105v393q0 77 2 106h-2l-80 -109l-293 -390h-93z" />
    <glyph glyph-name="afii10027" unicode="&#x419;" horiz-adv-x="739" 
d="M84 0v659h105v-374q0 -43 -2 -113h2q31 48 81 112l282 375h103v-659h-105v393q0 77 2 106h-2l-80 -109l-293 -390h-93zM372 690q-83 0 -128 44t-43 116h88q0 -37 20 -59.5t63 -22.5q42 0 62 22.5t20 59.5h89q2 -71 -43.5 -115.5t-127.5 -44.5z" />
    <glyph glyph-name="afii10028" unicode="&#x41a;" horiz-adv-x="607" 
d="M84 0v659h105v-284h62q34 0 59 23.5t36 51.5t27.5 75t28.5 71q36 69 111 69q32 0 56 -9v-93q-21 7 -37 7q-32 0 -48 -29q-10 -17 -26.5 -65t-37 -84.5t-49.5 -53.5v-2q41 -15 80 -90l130 -246h-121l-106 213q-37 76 -70 76h-95v-289h-105z" />
    <glyph glyph-name="afii10029" unicode="&#x41b;" horiz-adv-x="641" 
d="M47 -5q-22 0 -32 3v97q10 -2 21 -2q45 0 74 46q41 66 71.5 214.5t44.5 305.5h332v-659h-106v573h-138q-13 -144 -46 -288.5t-79 -214.5q-50 -75 -142 -75z" />
    <glyph glyph-name="afii10030" unicode="&#x41c;" horiz-adv-x="815" 
d="M84 0v659h96l177 -258l57 -89h2q18 34 55 93l163 254h97v-659h-105v389q0 66 1 95h-1q-8 -15 -46 -76l-141 -221h-50l-155 226q-33 48 -45 70h-2q2 -28 2 -92v-391h-105z" />
    <glyph glyph-name="afii10031" unicode="&#x41d;" horiz-adv-x="707" 
d="M84 0v659h105v-278h330v278h105v-659h-105v292h-330v-292h-105z" />
    <glyph glyph-name="afii10032" unicode="&#x41e;" horiz-adv-x="766" 
d="M383 -10q-145 0 -237 93t-92 244q0 150 92.5 244t236.5 94q145 0 236.5 -94.5t91.5 -243.5q0 -151 -92.5 -244t-235.5 -93zM383 79q98 0 157.5 66.5t59.5 181.5q0 113 -58.5 181t-158.5 68q-98 0 -157.5 -67t-59.5 -182t59.5 -181.5t157.5 -66.5z" />
    <glyph glyph-name="afii10033" unicode="&#x41f;" horiz-adv-x="679" 
d="M84 0v659h512v-659h-105v570h-302v-570h-105z" />
    <glyph glyph-name="afii10034" unicode="&#x420;" horiz-adv-x="528" 
d="M84 0v659h147q92 0 147 -29q103 -54 103 -184q0 -62 -29.5 -113t-91.5 -77q-56 -24 -138 -24h-33v-232h-105zM189 318h40q52 0 83 17q59 28 59 111q0 75 -55 108q-33 19 -88 19h-39v-255z" />
    <glyph glyph-name="afii10035" unicode="&#x421;" horiz-adv-x="617" 
d="M558 123l29 -83q-91 -50 -201 -50q-153 0 -240 92t-87 240q0 146 95 244.5t247 98.5q99 0 169 -33v-98q-79 42 -167 42q-107 0 -169.5 -72t-62.5 -179q0 -110 61.5 -178t165.5 -68q82 0 160 44z" />
    <glyph glyph-name="afii10036" unicode="&#x422;" horiz-adv-x="527" 
d="M209 0v570h-191v89h505l-30 -89h-179v-570h-105z" />
    <glyph glyph-name="afii10037" unicode="&#x423;" horiz-adv-x="590" 
d="M143 -8q-27 0 -48 4v90q26 -4 38 -4q41 0 64.5 24t54.5 84l-235 469h117l171 -361h2l156 361h115l-231 -500q-41 -90 -89.5 -128.5t-114.5 -38.5z" />
    <glyph glyph-name="afii10038" unicode="&#x424;" horiz-adv-x="766" 
d="M331 -18v90q-133 10 -205 75t-72 183q0 117 73.5 184t203.5 77v83h105v-83q130 -11 202.5 -78t72.5 -183q0 -118 -72 -183t-203 -75v-90h-105zM331 163v338q-170 -14 -170 -171q0 -155 170 -167zM436 163q168 12 168 167q0 156 -168 170v-337z" />
    <glyph glyph-name="afii10039" unicode="&#x425;" horiz-adv-x="622" 
d="M17 0l233 331l-216 328h119l164 -248l172 248h116l-228 -325l221 -334h-119l-168 254l-179 -254h-115z" />
    <glyph glyph-name="afii10040" unicode="&#x426;" horiz-adv-x="704" 
d="M84 0v659h105v-569h296v569h105v-569h84v-275h-102v185h-488z" />
    <glyph glyph-name="afii10041" unicode="&#x427;" horiz-adv-x="622" 
d="M433 0v266q-60 -6 -89 -6q-102 0 -166 27t-90 96q-16 41 -16 108v168h105v-159q0 -49 11 -79q15 -41 54 -56t100 -15q46 0 91 6v303h105v-659h-105z" />
    <glyph glyph-name="afii10042" unicode="&#x428;" horiz-adv-x="925" 
d="M84 0v659h105v-569h221v569h105v-569h221v569h106v-659h-758z" />
    <glyph glyph-name="afii10043" unicode="&#x429;" horiz-adv-x="950" 
d="M84 0v659h105v-569h219v569h105v-569h219v569h105v-569h83v-275h-102v185h-734z" />
    <glyph glyph-name="afii10044" unicode="&#x42a;" horiz-adv-x="698" 
d="M230 0v573h-200l-28 86h334v-252h42q119 0 182 -37q88 -49 88 -164q0 -96 -62 -151t-198 -55h-158zM336 87h55q151 0 151 117q0 67 -47 93q-35 23 -114 23h-45v-233z" />
    <glyph glyph-name="afii10045" unicode="&#x42b;" horiz-adv-x="762" 
d="M84 0v659h105v-252h37q112 0 173 -32q97 -50 97 -169q0 -96 -62.5 -151t-198.5 -55h-151zM189 87h49q151 0 151 117q0 68 -51 96q-35 20 -110 20h-39v-233zM573 0v659h105v-659h-105z" />
    <glyph glyph-name="afii10046" unicode="&#x42c;" horiz-adv-x="560" 
d="M189 87h64q151 0 151 117q0 68 -47 94q-35 22 -115 22h-53v-233zM84 0v659h105v-252h50q111 0 174 -31q98 -50 98 -170q0 -96 -62.5 -151t-198.5 -55h-166z" />
    <glyph glyph-name="afii10047" unicode="&#x42d;" horiz-adv-x="608" 
d="M230 -10q-100 0 -171 31v93q75 -36 166 -36q99 0 155.5 55.5t62.5 158.5h-311v85h310q-9 89 -64.5 144.5t-151.5 55.5q-77 0 -153 -38l-28 81q92 45 190 45q150 0 234.5 -95.5t84.5 -242.5q0 -153 -84 -245t-240 -92z" />
    <glyph glyph-name="afii10048" unicode="&#x42e;" horiz-adv-x="1000" 
d="M84 0v659h105v-278h149q15 128 96.5 206t205.5 78q139 0 222.5 -94.5t83.5 -243.5q0 -151 -84.5 -244t-221.5 -93q-129 0 -211.5 83t-91.5 219h-148v-292h-105zM640 79q91 0 142.5 67t51.5 181q0 113 -50.5 181t-143.5 68q-90 0 -141.5 -67t-51.5 -182q0 -114 51.5 -181
t141.5 -67z" />
    <glyph glyph-name="afii10049" unicode="&#x42f;" horiz-adv-x="591" 
d="M27 0l109 214q20 39 34 58t33 29v2q-55 19 -84 61.5t-29 99.5q0 93 61.5 144t160.5 51h196v-659h-106v264h-97q-32 0 -67 -75l-89 -189h-122zM199 458q0 -54 35 -80.5t93 -26.5h75v222h-75q-58 0 -93 -29.5t-35 -85.5z" />
    <glyph glyph-name="afii10065" unicode="&#x430;" horiz-adv-x="486" 
d="M346 0l-17 48q-62 -58 -138 -58q-68 0 -111 41.5t-43 108.5q0 88 79 128q42 22 121 25l85 3v20q0 88 -95 88q-65 0 -126 -35l-36 69q82 47 178 47q183 0 183 -169v-182q0 -102 9 -134h-89zM322 225l-71 -3q-50 -1 -76 -16q-33 -18 -33 -60q0 -34 21 -53.5t56 -19.5
q53 0 103 45v107z" />
    <glyph glyph-name="afii10066" unicode="&#x431;" horiz-adv-x="526" 
d="M262 -10q-104 0 -163 75t-59 235q0 86 20.5 161.5t54.5 111.5q11 13 23.5 24t23 19t31 16.5l33 13.5t43 14t48 13.5l62 16l70.5 18.5v-96q-180 -49 -210 -61q-38 -17 -56 -42q-24 -32 -34 -95h2q72 40 138 40q99 0 148.5 -61.5t49.5 -160.5q0 -108 -58.5 -175t-166.5 -67
zM265 75q59 0 87 41.5t28 108.5q0 146 -109 146q-58 0 -125 -38q-1 -14 -1 -38q0 -220 120 -220z" />
    <glyph glyph-name="afii10067" unicode="&#x432;" horiz-adv-x="479" 
d="M63 0v473h180q97 0 141.5 -37t44.5 -90q0 -78 -79 -102v-2q39 -9 65 -36.5t26 -70.5q0 -57 -45 -96t-144 -39h-189zM163 76h92q83 0 83 64t-78 64h-97v-128zM163 275h87q76 0 76 61t-82 61h-81v-122z" />
    <glyph glyph-name="afii10068" unicode="&#x433;" horiz-adv-x="410" 
d="M63 0v473h332l-31 -92h-197v-381h-104z" />
    <glyph glyph-name="afii10069" unicode="&#x434;" horiz-adv-x="564" 
d="M22 -166v251h30q50 62 79.5 147.5t57.5 240.5h274v-388h67v-251h-97v166h-314v-166h-97zM359 85v302h-94q-30 -188 -100 -300v-2h194z" />
    <glyph glyph-name="afii10070" unicode="&#x435;" horiz-adv-x="487" 
d="M449 211h-304q2 -62 39.5 -100t101.5 -38q62 0 119 32l31 -71q-67 -44 -161 -44q-117 0 -176.5 71t-59.5 177q0 109 56 178t151 69q96 0 149.5 -66.5t53.5 -182.5v-25zM144 285h199q-2 50 -26.5 84.5t-71.5 34.5q-46 0 -73 -34.5t-28 -84.5z" />
    <glyph glyph-name="afii10072" unicode="&#x436;" horiz-adv-x="709" 
d="M21 0l83 178q24 50 55 60v2q-25 15 -43 71t-26 67q-12 16 -33 16q-15 0 -26 -4v89q18 6 44 6q55 0 81 -41q14 -22 27.5 -67t29 -71.5t42.5 -26.5h49v194h101v-194h49q27 0 42.5 26.5t29 71.5t27.5 67q26 41 81 41q26 0 44 -6v-89q-11 4 -26 4q-21 0 -33 -16
q-7 -10 -26 -66.5t-44 -71.5v-2q32 -10 56 -60l83 -178h-110l-63 153q-21 47 -44 47h-66v-200h-101v200h-66q-23 0 -44 -47l-63 -153h-110z" />
    <glyph glyph-name="afii10073" unicode="&#x437;" horiz-adv-x="433" 
d="M196 -10q-78 0 -144 32v81q69 -33 136 -33q102 0 102 70q0 65 -121 65q-35 0 -53 -2v76q21 -1 59 -1q105 0 105 65q0 29 -23 45t-64 16q-57 0 -117 -29l-28 73q72 37 154 37t131.5 -37t49.5 -96q0 -37 -21 -65t-58 -40v-2q89 -23 89 -107q0 -60 -50.5 -104t-146.5 -44z
" />
    <glyph glyph-name="afii10074" unicode="&#x438;" horiz-adv-x="551" 
d="M63 0v473h102v-230q0 -42 -4 -100h2q26 44 64 99l161 231h100v-473h-102v230q0 61 4 100h-3q-27 -46 -63 -99l-161 -231h-100z" />
    <glyph glyph-name="afii10075" unicode="&#x439;" horiz-adv-x="551" 
d="M63 0v473h102v-230q0 -42 -4 -100h2q26 44 64 99l161 231h100v-473h-102v230q0 61 4 100h-3q-27 -46 -63 -99l-161 -231h-100zM280 542q-79 0 -122 44t-41 116h87q0 -84 76 -84q75 0 75 84h87q2 -71 -41 -115.5t-121 -44.5z" />
    <glyph glyph-name="afii10076" unicode="&#x43a;" horiz-adv-x="482" 
d="M63 0v473h104v-192h57q27 0 42.5 26t29.5 70t27 65q29 43 84 43q26 0 44 -6v-89q-11 4 -25 4q-22 0 -34 -17q-7 -10 -26.5 -65.5t-45.5 -70.5v-2q32 -10 56 -60l87 -179h-112l-65 154q-22 47 -44 47h-75v-201h-104z" />
    <glyph glyph-name="afii10077" unicode="&#x43b;" horiz-adv-x="517" 
d="M38 -7q-17 0 -27 2v93q6 -2 15 -2q30 0 52 34q29 43 55 137.5t41 215.5h281v-473h-104v382h-97q-13 -110 -41 -199t-63 -135q-42 -55 -112 -55z" />
    <glyph glyph-name="afii10078" unicode="&#x43c;" horiz-adv-x="613" 
d="M63 0v473h102l82 -135q32 -52 59 -106h2q21 43 59 107l80 134h104v-473h-102v228q0 62 3 90h-3q-18 -36 -45 -78l-74 -123h-47l-75 123q-30 50 -44 78h-3q3 -30 3 -95v-223h-101z" />
    <glyph glyph-name="afii10079" unicode="&#x43d;" horiz-adv-x="533" 
d="M63 0v473h104v-176h200v176h104v-473h-104v206h-200v-206h-104z" />
    <glyph glyph-name="afii10080" unicode="&#x43e;" horiz-adv-x="538" 
d="M269 -10q-102 0 -166.5 70.5t-64.5 177.5t64 177t167 70q102 0 166 -70t64 -177t-64 -177.5t-166 -70.5zM269 75q58 0 90.5 45t32.5 118q0 72 -32.5 117t-90.5 45t-91 -45t-33 -117q0 -73 33 -118t91 -45z" />
    <glyph glyph-name="afii10081" unicode="&#x43f;" horiz-adv-x="526" 
d="M63 0v473h400v-473h-104v381h-192v-381h-104z" />
    <glyph glyph-name="afii10082" unicode="&#x440;" horiz-adv-x="523" 
d="M61 -237v692q85 30 171 30q121 0 186.5 -65.5t65.5 -181.5q0 -111 -67.5 -179.5t-175.5 -68.5q-39 0 -76 13v-240h-104zM165 92q33 -15 69 -15q69 0 106 43.5t37 118.5q0 79 -40 119t-109 40q-33 0 -63 -9v-297z" />
    <glyph glyph-name="afii10083" unicode="&#x441;" horiz-adv-x="444" 
d="M273 -10q-110 0 -172.5 68.5t-62.5 174.5q0 108 69.5 180t175.5 72q73 0 125 -31v-89q-52 35 -115 35q-68 0 -108 -46t-40 -118q0 -76 38.5 -118.5t103.5 -42.5q53 0 112 32l30 -72q-65 -45 -156 -45z" />
    <glyph glyph-name="afii10084" unicode="&#x442;" horiz-adv-x="458" 
d="M170 0v385h-147v88h423l-29 -88h-143v-385h-104z" />
    <glyph glyph-name="afii10085" unicode="&#x443;" horiz-adv-x="505" 
d="M496 473l-180 -495q-25 -69 -52.5 -113.5t-57.5 -65.5t-56.5 -28.5t-61.5 -7.5q-54 0 -99 20l26 83q36 -17 69 -17q44 0 77.5 35t60.5 117l-212 472h112l147 -350h2l117 350h108z" />
    <glyph glyph-name="afii10086" unicode="&#x444;" horiz-adv-x="660" 
d="M280 -237v228q-115 10 -178 78.5t-63 167.5q0 100 63 168t178 78v204h100v-204q115 -10 178 -78t63 -168q0 -99 -63 -167.5t-178 -78.5v-228h-100zM281 77v320q-66 -7 -102.5 -51.5t-36.5 -108.5t37 -108.5t102 -51.5zM380 77q65 7 102 51.5t37 108.5t-37 108.5
t-102 51.5v-320z" />
    <glyph glyph-name="afii10087" unicode="&#x445;" horiz-adv-x="482" 
d="M10 0l175 238l-169 235h112l115 -164l117 164h110l-171 -235l171 -238h-110l-119 167l-120 -167h-111z" />
    <glyph glyph-name="afii10088" unicode="&#x446;" horiz-adv-x="555" 
d="M63 0v473h104v-383h183v383h104v-383h67v-256h-97v166h-361z" />
    <glyph glyph-name="afii10089" unicode="&#x447;" horiz-adv-x="500" 
d="M333 0v179q-54 -8 -90 -8q-94 0 -142 37t-48 107v158h104v-144q0 -37 22.5 -55.5t73.5 -18.5q34 0 80 8v210h105v-473h-105z" />
    <glyph glyph-name="afii10090" unicode="&#x448;" horiz-adv-x="721" 
d="M63 0v473h101v-384h146v384h101v-384h146v384h101v-473h-595z" />
    <glyph glyph-name="afii10091" unicode="&#x449;" horiz-adv-x="748" 
d="M63 0v473h101v-384h141v384h100v-384h141v384h101v-384h67v-255h-97v166h-554z" />
    <glyph glyph-name="afii10092" unicode="&#x44a;" horiz-adv-x="601" 
d="M197 0v386h-161l-26 87h291v-174q28 3 56 3q109 0 157.5 -41.5t48.5 -107.5q0 -69 -47.5 -111t-157.5 -42h-161zM301 81h54q60 0 82 18.5t22 51.5q0 34 -23 51.5t-82 17.5q-28 0 -53 -3v-136z" />
    <glyph glyph-name="afii10093" unicode="&#x44b;" horiz-adv-x="651" 
d="M63 0v473h104v-174q27 3 53 3q106 0 153.5 -41.5t47.5 -107.5q0 -153 -203 -153h-155zM167 81h49q59 0 80 18t21 52t-22 51.5t-79 17.5q-24 0 -49 -3v-136zM484 0v473h104v-473h-104z" />
    <glyph glyph-name="afii10094" unicode="&#x44c;" horiz-adv-x="474" 
d="M63 0v473h104v-174q27 3 56 3q113 0 163 -41.5t50 -108.5q0 -152 -211 -152h-162zM167 81h56q62 0 85 18.5t23 51.5q0 34 -24 51.5t-87 17.5q-28 0 -53 -3v-136z" />
    <glyph glyph-name="afii10095" unicode="&#x44d;" horiz-adv-x="456" 
d="M185 -10q-70 0 -128 28v82q56 -31 118 -31q64 0 99 35t40 101h-198v74h196q-7 56 -41.5 90.5t-93.5 34.5q-51 0 -101 -26l-28 73q66 34 139 34q105 0 167.5 -70t62.5 -178q0 -110 -60 -178.5t-172 -68.5z" />
    <glyph glyph-name="afii10096" unicode="&#x44e;" horiz-adv-x="734" 
d="M63 0v473h104v-183h98q14 88 70 141.5t143 53.5q100 0 159 -69.5t59 -177.5t-59 -178t-159 -70q-90 0 -147.5 58t-67.5 151h-96v-199h-104zM478 75q56 0 84 44.5t28 118.5t-27.5 118t-84.5 44t-84.5 -44t-27.5 -118t28 -118.5t84 -44.5z" />
    <glyph glyph-name="afii10097" unicode="&#x44f;" horiz-adv-x="488" 
d="M30 0l66 142q22 47 51 60v2q-40 15 -61 48t-21 75q0 64 42.5 105t130.5 41h188v-473h-104v173h-84q-25 0 -45 -48l-51 -125h-112zM169 320q0 -31 20 -50t56 -19h77v142h-73q-40 0 -60 -20t-20 -53z" />
    <glyph glyph-name="uni0450" unicode="&#x450;" horiz-adv-x="487" 
d="M449 211h-304q2 -62 39.5 -100t101.5 -38q62 0 119 32l31 -71q-67 -44 -161 -44q-117 0 -176.5 71t-59.5 177q0 109 56 178t151 69q96 0 149.5 -66.5t53.5 -182.5v-25zM144 285h199q-2 50 -26.5 84.5t-71.5 34.5q-46 0 -73 -34.5t-28 -84.5zM223 531l-93 147h116l58 -147
h-81z" />
    <glyph glyph-name="afii10071" unicode="&#x451;" horiz-adv-x="487" 
d="M449 211h-304q2 -62 39.5 -100t101.5 -38q62 0 119 32l31 -71q-67 -44 -161 -44q-117 0 -176.5 71t-59.5 177q0 109 56 178t151 69q96 0 149.5 -66.5t53.5 -182.5v-25zM144 285h199q-2 50 -26.5 84.5t-71.5 34.5q-46 0 -73 -34.5t-28 -84.5zM156 549q-23 0 -39.5 16.5
t-16.5 39.5t16.5 39.5t39.5 16.5t39 -16.5t16 -39.5t-16 -39.5t-39 -16.5zM342 549q-23 0 -39 16.5t-16 39.5t16 39.5t39 16.5t39 -16.5t16 -39.5t-16 -39.5t-39 -16.5z" />
    <glyph glyph-name="afii10099" unicode="&#x452;" horiz-adv-x="536" 
d="M67 0v549h-59v81h59v78h104v-78h144v-81h-144v-149q71 66 145 66q81 0 130 -70.5t49 -200.5q0 -128 -47 -213t-143 -135l-50 76q75 41 104.5 106t29.5 161q0 87 -26.5 136t-77.5 49q-54 0 -114 -57v-318h-104z" />
    <glyph glyph-name="afii10100" unicode="&#x453;" horiz-adv-x="410" 
d="M183 531l58 147h114l-93 -147h-79zM63 0v473h332l-31 -92h-197v-381h-104z" />
    <glyph glyph-name="afii10101" unicode="&#x454;" horiz-adv-x="458" 
d="M268 -10q-109 0 -169 68t-60 175q0 110 65 181t173 71q76 0 128 -31v-85q-53 35 -119 35q-60 0 -97 -34t-46 -91h195v-74h-197q5 -65 40.5 -100t98.5 -35q57 0 116 32l32 -67q-67 -45 -160 -45z" />
    <glyph glyph-name="afii10102" unicode="&#x455;" horiz-adv-x="410" 
d="M25 34l32 77q60 -38 126 -38q89 0 89 59q0 24 -23 40.5t-55.5 28.5t-65 27t-55.5 44.5t-23 73.5q0 61 46.5 100t126.5 39q72 0 131 -23v-89q-67 29 -127 29q-75 0 -75 -50q0 -23 23 -39t56 -28t65.5 -27.5t55.5 -47t23 -76.5q0 -72 -53 -108t-134 -36q-91 0 -163 44z" />
    <glyph glyph-name="afii10103" unicode="&#x456;" horiz-adv-x="234" 
d="M65 0v473h104v-473h-104zM117 560q-28 0 -46.5 18.5t-18.5 45.5t18.5 45.5t46.5 18.5t46.5 -18t18.5 -46q0 -27 -18.5 -45.5t-46.5 -18.5z" />
    <glyph glyph-name="afii10104" unicode="&#x457;" horiz-adv-x="234" 
d="M25 549q-23 0 -39.5 16.5t-16.5 39.5t16.5 39.5t39.5 16.5t39 -16.5t16 -39.5t-16 -39.5t-39 -16.5zM211 549q-23 0 -39 16.5t-16 39.5t16 39.5t39 16.5t39 -16.5t16 -39.5t-16 -39.5t-39 -16.5zM65 0v473h104v-473h-104z" />
    <glyph glyph-name="afii10105" unicode="&#x458;" horiz-adv-x="247" 
d="M-57 -221l20 86q25 -11 50 -11q34 0 49.5 20.5t15.5 67.5v531h104v-548q0 -78 -41.5 -120t-112.5 -42q-50 0 -85 16zM130 560q-28 0 -46.5 18.5t-18.5 45.5t18.5 45.5t46.5 18.5q29 0 47.5 -18t18.5 -46q0 -27 -19 -45.5t-47 -18.5z" />
    <glyph glyph-name="afii10106" unicode="&#x459;" horiz-adv-x="746" 
d="M443 81h57q59 0 81 18.5t22 51.5q0 34 -23.5 51.5t-83.5 17.5q-27 0 -53 -3v-136zM38 -7q-17 0 -27 2v93q6 -2 15 -2q30 0 52 34q29 43 55 137.5t41 215.5h269v-174q29 3 57 3q110 0 159 -41.5t49 -107.5q0 -68 -48 -110.5t-157 -42.5h-162v382h-87q-13 -110 -41 -199
t-63 -135q-42 -55 -112 -55z" />
    <glyph glyph-name="afii10107" unicode="&#x45a;" horiz-adv-x="761" 
d="M63 0v473h104v-176h187v176h104v-174q28 3 57 3q110 0 159 -41.5t49 -107.5q0 -69 -47.5 -111t-157.5 -42h-164v206h-187v-206h-104zM458 81h57q60 0 81.5 18t21.5 52t-23.5 51.5t-83.5 17.5q-26 0 -53 -3v-136z" />
    <glyph glyph-name="afii10108" unicode="&#x45b;" horiz-adv-x="544" 
d="M67 0v549h-59v81h59v78h104v-78h135v-81h-135v-149q78 66 161 66q65 0 107.5 -40t42.5 -130v-296h-104v267q0 52 -17 80t-62 28q-62 0 -128 -57v-318h-104z" />
    <glyph glyph-name="afii10109" unicode="&#x45c;" horiz-adv-x="482" 
d="M201 531l58 147h114l-93 -147h-79zM63 0v473h104v-192h57q27 0 42.5 26t29.5 70t27 65q29 43 84 43q26 0 44 -6v-89q-11 4 -25 4q-22 0 -34 -17q-7 -10 -26.5 -65.5t-45.5 -70.5v-2q32 -10 56 -60l87 -179h-112l-65 154q-22 47 -44 47h-75v-201h-104z" />
    <glyph glyph-name="uni045D" unicode="&#x45d;" horiz-adv-x="551" 
d="M248 531l-93 147h116l58 -147h-81zM63 0v473h102v-230q0 -42 -4 -100h2q26 44 64 99l161 231h100v-473h-102v230q0 61 4 100h-3q-27 -46 -63 -99l-161 -231h-100z" />
    <glyph glyph-name="afii10110" unicode="&#x45e;" horiz-adv-x="505" 
d="M496 473l-180 -495q-25 -69 -52.5 -113.5t-57.5 -65.5t-56.5 -28.5t-61.5 -7.5q-54 0 -99 20l26 83q36 -17 69 -17q44 0 77.5 35t60.5 117l-212 472h112l147 -350h2l117 350h108zM259 542q-79 0 -122 44t-41 116h87q0 -84 76 -84q75 0 75 84h87q2 -71 -41 -115.5
t-121 -44.5z" />
    <glyph glyph-name="afii10193" unicode="&#x45f;" horiz-adv-x="525" 
d="M214 -166v166h-151v473h104v-383h192v383h104v-473h-151v-166h-98z" />
    <glyph glyph-name="afii10146" unicode="&#x462;" horiz-adv-x="612" 
d="M135 0v507h-127v87h127v91h106v-91h169l-28 -87h-141v-112h52q106 0 169 -28q101 -47 101 -167q0 -93 -63 -146.5t-198 -53.5h-167zM241 87h64q77 0 114 27t37 83q0 67 -47 91q-35 20 -114 20h-54v-221z" />
    <glyph glyph-name="afii10194" unicode="&#x463;" horiz-adv-x="536" 
d="M125 0v395h-125v78h125v134h104v-134h172l-27 -78h-145v-103q38 2 56 2q213 0 213 -144q0 -150 -210 -150h-163zM229 80h56q61 0 84.5 17.5t23.5 50.5t-24.5 50.5t-86.5 17.5q-28 0 -53 -3v-133z" />
    <glyph glyph-name="afii10147" unicode="&#x472;" horiz-adv-x="762" 
d="M381 -10q-149 0 -238 90.5t-89 246.5q0 154 89 246t238 92t237.5 -92.5t88.5 -245.5q0 -156 -89.5 -246.5t-236.5 -90.5zM381 78q95 0 151.5 56t62.5 158h-428q6 -103 62 -158.5t152 -55.5zM169 381h424q-10 92 -65 144t-147 52q-91 0 -146 -51.5t-66 -144.5z" />
    <glyph glyph-name="afii10195" unicode="&#x473;" 
d="M267 -10q-106 0 -167 68.5t-61 179.5t61 179t167 68t167 -68t61 -179t-61 -179.5t-167 -68.5zM267 72q55 0 86.5 35t35.5 98h-245q4 -63 35.5 -98t87.5 -35zM144 278h244q-5 59 -36 92t-85 33t-85.5 -33t-37.5 -92z" />
    <glyph glyph-name="afii10148" unicode="&#x474;" horiz-adv-x="656" 
d="M260 -4l-248 663h114l132 -373q30 -81 45 -137h2q67 256 109 371q29 74 67 109.5t99 35.5q37 0 64 -9v-93q-22 8 -42 8q-34 0 -53.5 -23.5t-38.5 -71.5q-23 -55 -158 -480h-92z" />
    <glyph glyph-name="afii10196" unicode="&#x475;" horiz-adv-x="490" 
d="M193 -3l-184 476h106l118 -340h2q34 144 57 216q24 74 55 105t84 31q25 0 51 -7v-88q-13 5 -30 5q-25 0 -42.5 -21.5t-32.5 -68.5q-27 -72 -95 -308h-89z" />
    <glyph glyph-name="afii10050" unicode="&#x490;" horiz-adv-x="495" 
d="M84 0v659h289v156l95 24v-266h-279v-573h-105z" />
    <glyph glyph-name="afii10098" unicode="&#x491;" horiz-adv-x="422" 
d="M63 0v473h241v141l93 25v-258h-230v-381h-104z" />
    <glyph glyph-name="Wgrave" unicode="&#x1e80;" horiz-adv-x="930" 
d="M240 -4l-230 663h118l123 -385q23 -71 36 -123h3q15 56 38 122l92 272l-40 114h108l129 -381q33 -100 40 -126h2q18 74 34 124l118 383h108l-220 -663h-88l-101 289q-33 96 -39 121h-3q-13 -46 -39 -120l-103 -290h-86zM426 696l-93 147h116l58 -147h-81z" />
    <glyph glyph-name="wgrave" unicode="&#x1e81;" horiz-adv-x="729" 
d="M174 -3l-166 476h107l104 -339h2l103 339h85l107 -340h2l102 340h103l-168 -476h-81l-107 340h-2l-107 -340h-84zM340 531l-93 147h116l58 -147h-81z" />
    <glyph glyph-name="Wacute" unicode="&#x1e82;" horiz-adv-x="930" 
d="M240 -4l-230 663h118l123 -385q23 -71 36 -123h3q15 56 38 122l92 272l-40 114h108l129 -381q33 -100 40 -126h2q18 74 34 124l118 383h108l-220 -663h-88l-101 289q-33 96 -39 121h-3q-13 -46 -39 -120l-103 -290h-86zM414 696l58 147h114l-93 -147h-79z" />
    <glyph glyph-name="wacute" unicode="&#x1e83;" horiz-adv-x="729" 
d="M174 -3l-166 476h107l104 -339h2l103 339h85l107 -340h2l102 340h103l-168 -476h-81l-107 340h-2l-107 -340h-84zM311 531l58 147h114l-93 -147h-79z" />
    <glyph glyph-name="Wdieresis" unicode="&#x1e84;" horiz-adv-x="930" 
d="M240 -4l-230 663h118l123 -385q23 -71 36 -123h3q15 56 38 122l92 272l-40 114h108l129 -381q33 -100 40 -126h2q18 74 34 124l118 383h108l-220 -663h-88l-101 289q-33 96 -39 121h-3q-13 -46 -39 -120l-103 -290h-86zM376 702q-23 0 -39.5 16.5t-16.5 39.5t16.5 39.5
t39.5 16.5t39 -16.5t16 -39.5t-16 -39.5t-39 -16.5zM562 702q-23 0 -39 16.5t-16 39.5t16 39.5t39 16.5t39 -16.5t16 -39.5t-16 -39.5t-39 -16.5z" />
    <glyph glyph-name="wdieresis" unicode="&#x1e85;" horiz-adv-x="729" 
d="M174 -3l-166 476h107l104 -339h2l103 339h85l107 -340h2l102 340h103l-168 -476h-81l-107 340h-2l-107 -340h-84zM273 549q-23 0 -39.5 16.5t-16.5 39.5t16.5 39.5t39.5 16.5t39 -16.5t16 -39.5t-16 -39.5t-39 -16.5zM459 549q-23 0 -39 16.5t-16 39.5t16 39.5t39 16.5
t39 -16.5t16 -39.5t-16 -39.5t-39 -16.5z" />
    <glyph glyph-name="Ygrave" unicode="&#x1ef2;" horiz-adv-x="569" 
d="M232 0v262l-222 397h115l161 -302h2l157 302h114l-221 -399v-260h-106zM261 696l-93 147h116l58 -147h-81z" />
    <glyph glyph-name="ygrave" unicode="&#x1ef3;" horiz-adv-x="501" 
d="M494 473l-180 -495q-25 -69 -52.5 -113.5t-57.5 -65.5t-56.5 -28.5t-61.5 -7.5q-54 0 -99 20l26 83q36 -17 69 -17q44 0 77.5 35t60.5 117l-212 472h112l147 -350h2l117 350h108zM232 531l-93 147h116l58 -147h-81z" />
    <glyph glyph-name="endash" unicode="&#x2013;" horiz-adv-x="450" 
d="M0 213v78h450v-78h-450z" />
    <glyph glyph-name="emdash" unicode="&#x2014;" horiz-adv-x="800" 
d="M0 213v78h800v-78h-800z" />
    <glyph glyph-name="quoteleft" unicode="&#x2018;" horiz-adv-x="229" 
d="M86 442q-34 65 -34 131q0 72 39 146l64 -11q-13 -46 -13 -89q0 -61 33 -134z" />
    <glyph glyph-name="quoteright" unicode="&#x2019;" horiz-adv-x="229" 
d="M143 719q34 -65 34 -131q0 -71 -38 -146l-64 11q12 43 12 89q0 61 -33 134z" />
    <glyph glyph-name="quotesinglbase" unicode="&#x201a;" horiz-adv-x="229" 
d="M143 119q34 -65 34 -131q0 -71 -38 -146l-64 11q12 43 12 89q0 61 -33 134z" />
    <glyph glyph-name="quotedblleft" unicode="&#x201c;" horiz-adv-x="408" 
d="M86 442q-34 65 -34 131q0 72 39 146l64 -11q-13 -46 -13 -89q0 -61 33 -134zM265 442q-34 65 -34 131q0 71 38 146l64 -11q-12 -48 -12 -89q0 -61 33 -134z" />
    <glyph glyph-name="quotedblright" unicode="&#x201d;" horiz-adv-x="408" 
d="M322 719q34 -65 34 -131q0 -71 -38 -146l-64 11q12 48 12 89q0 61 -33 134zM143 719q34 -65 34 -131q0 -71 -38 -146l-64 11q12 43 12 89q0 61 -33 134z" />
    <glyph glyph-name="quotedblbase" unicode="&#x201e;" horiz-adv-x="408" 
d="M322 119q34 -65 34 -131q0 -71 -38 -146l-64 11q12 48 12 89q0 61 -33 134zM143 119q34 -65 34 -131q0 -71 -38 -146l-64 11q12 43 12 89q0 61 -33 134z" />
    <glyph glyph-name="dagger" unicode="&#x2020;" horiz-adv-x="521" 
d="M211 -48v157q0 87 3.5 175.5t2.5 110.5q-15 0 -71.5 -6t-81.5 -6v104q25 0 82.5 -6.5t71.5 -7.5q1 22 -4.5 79t-5.5 80h105q0 -23 -5.5 -80t-4.5 -79q14 1 71.5 7.5t82.5 6.5v-104q-25 0 -81.5 6t-71.5 6q-1 -22 2.5 -110.5t3.5 -175.5v-157h-99z" />
    <glyph glyph-name="daggerdbl" unicode="&#x2021;" horiz-adv-x="521" 
d="M208 -48q0 23 5.5 80t4.5 79q-14 -1 -71.5 -7.5t-82.5 -6.5v104q25 0 81.5 -6t71.5 -6q1 13 -1 45.5t-2 53.5q0 24 1.5 59t1.5 48q-15 0 -71.5 -6t-81.5 -6v104q25 0 82.5 -6.5t71.5 -7.5q1 22 -4.5 79t-5.5 80h105q0 -23 -5.5 -80t-4.5 -79q14 1 71.5 7.5t82.5 6.5v-104
q-25 0 -81.5 6t-71.5 6q0 -13 1.5 -48t1.5 -59q0 -21 -2 -53.5t-1 -45.5q15 0 71.5 6t81.5 6v-104q-25 0 -82.5 6.5t-71.5 7.5q-1 -22 4.5 -79t5.5 -80h-105z" />
    <glyph glyph-name="bullet" unicode="&#x2022;" horiz-adv-x="317" 
d="M158 200q-48 0 -81 34.5t-33 82.5q0 50 32.5 84.5t81.5 34.5t82 -34.5t33 -84.5q0 -49 -33 -83t-82 -34z" />
    <glyph glyph-name="ellipsis" unicode="&#x2026;" horiz-adv-x="899" 
d="M170 -9q-25 0 -42.5 18.5t-17.5 44.5t17.5 44t42.5 18t42.5 -18t17.5 -44t-17.5 -44.5t-42.5 -18.5zM450 -9q-25 0 -43 18.5t-18 44.5t17.5 44t43.5 18q25 0 42.5 -18t17.5 -44t-17.5 -44.5t-42.5 -18.5zM729 -9q-25 0 -42.5 18.5t-17.5 44.5t17.5 44t42.5 18
q26 0 43.5 -18t17.5 -44t-18 -44.5t-43 -18.5z" />
    <glyph glyph-name="perthousand" unicode="&#x2030;" horiz-adv-x="1231" 
d="M211 314q-68 0 -112 45.5t-44 129.5q0 85 43.5 130.5t112.5 45.5t112.5 -45.5t43.5 -130.5t-43.5 -130t-112.5 -45zM211 379q35 0 53.5 30t18.5 80q0 51 -18.5 81t-53.5 30t-53.5 -30t-18.5 -81q0 -50 19 -80t53 -30zM657 -10q-69 0 -112.5 45.5t-43.5 130.5
q0 84 44 129.5t112 45.5t112 -45.5t44 -129.5q0 -85 -43.5 -130.5t-112.5 -45.5zM657 55q35 0 53.5 30t18.5 81q0 50 -19 80t-53 30q-35 0 -53.5 -30t-18.5 -80q0 -51 18.5 -81t53.5 -30zM1020 -10q-69 0 -112.5 45.5t-43.5 130.5t43.5 130t112.5 45q68 0 112 -45.5
t44 -129.5q0 -85 -43.5 -130.5t-112.5 -45.5zM1020 55q35 0 53.5 30t18.5 81q0 50 -19 80t-53 30q-35 0 -53.5 -30t-18.5 -80q0 -51 18.5 -81t53.5 -30zM183 0l414 659h87l-414 -659h-87z" />
    <glyph glyph-name="guilsinglleft" unicode="&#x2039;" horiz-adv-x="353" 
d="M284 406l-127 -165l127 -165l-75 -44l-168 209l168 209z" />
    <glyph glyph-name="guilsinglright" unicode="&#x203a;" horiz-adv-x="353" 
d="M196 241l-128 165l76 44l168 -209l-168 -209l-76 44z" />
    <glyph glyph-name="fraction" unicode="&#x2044;" horiz-adv-x="144" 
d="M-178 0l414 659h87l-415 -659h-86z" />
    <glyph glyph-name="zerosuperior" unicode="&#x2070;" horiz-adv-x="381" 
d="M190 396q-69 0 -110.5 52.5t-41.5 148.5t42 147.5t111 51.5t110.5 -52t41.5 -148q0 -95 -42 -147.5t-111 -52.5zM191 466q64 0 64 129q0 61 -16.5 96.5t-48.5 35.5q-63 0 -63 -128q0 -61 16.5 -97t47.5 -36z" />
    <glyph glyph-name="foursuperior" unicode="&#x2074;" horiz-adv-x="381" 
d="M30 488v52l192 255h78v-243h53v-64h-53v-85h-82v85h-188zM119 551q7 0 31 0.5t37 0.5h31v31q0 66 3 104z" />
    <glyph glyph-name="fivesuperior" unicode="&#x2075;" horiz-adv-x="348" 
d="M26 421l23 66q44 -21 89 -21q75 0 75 58q0 35 -31 47q-18 7 -62 7h-65v210h249l-17 -71h-150v-76h19q47 0 78 -11q69 -27 69 -105q0 -58 -41 -93.5t-121 -35.5q-65 0 -115 25z" />
    <glyph glyph-name="sixsuperior" unicode="&#x2076;" horiz-adv-x="361" 
d="M191 396q-66 0 -109.5 47t-43.5 139t50.5 153t133.5 61q50 0 92 -18l-22 -66q-30 15 -66 15t-63 -24t-34 -69h2q36 19 77 19q54 0 88.5 -33t34.5 -90q0 -61 -40 -97.5t-100 -36.5zM192 464q26 0 40.5 16t14.5 45q0 27 -16.5 43.5t-42.5 16.5q-31 0 -60 -21
q-1 -45 17 -72.5t47 -27.5z" />
    <glyph glyph-name="sevensuperior" unicode="&#x2077;" horiz-adv-x="326" 
d="M55 403q41 179 145 314h-164l-19 71h292v-46q-64 -74 -101 -153.5t-58 -185.5h-95z" />
    <glyph glyph-name="eightsuperior" unicode="&#x2078;" horiz-adv-x="381" 
d="M186 396q-69 0 -108.5 29.5t-39.5 79.5q0 72 69 97v2q-56 29 -56 85q0 48 37.5 77.5t99.5 29.5q65 0 102 -30t37 -78q0 -58 -55 -82v-2q71 -24 71 -92q0 -52 -43 -84t-114 -32zM188 466q27 0 46 12t19 35q0 40 -78 60q-19 -5 -34.5 -20t-15.5 -37q0 -24 18 -37t45 -13z
M199 632q42 18 42 54q0 18 -14.5 30.5t-37.5 12.5q-22 0 -36.5 -11.5t-14.5 -29.5q0 -40 61 -56z" />
    <glyph glyph-name="ninesuperior" unicode="&#x2079;" horiz-adv-x="361" 
d="M139 396q-55 0 -98 20l21 67q31 -17 75 -17q90 0 100 98h-2q-34 -24 -82 -24q-52 0 -87.5 30.5t-35.5 90.5t39.5 97.5t100.5 37.5q69 0 111 -47.5t42 -141.5q0 -99 -48.5 -155t-135.5 -56zM173 606q37 0 63 30q-1 45 -18 69t-47 24q-27 0 -42 -17t-15 -44
q0 -29 15.5 -45.5t43.5 -16.5z" />
    <glyph glyph-name="plussuperior" unicode="&#x207a;" horiz-adv-x="403" 
d="M166 434v129h-119v66h119v125h72v-125h118v-66h-118v-129h-72z" />
    <glyph glyph-name="minussuperior" unicode="&#x207b;" horiz-adv-x="403" 
d="M47 563v66h309v-66h-309z" />
    <glyph glyph-name="equalsuperior" unicode="&#x207c;" horiz-adv-x="403" 
d="M47 496v67h309v-67h-309zM47 629v67h309v-67h-309z" />
    <glyph glyph-name="parenleftsuperior" unicode="&#x207d;" horiz-adv-x="233" 
d="M148 357q-102 90 -102 239t102 239l52 -40q-72 -79 -72 -199q0 -121 72 -199z" />
    <glyph glyph-name="parenrightsuperior" unicode="&#x207e;" horiz-adv-x="233" 
d="M33 397q72 79 72 199t-72 199l51 40q103 -90 103 -239t-103 -239z" />
    <glyph glyph-name="n.superior" unicode="&#x207f;" horiz-adv-x="389" 
d="M47 270v332h70l6 -35q55 44 114 44q45 0 76 -30t31 -91v-220h-81v201q0 67 -50 67q-37 0 -85 -35v-233h-81z" />
    <glyph glyph-name="zeroinferior" unicode="&#x2080;" horiz-adv-x="381" 
d="M190 -187q-69 0 -110.5 52.5t-41.5 148.5t42 147.5t111 51.5t110.5 -52t41.5 -148q0 -95 -42 -147.5t-111 -52.5zM191 -117q64 0 64 129q0 61 -16.5 96.5t-48.5 35.5q-63 0 -63 -128q0 -61 16.5 -97t47.5 -36z" />
    <glyph glyph-name="oneinferior" unicode="&#x2081;" horiz-adv-x="341" 
d="M176 -180v305l-117 -45l-29 67l162 65h66v-392h-82z" />
    <glyph glyph-name="twoinferior" unicode="&#x2082;" horiz-adv-x="342" 
d="M25 -180q2 51 21.5 92t47 65.5t54.5 44.5t45.5 39t18.5 39q0 19 -14.5 30t-38.5 11q-38 0 -99 -29l-23 65q70 36 139 36q61 0 93.5 -28.5t32.5 -76.5q0 -37 -24 -67.5t-53.5 -48.5t-58 -44.5t-35.5 -54.5h173v-73h-279z" />
    <glyph glyph-name="threeinferior" unicode="&#x2083;" horiz-adv-x="342" 
d="M17 -162l23 64q41 -19 88 -19q77 0 77 52q0 32 -33 43q-18 7 -55 7h-46v63h37q34 0 53 8q31 13 31 44q0 43 -54 43q-39 0 -90 -21l-21 63q67 28 129 28q59 0 93 -27.5t34 -71.5q0 -64 -68 -91v-2q81 -14 81 -92q0 -51 -42 -83.5t-121 -32.5q-64 0 -116 25z" />
    <glyph glyph-name="fourinferior" unicode="&#x2084;" horiz-adv-x="381" 
d="M30 -95v52l192 255h78v-243h53v-64h-53v-85h-82v85h-188zM119 -32q7 0 31 0.5t37 0.5h31v31q0 66 3 104z" />
    <glyph glyph-name="fiveinferior" unicode="&#x2085;" horiz-adv-x="348" 
d="M26 -162l23 66q44 -21 89 -21q75 0 75 58q0 35 -31 47q-18 7 -62 7h-65v210h249l-17 -71h-150v-76h19q47 0 78 -11q69 -27 69 -105q0 -58 -41 -93.5t-121 -35.5q-65 0 -115 25z" />
    <glyph glyph-name="sixinferior" unicode="&#x2086;" horiz-adv-x="361" 
d="M191 -187q-66 0 -109.5 47t-43.5 139t50.5 153t133.5 61q50 0 92 -18l-22 -66q-30 15 -66 15t-63 -24t-34 -69h2q36 19 77 19q54 0 88.5 -33t34.5 -90q0 -61 -40 -97.5t-100 -36.5zM192 -119q26 0 40.5 16t14.5 45q0 28 -16.5 44t-42.5 16q-31 0 -60 -21q-1 -45 17 -72.5
t47 -27.5z" />
    <glyph glyph-name="seveninferior" unicode="&#x2087;" horiz-adv-x="326" 
d="M55 -180q41 179 145 314h-164l-19 71h292v-46q-64 -74 -101 -153.5t-58 -185.5h-95z" />
    <glyph glyph-name="eightinferior" unicode="&#x2088;" horiz-adv-x="381" 
d="M186 -187q-69 0 -108.5 29.5t-39.5 79.5q0 72 69 97v2q-56 29 -56 85q0 48 37.5 77.5t99.5 29.5q65 0 102 -30t37 -78q0 -58 -55 -82v-2q71 -24 71 -92q0 -52 -43 -84t-114 -32zM188 -117q27 0 46 12t19 35q0 40 -78 60q-19 -5 -34.5 -20t-15.5 -37q0 -24 18 -37t45 -13z
M199 49q42 18 42 54q0 18 -14.5 30.5t-37.5 12.5q-22 0 -36.5 -11.5t-14.5 -29.5q0 -40 61 -56z" />
    <glyph glyph-name="nineinferior" unicode="&#x2089;" horiz-adv-x="361" 
d="M139 -187q-55 0 -98 20l21 67q31 -17 75 -17q90 0 100 98h-2q-34 -24 -82 -24q-52 0 -87.5 30.5t-35.5 90.5t39.5 97.5t100.5 37.5q69 0 111 -47.5t42 -141.5q0 -99 -48.5 -155t-135.5 -56zM173 23q37 0 63 30q-1 45 -18 69t-47 24q-27 0 -42 -17t-15 -44
q0 -29 15.5 -45.5t43.5 -16.5z" />
    <glyph glyph-name="parenleftinferior" unicode="&#x208d;" horiz-adv-x="233" 
d="M148 -226q-102 90 -102 239t102 239l52 -40q-72 -80 -72 -199q0 -121 72 -199z" />
    <glyph glyph-name="parenrightinferior" unicode="&#x208e;" horiz-adv-x="233" 
d="M33 -186q72 79 72 199q0 119 -72 199l51 40q103 -90 103 -239t-103 -239z" />
    <glyph glyph-name="Euro" unicode="&#x20ac;" horiz-adv-x="538" 
d="M480 117l40 -83q-69 -44 -165 -44q-109 0 -175 59t-89 162h-69v69h60q-2 26 -2 43q0 27 3 52h-61v69h73q27 100 96 160.5t168 60.5q80 0 135 -31v-100q-62 38 -124 38q-117 0 -159 -128h252l-24 -69h-244q-3 -19 -3 -49q0 -28 2 -46h238l-24 -69h-199q18 -60 57 -95
t97 -35q61 0 117 36z" />
    <glyph glyph-name="afii61289" unicode="&#x2113;" horiz-adv-x="497" 
d="M30 132l-24 90q45 10 91 26v138q0 144 53.5 211.5t137.5 67.5q72 0 109.5 -42t37.5 -107q0 -95 -62 -178.5t-169 -139.5q8 -115 93 -115q57 0 111 42l41 -80q-77 -55 -167 -55q-73 0 -120 42.5t-59 122.5q-21 -8 -73 -23zM200 382v-83q130 84 130 218q0 64 -45 64
q-37 0 -61 -50t-24 -149z" />
    <glyph glyph-name="afii61352" unicode="&#x2116;" horiz-adv-x="1061" 
d="M71 0v659h103l234 -355q51 -80 73 -121h3q-4 47 -4 115v361h105v-659h-94l-244 370l-73 118h-2q4 -44 4 -108v-380h-105zM669 135v64h322v-64h-322zM830 263q-73 0 -119.5 49.5t-46.5 124.5t46.5 124.5t119.5 49.5t119.5 -49.5t46.5 -124.5t-46 -124.5t-120 -49.5z
M830 332q38 0 60.5 29t22.5 76t-22.5 76t-60.5 29t-60 -29t-22 -76t22 -76t60 -29z" />
    <glyph glyph-name="uni2117" unicode="&#x2117;" horiz-adv-x="773" 
d="M386 -10q-144 0 -237.5 96.5t-93.5 240.5t93.5 240.5t237.5 96.5t238 -96.5t94 -240.5t-94 -240.5t-238 -96.5zM386 45q116 0 192 79.5t76 202.5t-76 202t-192 79t-192 -79t-76 -202t76 -202.5t192 -79.5zM283 131v390h108q70 0 107.5 -34.5t37.5 -94.5q0 -59 -38 -94.5
t-109 -35.5h-41v-131h-65zM348 321h44q77 0 77 70q0 72 -71 72h-50v-142z" />
    <glyph glyph-name="trademark" unicode="&#x2122;" horiz-adv-x="855" 
d="M130 264v326h-110v69h317l-17 -69h-106v-326h-84zM368 264v395h73l90 -130q21 -29 43 -70h3q20 39 41 68l88 132h78v-395h-84v191q0 55 3 76h-2q-20 -36 -35 -58l-71 -103h-39l-70 103q-15 22 -35 58h-2q3 -31 3 -76v-191h-84z" />
    <glyph glyph-name="estimated" unicode="&#x212e;" horiz-adv-x="754" 
d="M590 119h90q-103 -129 -304 -129q-146 0 -248.5 84.5t-102.5 226.5q0 143 103 226.5t252 83.5q86 0 154.5 -28t110.5 -74.5t63.5 -104t19.5 -119.5h-556v-160q32 -46 88 -71.5t121 -25.5q134 0 209 91zM172 324h414v152q-68 97 -206 97q-139 0 -208 -97v-152z" />
    <glyph glyph-name="onethird" unicode="&#x2153;" horiz-adv-x="916" 
d="M194 0l414 659h87l-415 -659h-86zM199 270v305l-117 -45l-29 67l162 65h66v-392h-82zM575 16l23 64q41 -19 88 -19q77 0 77 52q0 32 -33 43q-18 7 -55 7h-46v63h37q34 0 53 8q31 13 31 44q0 43 -54 43q-39 0 -90 -21l-21 63q67 28 129 28q59 0 93 -27.5t34 -71.5
q0 -64 -68 -91v-2q81 -14 81 -92q0 -51 -42 -83.5t-121 -32.5q-64 0 -116 25z" />
    <glyph glyph-name="twothirds" unicode="&#x2154;" horiz-adv-x="916" 
d="M204 0l414 659h87l-415 -659h-86zM36 270q2 51 21.5 92t47 65.5t54.5 44.5t45.5 39t18.5 39q0 19 -14.5 30t-38.5 11q-38 0 -99 -29l-23 65q70 36 139 36q61 0 93.5 -28.5t32.5 -76.5q0 -37 -24 -67.5t-53.5 -48.5t-58 -44.5t-35.5 -54.5h173v-73h-279zM575 16l23 64
q41 -19 88 -19q77 0 77 52q0 32 -33 43q-18 7 -55 7h-46v63h37q34 0 53 8q31 13 31 44q0 43 -54 43q-39 0 -90 -21l-21 63q67 28 129 28q59 0 93 -27.5t34 -71.5q0 -64 -68 -91v-2q81 -14 81 -92q0 -51 -42 -83.5t-121 -32.5q-64 0 -116 25z" />
    <glyph glyph-name="oneeighth" unicode="&#x215b;" horiz-adv-x="916" 
d="M173 0l414 659h87l-415 -659h-86zM183 270v305l-117 -45l-29 67l162 65h66v-392h-82zM685 -9q-69 0 -108.5 29.5t-39.5 79.5q0 72 69 97v2q-56 29 -56 85q0 48 37.5 77.5t99.5 29.5q65 0 102 -30t37 -78q0 -58 -55 -82v-2q71 -24 71 -92q0 -52 -43 -84t-114 -32zM687 61
q27 0 46 12t19 35q0 40 -78 60q-19 -5 -34.5 -20t-15.5 -37q0 -24 18 -37t45 -13zM698 227q42 18 42 54q0 18 -14.5 30.5t-37.5 12.5q-22 0 -36.5 -11.5t-14.5 -29.5q0 -40 61 -56z" />
    <glyph glyph-name="threeeighths" unicode="&#x215c;" horiz-adv-x="916" 
d="M199 0l414 659h87l-415 -659h-86zM702 -9q-69 0 -108.5 29.5t-39.5 79.5q0 72 69 97v2q-56 29 -56 85q0 48 37.5 77.5t99.5 29.5q65 0 102 -30t37 -78q0 -58 -55 -82v-2q71 -24 71 -92q0 -52 -43 -84t-114 -32zM704 61q27 0 46 12t19 35q0 40 -78 60q-19 -5 -34.5 -20
t-15.5 -37q0 -24 18 -37t45 -13zM715 227q42 18 42 54q0 18 -14.5 30.5t-37.5 12.5q-22 0 -36.5 -11.5t-14.5 -29.5q0 -40 61 -56zM50 288l23 64q41 -19 88 -19q77 0 77 52q0 32 -33 43q-18 7 -55 7h-46v63h37q34 0 53 8q31 13 31 44q0 43 -54 43q-39 0 -90 -21l-21 63
q67 28 129 28q59 0 93 -27.5t34 -71.5q0 -64 -68 -91v-2q81 -14 81 -92q0 -51 -42 -83.5t-121 -32.5q-64 0 -116 25z" />
    <glyph glyph-name="fiveeighths" unicode="&#x215d;" horiz-adv-x="916" 
d="M190 0l414 659h87l-415 -659h-86zM43 288l23 66q43 -21 89 -21q75 0 75 58q0 35 -31 47q-18 7 -62 7h-65v210h249l-17 -71h-150v-76h19q47 0 78 -11q69 -27 69 -105q0 -58 -41 -93.5t-121 -35.5q-65 0 -115 25zM701 -9q-69 0 -108.5 29.5t-39.5 79.5q0 72 69 97v2
q-56 29 -56 85q0 48 37.5 77.5t99.5 29.5q65 0 102 -30t37 -78q0 -58 -55 -82v-2q71 -24 71 -92q0 -52 -43 -84t-114 -32zM703 61q27 0 46 12t19 35q0 40 -78 60q-19 -5 -34.5 -20t-15.5 -37q0 -24 18 -37t45 -13zM714 227q42 18 42 54q0 18 -14.5 30.5t-37.5 12.5
q-22 0 -36.5 -11.5t-14.5 -29.5q0 -40 61 -56z" />
    <glyph glyph-name="seveneighths" unicode="&#x215e;" horiz-adv-x="916" 
d="M176 0l414 659h87l-415 -659h-86zM694 -9q-69 0 -108.5 29.5t-39.5 79.5q0 72 69 97v2q-56 29 -56 85q0 48 37.5 77.5t99.5 29.5q65 0 102 -30t37 -78q0 -58 -55 -82v-2q71 -24 71 -92q0 -52 -43 -84t-114 -32zM696 61q27 0 46 12t19 35q0 40 -78 60q-19 -5 -34.5 -20
t-15.5 -37q0 -24 18 -37t45 -13zM707 227q42 18 42 54q0 18 -14.5 30.5t-37.5 12.5q-22 0 -36.5 -11.5t-14.5 -29.5q0 -40 61 -56zM132 270q41 179 145 314h-164l-19 71h292v-46q-64 -74 -101 -153.5t-58 -185.5h-95z" />
    <glyph glyph-name="partialdiff" unicode="&#x2202;" horiz-adv-x="525" 
d="M222 -10q-88 0 -140 53t-52 145q0 107 66.5 174.5t169.5 67.5q58 0 106 -24l1 1q-10 81 -50.5 127.5t-105.5 46.5q-64 0 -129 -35l-29 75q77 44 165 44q126 0 194 -85.5t68 -226.5q0 -165 -73.5 -264t-190.5 -99zM231 74q58 0 100.5 63t46.5 182q-46 27 -98 27
q-64 0 -103.5 -43t-39.5 -113q0 -55 26 -85.5t68 -30.5z" />
    <glyph glyph-name="Delta" unicode="&#x2206;" horiz-adv-x="633" 
d="M13 0l257 662h92l259 -662h-608zM289 440l-129 -351h314l-129 351q-19 55 -27 89h-1q-9 -35 -28 -89z" />
    <glyph glyph-name="product" unicode="&#x220f;" horiz-adv-x="670" 
d="M104 -180v750h-88v89h651l-29 -89h-87v-750h-105v750h-237v-750h-105z" />
    <glyph glyph-name="summation" unicode="&#x2211;" horiz-adv-x="597" 
d="M14 -181l273 429l-257 411h549l-29 -89h-336l196 -320l-211 -341h367v-90h-552z" />
    <glyph glyph-name="minus" unicode="&#x2212;" horiz-adv-x="541" 
d="M35 208v87h472v-87h-472z" />
    <glyph glyph-name="radical" unicode="&#x221a;" horiz-adv-x="682" 
d="M315 -122l-142 426l-95 -35l-29 81l191 72l91 -285q17 -56 36 -138h2q10 50 32 138l182 690h104l-263 -949h-109z" />
    <glyph glyph-name="infinity" unicode="&#x221e;" horiz-adv-x="768" 
d="M201 97q-78 0 -124.5 50t-46.5 123t46.5 123t124.5 50q55 0 97.5 -28.5t84.5 -78.5q41 50 84 78.5t100 28.5q78 0 124.5 -50t46.5 -123t-46.5 -123t-124.5 -50q-97 0 -184 106q-43 -50 -85 -78t-97 -28zM211 190q55 0 120 80q-32 38 -59.5 58.5t-60.5 20.5t-54.5 -21.5
t-21.5 -57.5t21.5 -58t54.5 -22zM557 190q33 0 54.5 22t21.5 58t-21.5 57.5t-54.5 21.5t-60.5 -20t-60.5 -59q33 -39 60.5 -59.5t60.5 -20.5z" />
    <glyph glyph-name="integral" unicode="&#x222b;" horiz-adv-x="323" 
d="M-47 -218l21 85q31 -12 56 -12q62 0 62 72v617q0 81 42 122.5t110 41.5q49 0 90 -19l-20 -85q-33 12 -57 12q-61 0 -61 -72v-617q0 -81 -42.5 -122.5t-110.5 -41.5q-49 0 -90 19z" />
    <glyph glyph-name="approxequal" unicode="&#x2248;" horiz-adv-x="541" 
d="M77 92l-52 66q69 69 144 69q39 0 107 -29.5t99 -29.5q43 0 90 43l51 -66q-68 -68 -144 -68q-39 0 -107.5 29t-98.5 29q-42 0 -89 -43zM77 290l-52 65q69 69 144 69q39 0 107 -29t99 -29q44 0 90 42l51 -65q-68 -69 -144 -69q-39 0 -107.5 29t-98.5 29q-25 0 -44 -9.5
t-45 -32.5z" />
    <glyph glyph-name="notequal" unicode="&#x2260;" horiz-adv-x="541" 
d="M108 16l46 96h-119v87h161l51 104h-212v87h254l44 89h104l-44 -89h114v-87h-156l-51 -104h207v-87h-249l-46 -96h-104z" />
    <glyph glyph-name="lessequal" unicode="&#x2264;" horiz-adv-x="541" 
d="M56 279v90l425 147v-88l-322 -103v-2l322 -104v-88zM35 0v87h472v-87h-472z" />
    <glyph glyph-name="greaterequal" unicode="&#x2265;" horiz-adv-x="541" 
d="M61 131v88l321 104v2l-321 103v88l425 -147v-90zM35 0v87h472v-87h-472z" />
    <glyph glyph-name="lozenge" unicode="&#x25ca;" horiz-adv-x="477" 
d="M191 0l-138 289l138 289h95l138 -289l-138 -289h-95zM239 87h2l94 202l-95 202h-2l-95 -202z" />
    <glyph glyph-name="Imacron" horiz-adv-x="269" 
d="M82 0v659h105v-659h-105zM-4 708v81h273v-81h-273z" />
    <glyph glyph-name="ibreve" horiz-adv-x="234" 
d="M185 676h72q-4 -62 -41.5 -98t-98.5 -36q-60 0 -97 36t-41 98h72q8 -67 67 -67t67 67zM65 0v473h104v-473h-104z" />
    <glyph glyph-name="zero.numr" horiz-adv-x="381" 
d="M190 263q-69 0 -110.5 52.5t-41.5 148.5t42 147.5t111 51.5t110.5 -52t41.5 -148q0 -95 -42 -147.5t-111 -52.5zM191 333q64 0 64 129q0 61 -16.5 96.5t-48.5 35.5q-63 0 -63 -128q0 -61 16.5 -97t47.5 -36z" />
    <glyph glyph-name="Adieresis.small" horiz-adv-x="533" 
d="M9 0l216 534h83l216 -534h-110l-43 114h-211l-42 -114h-109zM190 195h151l-43 116l-31 89h-2q-24 -69 -32 -90zM173 579q-23 0 -39.5 16.5t-16.5 39.5t16.5 39.5t39.5 16.5t39 -16.5t16 -39.5t-16 -39.5t-39 -16.5zM359 579q-23 0 -39 16.5t-16 39.5t16 39.5t39 16.5
t39 -16.5t16 -39.5t-16 -39.5t-39 -16.5z" />
    <glyph glyph-name="Atilde.small" horiz-adv-x="533" 
d="M116 584v34q0 38 22 59.5t56 21.5q31 0 74 -23t56 -23q15 0 19.5 9.5t4.5 30.5h69v-34q0 -38 -22 -59.5t-56 -21.5q-30 0 -73.5 22.5t-56.5 22.5q-14 0 -18.5 -9t-4.5 -30h-70zM9 0l216 534h83l216 -534h-110l-43 114h-211l-42 -114h-109zM190 195h151l-43 116l-31 89h-2
q-24 -69 -32 -90z" />
    <glyph glyph-name="Acircumflex.small" horiz-adv-x="533" 
d="M9 0l216 534h83l216 -534h-110l-43 114h-211l-42 -114h-109zM190 195h151l-43 116l-31 89h-2q-24 -69 -32 -90zM123 561l99 147h88l100 -147h-84l-60 86l-59 -86h-84z" />
    <glyph glyph-name="Aacute.small" horiz-adv-x="533" 
d="M222 565l58 147h114l-93 -147h-79zM9 0l216 534h83l216 -534h-110l-43 114h-211l-42 -114h-109zM190 195h151l-43 116l-31 89h-2q-24 -69 -32 -90z" />
    <glyph glyph-name="Agrave.small" horiz-adv-x="533" 
d="M229 566l-93 147h116l58 -147h-81zM9 0l216 534h83l216 -534h-110l-43 114h-211l-42 -114h-109zM190 195h151l-43 116l-31 89h-2q-24 -69 -32 -90z" />
    <glyph glyph-name="Z.small" horiz-adv-x="475" 
d="M29 0l262 445h-228l-29 85h415l-261 -445h261v-85h-420z" />
    <glyph glyph-name="Y.small" horiz-adv-x="480" 
d="M238 290h2q21 44 48 95l75 145h109l-181 -323v-207h-104v207l-179 323h108l75 -144z" />
    <glyph glyph-name="X.small" horiz-adv-x="532" 
d="M21 530h114l134 -189l134 189h114l-190 -261l196 -269h-114l-141 200l-146 -200h-113l201 270z" />
    <glyph glyph-name="W.small" horiz-adv-x="771" 
d="M530 140h2q15 62 33 117l88 273h110l-189 -533h-82l-65 188q-16 46 -36 112h-3q-17 -56 -39 -114l-71 -186h-82l-188 533h110l92 -274q19 -59 33 -116h2q16 55 39 117l61 166l-35 107h100l87 -270q16 -52 33 -120z" />
    <glyph glyph-name="V.small" horiz-adv-x="545" 
d="M272 126h2q20 59 43 117l112 287h109l-226 -533h-79l-225 533h108l112 -285q35 -92 44 -119z" />
    <glyph glyph-name="U.small" horiz-adv-x="615" 
d="M536 530v-327q0 -107 -62.5 -160t-167.5 -53q-104 0 -165.5 53t-61.5 159v328h104v-323q0 -66 32.5 -100t92.5 -34q58 0 91 34t33 100v323h104z" />
    <glyph glyph-name="T.small" horiz-adv-x="456" 
d="M175 0v445h-162v85h444l-30 -85h-148v-445h-104z" />
    <glyph glyph-name="S.small" horiz-adv-x="450" 
d="M45 31l35 75q61 -34 123 -34q39 0 67.5 17.5t28.5 52.5q0 30 -24 51.5t-58.5 36.5t-69 32.5t-58.5 51t-24 80.5q0 64 47 105t130 41q76 0 137 -25v-87q-65 31 -129 31q-33 0 -56.5 -15t-23.5 -47q0 -24 17.5 -41.5t43.5 -28t56.5 -25.5t56.5 -31.5t43.5 -48t17.5 -73.5
q0 -74 -55 -116.5t-141 -42.5q-93 0 -164 41z" />
    <glyph glyph-name="R.small" horiz-adv-x="519" 
d="M343 232v-2q26 -17 65 -79l92 -151h-112l-80 131q-35 59 -59 65h-63v-196h-104v530h173q100 0 146 -45t46 -111q0 -49 -26 -87t-78 -55zM186 277h66q43 0 67.5 24t24.5 63q0 38 -24 61.5t-70 23.5h-64v-172z" />
    <glyph glyph-name="Q.small" horiz-adv-x="640" 
d="M241 0q-88 23 -140.5 94t-52.5 171q0 122 76 198.5t196 76.5t196 -76.5t76 -198.5q0 -110 -63.5 -184t-166.5 -86v-2q39 -52 117 -52q29 0 53 8l22 -77q-35 -13 -85 -13q-147 0 -228 141zM320 74q74 0 119.5 51.5t45.5 139.5t-45.5 139.5t-119.5 51.5t-119.5 -51.5
t-45.5 -139.5t45.5 -139.5t119.5 -51.5z" />
    <glyph glyph-name="P.small" horiz-adv-x="480" 
d="M82 0v530h157q94 0 145.5 -46.5t51.5 -128.5q0 -79 -52.5 -128t-150.5 -49h-47v-178h-104zM186 259h49q98 0 98 96q0 43 -23.5 68.5t-72.5 25.5h-51v-190z" />
    <glyph glyph-name="O.small" horiz-adv-x="640" 
d="M320 74q74 0 119.5 51.5t45.5 139.5t-45.5 139.5t-119.5 51.5t-119.5 -51.5t-45.5 -139.5t45.5 -139.5t119.5 -51.5zM320 540q120 0 196 -76.5t76 -198.5q0 -121 -76 -198t-196 -77q-119 0 -195.5 77t-76.5 198q0 122 76 198.5t196 76.5z" />
    <glyph glyph-name="N.small" horiz-adv-x="658" 
d="M472 153h2q-2 56 -2 121v256h104v-530h-94l-212 269q-48 61 -85 117h-1q2 -74 2 -118v-268h-104v530h99l204 -259q40 -49 87 -118z" />
    <glyph glyph-name="M.small" horiz-adv-x="720" 
d="M82 0v530h91l107 -157q52 -77 79 -121h2q26 45 79 121l105 157h93v-530h-104v254q0 80 3 116h-3q-23 -40 -64 -100l-87 -132h-46l-88 132q-41 60 -64 100h-2q3 -36 3 -116v-254h-104z" />
    <glyph glyph-name="L.small" horiz-adv-x="401" 
d="M82 0v530h104v-445h204v-85h-308z" />
    <glyph glyph-name="K.small" horiz-adv-x="519" 
d="M82 0v530h104v-238h2l191 238h112l-215 -267l231 -263h-122l-197 226h-2v-226h-104z" />
    <glyph glyph-name="J.small" horiz-adv-x="287" 
d="M-38 -132l20 80q25 -7 45 -7q41 0 57.5 22.5t16.5 67.5v499h104v-516q0 -159 -167 -159q-44 0 -76 13z" />
    <glyph glyph-name="I.small" horiz-adv-x="267" 
d="M82 0v530h104v-530h-104z" />
    <glyph glyph-name="H.small" horiz-adv-x="632" 
d="M82 0v530h104v-219h260v219h104v-530h-104v226h-260v-226h-104z" />
    <glyph glyph-name="G.small" horiz-adv-x="586" 
d="M512 254v-232q-78 -32 -179 -32q-133 0 -209 72.5t-76 194.5q0 127 81.5 205t209.5 78q82 0 151 -29v-89q-61 34 -140 34q-95 0 -145 -56t-50 -136q0 -88 49 -139t130 -51q44 0 74 11v169h104z" />
    <glyph glyph-name="F.small" horiz-adv-x="443" 
d="M82 0v530h324l-29 -85h-191v-147h190v-81h-190v-217h-104z" />
    <glyph glyph-name="E.small" horiz-adv-x="462" 
d="M82 0v530h325l-30 -81h-191v-141h190v-81h-190v-146h213v-81h-317z" />
    <glyph glyph-name="D.small" horiz-adv-x="592" 
d="M82 0v530h163q143 0 221 -70t78 -194q0 -122 -80 -194t-220 -72h-162zM186 85h61q99 0 144.5 49.5t45.5 131.5q0 179 -194 179h-57v-360z" />
    <glyph glyph-name="C.small" horiz-adv-x="519" 
d="M460 109l30 -76q-77 -43 -170 -43q-125 0 -198.5 73.5t-73.5 192.5q0 128 79.5 206t200.5 78q80 0 137 -30v-84q-58 30 -123 30q-87 0 -137 -55t-50 -140t47.5 -136t125.5 -51q74 0 132 35z" />
    <glyph glyph-name="B.small" horiz-adv-x="513" 
d="M365 280v-2q49 -12 76 -44.5t27 -79.5q0 -64 -49 -109t-151 -45h-186v530h191q78 0 122 -40.5t44 -97.5q0 -76 -74 -112zM186 76h73q103 0 103 80q0 76 -93 76h-83v-156zM186 303h65q41 0 62.5 21.5t21.5 55.5q0 32 -22 53t-62 21h-65v-151z" />
    <glyph glyph-name="A.small" horiz-adv-x="533" 
d="M9 0l216 534h83l216 -534h-110l-43 114h-211l-42 -114h-109zM190 195h151l-43 116l-31 89h-2q-24 -69 -32 -90z" />
    <glyph glyph-name="four.OT" 
d="M34 0v61l298 425h83v-404h90v-82h-90v-163l-103 -32v195h-278zM141 78q52 2 85 2h86v114q0 82 5 140z" />
    <glyph glyph-name="three.OT" 
d="M44 -175l23 81q50 -17 118 -17q74 0 122.5 31t48.5 93q0 100 -152 100h-89v80h27q53 0 92 9q107 28 107 117q0 44 -28 67.5t-70 23.5q-66 0 -150 -46l-36 72q92 58 200 58q88 0 139.5 -46.5t51.5 -117.5q0 -58 -31 -99t-76 -57v-2q58 -9 90 -51.5t32 -101.5
q0 -39 -13 -74t-42.5 -68t-87 -52.5t-135.5 -19.5q-87 0 -141 20z" />
    <glyph glyph-name="two.OT" 
d="M67 0q5 55 27.5 99.5t51.5 71t62 51t60.5 41.5t45.5 39.5t18 47.5q0 27 -21.5 43.5t-59.5 16.5q-68 0 -141 -46l-35 73q87 57 196 57q78 0 123 -37t45 -102q0 -37 -19.5 -68.5t-50 -54l-62 -44t-60 -49t-40.5 -57.5h244v-82h-384z" />
    <glyph glyph-name="one.OT" 
d="M284 0v385l-165 -71l-32 78l218 94h82v-486h-103z" />
    <glyph glyph-name="zero.OT" 
d="M267 -10q-100 0 -160.5 70.5t-60.5 181.5t60.5 181.5t160.5 70.5t160 -70t60 -182q0 -111 -60 -181.5t-160 -70.5zM267 74q58 0 85.5 46t27.5 122q0 77 -27.5 122.5t-85.5 45.5q-59 0 -86.5 -45.5t-27.5 -122.5q0 -76 28 -122t86 -46z" />
    <glyph glyph-name="yen.OP" 
d="M216 0v80h-119v68h119v60h-119v67h83l-125 235h105l106 -213h2l105 213h105l-125 -235h83v-67h-118v-60h118v-68h-118v-80h-102z" />
    <glyph glyph-name="sterling.OP" 
d="M87 0v62q65 23 68 161h-58v72h58v54q0 74 48 122t138 48q58 0 113 -21l-20 -82q-38 19 -82 19q-41 0 -68 -24t-27 -75v-41h162l-25 -72h-137q-3 -101 -38 -148v-2q29 4 80 4h151v-77h-363z" />
    <glyph glyph-name="dollar.OP" 
d="M220 -66v81q-75 6 -133 38l33 73q55 -33 126 -33q38 0 65 13.5t27 43.5q0 25 -24 43t-58.5 31t-69 28.5t-58.5 45.5t-24 73q0 51 34 85t98 43v76h73v-75q56 -3 106 -21v-87q-66 31 -129 31q-80 0 -80 -48q0 -23 24 -39t58.5 -28.5t69 -28t58.5 -46.5t24 -76
q0 -58 -39.5 -94.5t-106.5 -45.5v-83h-74z" />
    <glyph glyph-name="Euro.OP" 
d="M457 102l30 -73q-63 -39 -143 -39q-87 0 -144.5 43.5t-79.5 123.5h-61v62h50q-1 11 -1 33q0 25 2 38h-51v62h62q24 80 84.5 123.5t140.5 43.5q73 0 123 -26v-86q-54 30 -114 30q-91 0 -126 -85h202l-23 -62h-196q-3 -20 -3 -36q0 -21 2 -35h196l-24 -62h-157
q31 -85 123 -85q60 0 108 30z" />
    <glyph glyph-name="nine.OP" horiz-adv-x="554" 
d="M122 -124q84 29 155 87t93 139l-2 1q-56 -38 -125 -38q-83 0 -140 53.5t-57 150.5q0 102 63.5 163.5t162.5 61.5q102 0 165.5 -69.5t63.5 -192.5q0 -148 -87.5 -262t-260.5 -171zM271 150q63 0 118 42q4 17 4 46q0 80 -35 126t-88 46q-54 0 -85.5 -36.5t-31.5 -97.5
q0 -59 31.5 -92.5t86.5 -33.5z" />
    <glyph glyph-name="eight.OP" horiz-adv-x="562" 
d="M277 -10q-108 0 -168.5 49.5t-60.5 131.5q0 60 33 103.5t86 64.5v2q-100 52 -100 147q0 77 59 127t158 50q97 0 152.5 -50t55.5 -120q0 -101 -103 -151v-2q125 -47 125 -161q0 -84 -62.5 -137.5t-174.5 -53.5zM282 73q52 0 87 26.5t35 73.5q0 23 -10 42t-22 30.5
t-36.5 23t-38.5 16.5t-44 14q-40 -15 -67.5 -44.5t-27.5 -71.5q0 -53 36 -81.5t88 -28.5zM302 380q79 38 79 107q0 40 -27.5 67.5t-74.5 27.5q-45 0 -73.5 -24.5t-28.5 -63.5q0 -25 10 -44.5t29 -32.5t38.5 -21t47.5 -16z" />
    <glyph glyph-name="seven.OP" horiz-adv-x="477" 
d="M84 -198q67 343 237 602h-284l-23 82h446v-38q-181 -242 -260 -607z" />
    <glyph glyph-name="six.OP" horiz-adv-x="554" 
d="M281 -10q-101 0 -164.5 70t-63.5 205q0 157 96 269.5t260 148.5l22 -80q-101 -25 -170 -85t-88 -148l1 -1q67 50 143 50q80 0 135.5 -53.5t55.5 -150.5q0 -102 -64 -163.5t-163 -61.5zM286 74q53 0 84 36t31 97q0 58 -29.5 92t-81.5 34q-68 0 -129 -52q0 -2 -0.5 -11.5
t-0.5 -14.5q0 -87 36.5 -134t89.5 -47z" />
    <glyph glyph-name="five.OP" horiz-adv-x="485" 
d="M16 -173l23 82q54 -20 113 -20q82 0 128 39t46 102q0 62 -43 89q-42 25 -131 25h-75l32 342h354l-21 -82h-238l-16 -182h18q88 0 142 -30q86 -48 86 -156q0 -41 -14 -79t-44.5 -73.5t-87.5 -57t-134 -21.5q-81 0 -138 22z" />
    <glyph glyph-name="four.OP" 
d="M34 0v61l298 425h83v-404h90v-82h-90v-163l-103 -32v195h-278zM141 78q52 2 85 2h86v114q0 82 5 140z" />
    <glyph glyph-name="three.OP" horiz-adv-x="516" 
d="M31 -175l23 81q51 -17 119 -17q73 0 121.5 31t48.5 93q0 100 -151 100h-90v80h28q52 0 92 9q107 28 107 117q0 44 -28 67.5t-70 23.5q-66 0 -151 -46l-35 72q92 58 200 58q88 0 139.5 -46.5t51.5 -117.5q0 -58 -31.5 -98.5t-76.5 -57.5v-2q58 -9 90.5 -51.5t32.5 -101.5
q0 -39 -13 -74t-42.5 -68t-87 -52.5t-135.5 -19.5q-87 0 -142 20z" />
    <glyph glyph-name="two.OP" horiz-adv-x="491" 
d="M45 0q5 55 27.5 99.5t51.5 71t62 51t60.5 41.5t45.5 39.5t18 47.5q0 27 -21 43.5t-59 16.5q-67 0 -142 -46l-34 73q86 57 195 57q78 0 123 -37t45 -102q0 -37 -19.5 -68.5t-49.5 -54t-62 -44t-60.5 -49t-40.5 -57.5h244v-82h-384z" />
    <glyph glyph-name="one.OP" horiz-adv-x="423" 
d="M208 0v385l-133 -61l-31 78l185 84h82v-486h-103z" />
    <glyph glyph-name="zero.OP" horiz-adv-x="533" 
d="M267 -10q-100 0 -159 70.5t-59 181.5q0 112 59 182t159 70t158.5 -70t58.5 -182q0 -111 -58.5 -181.5t-158.5 -70.5zM267 74q110 0 110 168t-110 168q-111 0 -111 -168t111 -168z" />
    <glyph glyph-name="yen.LT" horiz-adv-x="538" 
d="M217 0v115h-156v69h156v77h-156v69h124l-157 329h112l128 -301h2l127 301h113l-158 -329h125v-69h-156v-77h156v-69h-156v-115h-104z" />
    <glyph glyph-name="sterling.LT" horiz-adv-x="538" 
d="M63 0v69q91 32 91 224h-74v86h74v69q0 64 20.5 109.5t54 67.5t66 31t66.5 9q61 0 126 -24l-23 -84q-41 19 -89 19q-52 0 -85 -33.5t-33 -105.5v-58h189l-28 -86h-161q0 -156 -62 -214v-2q59 9 114 9h175v-86h-421z" />
    <glyph glyph-name="five.OT" 
d="M34 -173l24 82q54 -20 113 -20q82 0 128 39t46 102q0 62 -43 89q-42 25 -131 25h-75l32 342h354l-21 -82h-238l-16 -182h18q88 0 142 -30q85 -48 85 -156q0 -41 -14 -79t-44 -73.5t-87 -57t-134 -21.5q-80 0 -139 22z" />
    <glyph glyph-name="six.OT" 
d="M271 -10q-101 0 -165 70.5t-64 204.5q0 157 96 269.5t260 148.5l22 -80q-101 -25 -169.5 -84.5t-88.5 -148.5l1 -1q67 50 144 50q79 0 134.5 -53.5t55.5 -150.5q0 -102 -64 -163.5t-162 -61.5zM275 74q53 0 84 36t31 97q0 58 -29.5 92t-81.5 34q-68 0 -129 -52v-26
q0 -88 36 -134.5t89 -46.5z" />
    <glyph glyph-name="seven.OT" 
d="M115 -198q62 317 249 602h-292l-23 82h454v-38q-96 -128 -166 -287.5t-105 -319.5z" />
    <glyph glyph-name="eight.OT" 
d="M265 -10q-108 0 -168.5 49.5t-60.5 131.5q0 60 33.5 103.5t86.5 64.5v2q-101 51 -101 147q0 77 59 127t158 50q97 0 152.5 -50t55.5 -120q0 -101 -103 -151v-2q125 -47 125 -161q0 -84 -62.5 -137.5t-174.5 -53.5zM271 73q52 0 86.5 26.5t34.5 73.5q0 23 -9.5 42
t-22 30.5t-36.5 23t-39 16.5l-44 14q-39 -15 -67 -44.5t-28 -71.5q0 -53 36 -81.5t89 -28.5zM290 380q80 37 80 107q0 40 -28 67.5t-75 27.5q-44 0 -73 -24.5t-29 -63.5q0 -25 10 -44.5t29 -32.5t38.5 -21t47.5 -16z" />
    <glyph glyph-name="nine.OT" 
d="M112 -124q84 29 155.5 87t93.5 139l-2 1q-58 -38 -126 -38q-83 0 -140 53.5t-57 150.5q0 102 64 163.5t162 61.5q103 0 166.5 -69.5t63.5 -192.5q0 -148 -87.5 -262t-260.5 -171zM262 150q61 0 118 42q4 17 4 46q0 80 -35.5 126t-87.5 46q-54 0 -86 -36.5t-32 -97.5
q0 -59 31.5 -92.5t87.5 -33.5z" />
    <glyph glyph-name="Euro.OT" 
d="M457 102l30 -73q-63 -39 -143 -39q-87 0 -144.5 43.5t-79.5 123.5h-61v62h50q-1 11 -1 33q0 25 2 38h-51v62h62q24 80 84.5 123.5t140.5 43.5q73 0 123 -26v-86q-54 30 -114 30q-91 0 -126 -85h202l-23 -62h-196q-3 -20 -3 -36q0 -21 2 -35h196l-24 -62h-157
q31 -85 123 -85q60 0 108 30z" />
    <glyph glyph-name="dollar.OT" 
d="M220 -66v81q-75 6 -133 38l33 73q55 -33 126 -33q38 0 65 13.5t27 43.5q0 25 -24 43t-58.5 31t-69 28.5t-58.5 45.5t-24 73q0 51 34 85t98 43v76h73v-75q56 -3 106 -21v-87q-66 31 -129 31q-80 0 -80 -48q0 -23 24 -39t58.5 -28.5t69 -28t58.5 -46.5t24 -76
q0 -58 -39.5 -94.5t-106.5 -45.5v-83h-74z" />
    <glyph glyph-name="sterling.OT" 
d="M87 0v62q65 23 68 161h-58v72h58v54q0 74 48 122t138 48q58 0 113 -21l-20 -82q-38 19 -82 19q-41 0 -68 -24t-27 -75v-41h162l-25 -72h-137q-3 -101 -38 -148v-2q29 4 80 4h151v-77h-363z" />
    <glyph glyph-name="yen.OT" 
d="M216 0v80h-119v68h119v60h-119v67h83l-125 235h105l106 -213h2l105 213h105l-125 -235h83v-67h-118v-60h118v-68h-118v-80h-102z" />
    <glyph glyph-name="zero.small" horiz-adv-x="493" 
d="M245 -10q-94 0 -147.5 72t-53.5 203t53.5 203t147.5 72q95 0 148.5 -72t53.5 -203t-53.5 -203t-148.5 -72zM245 74q96 0 96 191t-96 191q-95 0 -95 -191t95 -191z" />
    <glyph glyph-name="one.small" horiz-adv-x="377" 
d="M180 0v426l-125 -58l-35 80l187 86h76v-534h-103z" />
    <glyph glyph-name="two.small" horiz-adv-x="457" 
d="M404 0h-377q5 76 34 133.5t67.5 89.5t76 57.5t63.5 52t26 57.5q0 32 -22.5 49t-59.5 17q-67 0 -139 -39l-30 78q94 45 180 45q87 0 132 -39.5t45 -103.5q0 -43 -21 -77t-53 -58.5l-65.5 -48.5t-64.5 -57.5t-44 -74.5h252v-81z" />
    <glyph glyph-name="three.small" horiz-adv-x="454" 
d="M304 277v-2q45 -12 70 -43.5t25 -75.5q0 -72 -56 -119t-166 -47q-87 0 -159 31l29 78q60 -25 124 -25q61 0 91.5 22.5t30.5 59.5q0 72 -116 72h-82v80h69q112 0 112 78q0 31 -20.5 51t-60.5 20q-61 0 -133 -36l-30 76q84 43 174 43q87 0 132 -42t45 -102q0 -80 -79 -119z
" />
    <glyph glyph-name="four.small" horiz-adv-x="499" 
d="M39 125v65l261 344h81v-327h81v-82h-81v-125h-103v125h-239zM283 392l-140 -187q40 2 65 2h72v96q0 29 3 89z" />
    <glyph glyph-name="five.small" horiz-adv-x="448" 
d="M24 20l29 78q53 -24 113 -24q54 0 89 23.5t35 67.5q0 56 -53 72q-30 10 -89 10h-81v283h337l-26 -81h-210v-123h14q69 0 114 -17q100 -35 100 -141q0 -79 -57 -128.5t-170 -49.5q-79 0 -145 30z" />
    <glyph glyph-name="six.small" horiz-adv-x="477" 
d="M253 -10q-96 0 -152.5 68.5t-56.5 184.5q0 126 67 211.5t181 85.5q64 0 127 -26l-30 -77q-44 21 -92 21q-58 0 -99.5 -41.5t-49.5 -110.5q57 33 123 33q73 0 121.5 -44.5t48.5 -122.5q0 -83 -53 -132.5t-135 -49.5zM254 72q39 0 61 24.5t22 68.5t-24 69t-63 25
q-54 0 -102 -33q0 -65 28 -109.5t78 -44.5z" />
    <glyph glyph-name="seven.small" horiz-adv-x="424" 
d="M170 0h-105q51 246 204 445h-231l-26 85h394v-41q-177 -199 -236 -489z" />
    <glyph glyph-name="eight.small" horiz-adv-x="486" 
d="M341 277v-2q100 -38 100 -130q0 -66 -53.5 -110.5t-147.5 -44.5q-89 0 -142 42t-53 109q0 91 97 133v2q-81 39 -81 118q0 63 50 104.5t135 41.5t130.5 -42.5t45.5 -100.5q0 -77 -81 -120zM244 69q39 0 66.5 19.5t27.5 53.5q0 63 -116 95q-74 -30 -74 -90q0 -38 27 -58
t69 -20zM164 394q0 -61 93 -86q27 10 44.5 32.5t17.5 50.5q0 29 -20.5 49.5t-56.5 20.5q-34 0 -56 -18.5t-22 -48.5z" />
    <glyph glyph-name="nine.small" horiz-adv-x="473" 
d="M46 18l28 77q53 -23 105 -23q62 0 103 41.5t44 117.5q-54 -40 -122 -40q-69 0 -118 42.5t-49 122.5q0 81 52.5 132.5t133.5 51.5q93 0 149.5 -67t56.5 -193q0 -131 -63 -210.5t-184 -79.5q-71 0 -136 28zM227 271q58 0 98 43q-1 68 -29.5 106t-72.5 38q-39 0 -61.5 -26.5
t-22.5 -68.5q0 -44 23 -68t65 -24z" />
    <glyph glyph-name="Euro.small" horiz-adv-x="462" 
d="M416 101l32 -75q-62 -36 -145 -36q-86 0 -143.5 46t-78.5 128h-63v63h52q-5 36 0 74h-52v63h64q23 84 83 130t140 46q67 0 121 -24v-87q-54 27 -112 27q-42 0 -75 -23.5t-48 -68.5h196l-23 -63h-189q-5 -37 0 -74h187l-26 -63h-147q29 -90 120 -90q60 0 107 27z" />
    <glyph glyph-name="dollar.small" horiz-adv-x="464" 
d="M176 -69v83q-67 8 -123 42l38 73q58 -35 119 -35q80 0 80 56q0 26 -23 46t-56 35t-65.5 33t-55.5 49.5t-23 73.5q0 48 32.5 85.5t93.5 45.5v80h80v-78q58 -6 96 -26v-85q-66 32 -129 32q-32 0 -50.5 -13t-18.5 -37t23 -43t56 -34.5t66 -34t56 -50t23 -72.5q0 -58 -36 -95
t-102 -47v-84h-81z" />
    <glyph glyph-name="sterling.small" horiz-adv-x="466" 
d="M48 0v68q76 26 76 161h-62v81h62v53q0 90 53 133.5t128 43.5q54 0 115 -23l-23 -78q-42 18 -80 18q-44 0 -68 -26.5t-24 -74.5v-46h160l-28 -81h-132q0 -100 -45 -149v-2q33 3 98 3h139v-81h-369z" />
    <glyph glyph-name="yen.small" horiz-adv-x="455" 
d="M226 301h2l94 229h109l-124 -257h100v-66h-130v-57h130v-66h-130v-84h-101v84h-130v66h130v57h-130v66h100l-124 257h109z" />
    <glyph glyph-name="six.LT" horiz-adv-x="538" 
d="M285 -10q-106 0 -174.5 79t-68.5 233q0 156 79 259.5t213 103.5q73 0 138 -29l-28 -83q-52 26 -105 26q-74 0 -125.5 -54t-63.5 -156q74 49 158 49q86 0 142.5 -54.5t56.5 -149.5q0 -103 -62 -163.5t-160 -60.5zM286 76q53 0 82 32.5t29 92.5q0 62 -31.5 96.5t-82.5 34.5
q-34 0 -70 -14t-61 -35q1 -96 39 -151.5t95 -55.5z" />
    <glyph glyph-name="seven.LT" horiz-adv-x="538" 
d="M126 0q65 325 247 570h-281l-26 89h450v-39q-212 -255 -280 -620h-110z" />
    <glyph glyph-name="eight.LT" horiz-adv-x="538" 
d="M271 -10q-108 0 -168.5 49.5t-60.5 131.5q0 60 33.5 103.5t86.5 64.5v2q-101 52 -101 147q0 77 59.5 127t157.5 50q97 0 152.5 -50t55.5 -120q0 -100 -102 -151v-2q125 -47 125 -161q0 -84 -63 -137.5t-175 -53.5zM277 73q52 0 86.5 26.5t34.5 73.5q0 23 -9.5 42
t-22 30.5t-36.5 23t-39 16.5l-44 14q-39 -15 -66.5 -44.5t-27.5 -71.5q0 -53 35.5 -81.5t88.5 -28.5zM296 380q80 37 80 107q0 40 -28 67.5t-75 27.5q-44 0 -72.5 -24.5t-28.5 -63.5q0 -47 33 -72t91 -42z" />
    <glyph glyph-name="nine.LT" horiz-adv-x="538" 
d="M212 -10q-81 0 -150 31l26 84q61 -29 123 -29q165 0 183 213h-2q-65 -52 -149 -52q-83 0 -141 51.5t-58 153.5q0 99 62 161t159 62q109 0 173.5 -78.5t64.5 -232.5q0 -173 -74.5 -268.5t-216.5 -95.5zM267 324q37 0 71.5 17.5t55.5 43.5q0 87 -36 140.5t-96 53.5
q-50 0 -80 -35.5t-30 -93.5q0 -60 30 -93t85 -33z" />
    <glyph glyph-name="Euro.LT" horiz-adv-x="538" 
d="M480 117l40 -83q-69 -44 -165 -44q-109 0 -175 59t-89 162h-69v69h60q-2 26 -2 43q0 27 3 52h-61v69h73q27 100 96 160.5t168 60.5q80 0 135 -31v-100q-62 38 -124 38q-117 0 -159 -128h252l-24 -69h-244q-3 -19 -3 -49q0 -28 2 -46h238l-24 -69h-199q18 -60 57 -95
t97 -35q61 0 117 36z" />
    <glyph glyph-name="dollar.LT" horiz-adv-x="538" 
d="M214 -84v101q-79 7 -148 51l41 78q68 -45 136 -45q45 0 76.5 18.5t31.5 59.5q0 34 -27.5 61t-67 47.5t-79.5 44t-67.5 62.5t-27.5 91q0 60 40 105.5t112 54.5v97h78v-95q65 -7 115 -31v-89q-74 38 -144 38q-43 0 -68 -18.5t-25 -54.5q0 -33 27.5 -59t67 -46t79 -43.5
t67 -63t27.5 -91.5q0 -69 -43.5 -114t-122.5 -57v-102h-78z" />
    <glyph glyph-name="plusinferior" horiz-adv-x="403" 
d="M166 -149v129h-119v66h119v125h72v-125h118v-66h-118v-129h-72z" />
    <glyph glyph-name="minusinferior" horiz-adv-x="403" 
d="M47 -20v66h309v-66h-309z" />
    <glyph glyph-name="equalinferior" horiz-adv-x="403" 
d="M47 -87v67h309v-67h-309zM47 46v67h309v-67h-309z" />
    <glyph glyph-name="five.LT" horiz-adv-x="538" 
d="M52 23l29 83q59 -27 128 -27t112.5 31.5t43.5 91.5q0 75 -68 101q-36 15 -118 15h-78v341h378l-26 -89h-250v-168h26q75 0 123 -19q60 -22 92 -68t32 -107q0 -97 -66 -157.5t-198 -60.5q-92 0 -160 33z" />
    <glyph glyph-name="four.LT" horiz-adv-x="538" 
d="M41 166v71l307 427h77v-412h91v-86h-91v-166h-103v166h-281zM152 250q8 0 38 1t43 1h89v115q0 73 5 136z" />
    <glyph glyph-name="three.LT" horiz-adv-x="538" 
d="M39 26l29 83q69 -30 146 -30q74 0 115 28t41 84q0 71 -77 91q-29 8 -83 8h-82v85h68q155 0 155 105q0 44 -27.5 70t-80.5 26q-76 0 -158 -45l-29 81q96 53 199 53q101 0 153.5 -50.5t52.5 -124.5q0 -103 -103 -146v-2q58 -11 90 -50.5t32 -99.5q0 -89 -66.5 -145.5
t-194.5 -56.5q-103 0 -180 36z" />
    <glyph glyph-name="two.LT" horiz-adv-x="538" 
d="M43 0q7 79 34 142.5t63 101t76 70.5t74 55.5t56 52.5t22 64q0 46 -30 68t-77 22q-75 0 -167 -45l-29 81q102 53 210 53q100 0 152 -47t52 -123q0 -39 -14.5 -72.5t-38.5 -58.5t-53 -48l-60 -46.5t-58 -48.5t-48 -59t-29 -73h305v-89h-440z" />
    <glyph glyph-name="Amacron.small" horiz-adv-x="533" 
d="M129 605v81h273v-81h-273zM9 0l216 534h83l216 -534h-110l-43 114h-211l-42 -114h-109zM190 195h151l-43 116l-31 89h-2q-24 -69 -32 -90z" />
    <glyph glyph-name="Ccircumflex.small" horiz-adv-x="519" 
d="M460 109l30 -76q-77 -43 -170 -43q-125 0 -198.5 73.5t-73.5 192.5q0 128 79.5 206t200.5 78q80 0 137 -30v-84q-58 30 -123 30q-87 0 -137 -55t-50 -140t47.5 -136t125.5 -51q74 0 132 35zM162 566l99 147h88l100 -147h-84l-60 86l-59 -86h-84z" />
    <glyph glyph-name="Abreve.small" horiz-adv-x="533" 
d="M333 711h72q-4 -62 -41.5 -98t-98.5 -36q-60 0 -97 36t-41 98h72q8 -67 67 -67t67 67zM9 0l216 534h83l216 -534h-110l-43 114h-211l-42 -114h-109zM190 195h151l-43 116l-31 89h-2q-24 -69 -32 -90z" />
    <glyph glyph-name="Ccaron.small" horiz-adv-x="519" 
d="M257 566l-100 147h85l60 -85l59 85h83l-99 -147h-88zM460 109l30 -76q-77 -43 -170 -43q-125 0 -198.5 73.5t-73.5 192.5q0 128 79.5 206t200.5 78q80 0 137 -30v-84q-58 30 -123 30q-87 0 -137 -55t-50 -140t47.5 -136t125.5 -51q74 0 132 35z" />
    <glyph glyph-name="Cdotaccent.small" horiz-adv-x="519" 
d="M460 109l30 -76q-77 -43 -170 -43q-125 0 -198.5 73.5t-73.5 192.5q0 128 79.5 206t200.5 78q80 0 137 -30v-84q-58 30 -123 30q-87 0 -137 -55t-50 -140t47.5 -136t125.5 -51q74 0 132 35zM301 590q-28 0 -47 18.5t-19 45.5t19 45.5t47 18.5t46.5 -18t18.5 -46
q0 -27 -18.5 -45.5t-46.5 -18.5z" />
    <glyph glyph-name="Ccedilla.small" horiz-adv-x="519" 
d="M195 -201l15 52q24 -9 49 -9q50 0 50 34q0 21 -21 28t-62 7l26 86q-95 18 -149.5 87.5t-54.5 171.5q0 128 79.5 206t200.5 78q80 0 137 -30v-84q-58 30 -123 30q-87 0 -137 -55t-50 -140t47.5 -136t125.5 -51q74 0 132 35l30 -76q-72 -41 -161 -43l-13 -41q83 -5 83 -73
q0 -40 -34 -64t-98 -24q-41 0 -72 11z" />
    <glyph glyph-name="Dcaron.small" horiz-adv-x="592" 
d="M237 566l-100 147h85l60 -85l59 85h83l-99 -147h-88zM82 0v530h163q143 0 221 -70t78 -194q0 -122 -80 -194t-220 -72h-162zM186 85h61q99 0 144.5 49.5t45.5 131.5q0 179 -194 179h-57v-360z" />
    <glyph glyph-name="Dcroat.small" horiz-adv-x="592" 
d="M82 0v227h-64v80h64v223h163q143 0 221 -70t78 -194q0 -122 -80 -194t-220 -72h-162zM186 85h61q99 0 144.5 49.5t45.5 131.5q0 179 -194 179h-57v-138h120v-80h-120v-142z" />
    <glyph glyph-name="Egrave.small" horiz-adv-x="462" 
d="M211 566l-93 147h116l58 -147h-81zM82 0v530h325l-30 -81h-191v-141h190v-81h-190v-146h213v-81h-317z" />
    <glyph glyph-name="Eacute.small" horiz-adv-x="462" 
d="M189 566l58 147h114l-93 -147h-79zM82 0v530h325l-30 -81h-191v-141h190v-81h-190v-146h213v-81h-317z" />
    <glyph glyph-name="Ecircumflex.small" horiz-adv-x="462" 
d="M82 0v530h325l-30 -81h-191v-141h190v-81h-190v-146h213v-81h-317zM98 566l99 147h88l100 -147h-84l-60 86l-59 -86h-84z" />
    <glyph glyph-name="Ecaron.small" horiz-adv-x="462" 
d="M195 566l-100 147h85l60 -85l59 85h83l-99 -147h-88zM82 0v530h325l-30 -81h-191v-141h190v-81h-190v-146h213v-81h-317z" />
    <glyph glyph-name="Edieresis.small" horiz-adv-x="462" 
d="M82 0v530h325l-30 -81h-191v-141h190v-81h-190v-146h213v-81h-317zM149 579q-23 0 -39.5 16.5t-16.5 39.5t16.5 39.5t39.5 16.5t39 -16.5t16 -39.5t-16 -39.5t-39 -16.5zM335 579q-23 0 -39 16.5t-16 39.5t16 39.5t39 16.5t39 -16.5t16 -39.5t-16 -39.5t-39 -16.5z" />
    <glyph glyph-name="Emacron.small" horiz-adv-x="462" 
d="M102 605v81h273v-81h-273zM82 0v530h325l-30 -81h-191v-141h190v-81h-190v-146h213v-81h-317z" />
    <glyph glyph-name="Aring.small" horiz-adv-x="533" 
d="M118 0h-109l215 533q-32 8 -51 32t-19 58q0 44 31 70t81 26t81 -26t31 -70q0 -34 -19 -58t-51 -32l216 -533h-110l-43 114h-211zM267 400h-2q-24 -69 -32 -90l-43 -115h151l-43 116zM266 574q20 0 32 13t12 36q0 22 -12 35t-32 13t-31.5 -13t-11.5 -35t11.5 -35.5
t31.5 -13.5z" />
    <glyph glyph-name="Ebreve.small" horiz-adv-x="462" 
d="M308 711h72q-4 -62 -41.5 -98t-98.5 -36q-60 0 -97 36t-41 98h72q8 -67 67 -67t67 67zM82 0v530h325l-30 -81h-191v-141h190v-81h-190v-146h213v-81h-317z" />
    <glyph glyph-name="Aringacute.small" horiz-adv-x="533" 
d="M9 0l215 533q-32 8 -51 32t-19 58q0 39 25.5 64.5t67.5 30.5l49 127h116l-89 -138q55 -23 55 -84q0 -34 -19 -58t-51 -32l216 -533h-110l-43 114h-211l-42 -114h-109zM190 195h151l-43 116l-31 89h-2q-24 -69 -32 -90zM223 623q0 -22 11.5 -35.5t31.5 -13.5t32 13t12 36
q0 22 -12 35t-32 13t-31.5 -13t-11.5 -35z" />
    <glyph glyph-name="Aogonek.small" horiz-adv-x="533" 
d="M9 0l216 534h83l216 -534q-53 -17 -86 -48.5t-33 -64.5q0 -37 35 -37q17 0 38 7l12 -59q-39 -12 -73 -12q-48 0 -74 23t-26 61q0 69 95 135l-41 109h-211l-42 -114h-109zM190 195h151l-43 116l-31 89h-2q-24 -69 -32 -90z" />
    <glyph glyph-name="Edotaccent.small" horiz-adv-x="462" 
d="M82 0v530h325l-30 -81h-191v-141h190v-81h-190v-146h213v-81h-317zM242 590q-28 0 -47 18.5t-19 45.5t19 45.5t47 18.5t46.5 -18t18.5 -46q0 -27 -18.5 -45.5t-46.5 -18.5z" />
    <glyph glyph-name="Eogonek.small" horiz-adv-x="462" 
d="M399 0h-21q-46 -22 -74 -52t-28 -61q0 -37 36 -37q17 0 37 7l13 -59q-39 -12 -74 -12q-47 0 -73 23t-26 61q0 72 88 130h-195v530h325l-30 -81h-191v-141h190v-81h-190v-146h213v-81z" />
    <glyph glyph-name="Gcircumflex.small" horiz-adv-x="586" 
d="M512 254v-232q-78 -32 -179 -32q-133 0 -209 72.5t-76 194.5q0 127 81.5 205t209.5 78q82 0 151 -29v-89q-61 34 -140 34q-95 0 -145 -56t-50 -136q0 -88 49 -139t130 -51q44 0 74 11v169h104zM164 566l99 147h88l100 -147h-84l-60 86l-59 -86h-84z" />
    <glyph glyph-name="Gbreve.small" horiz-adv-x="586" 
d="M375 711h72q-4 -62 -41.5 -98t-98.5 -36q-60 0 -97 36t-41 98h72q8 -67 67 -67t67 67zM512 254v-232q-78 -32 -179 -32q-133 0 -209 72.5t-76 194.5q0 127 81.5 205t209.5 78q82 0 151 -29v-89q-61 34 -140 34q-95 0 -145 -56t-50 -136q0 -88 49 -139t130 -51q44 0 74 11
v169h104z" />
    <glyph glyph-name="Gdotaccent.small" horiz-adv-x="586" 
d="M512 254v-232q-78 -32 -179 -32q-133 0 -209 72.5t-76 194.5q0 127 81.5 205t209.5 78q82 0 151 -29v-89q-61 34 -140 34q-95 0 -145 -56t-50 -136q0 -88 49 -139t130 -51q44 0 74 11v169h104zM314 590q-28 0 -47 18.5t-19 45.5t19 45.5t47 18.5t46.5 -18t18.5 -46
q0 -27 -18.5 -45.5t-46.5 -18.5z" />
    <glyph glyph-name="Gcommaaccent.small" horiz-adv-x="586" 
d="M512 254v-232q-78 -32 -179 -32q-133 0 -209 72.5t-76 194.5q0 127 81.5 205t209.5 78q82 0 151 -29v-89q-61 34 -140 34q-95 0 -145 -56t-50 -136q0 -88 49 -139t130 -51q44 0 74 11v169h104zM250 -237l-26 64q73 17 73 64q0 27 -21 57h90q23 -32 23 -72
q0 -93 -139 -113z" />
    <glyph glyph-name="Hcircumflex.small" horiz-adv-x="632" 
d="M82 0v530h104v-219h260v219h104v-530h-104v226h-260v-226h-104zM173 566l99 147h88l100 -147h-84l-60 86l-59 -86h-84z" />
    <glyph glyph-name="Hbar.small" horiz-adv-x="632" 
d="M82 0v388h-53v69h53v73h104v-73h260v73h104v-73h53v-69h-53v-388h-104v226h-260v-226h-104zM186 311h260v77h-260v-77z" />
    <glyph glyph-name="Igrave.small" horiz-adv-x="267" 
d="M106 566l-93 147h116l58 -147h-81zM82 0v530h104v-530h-104z" />
    <glyph glyph-name="Iacute.small" horiz-adv-x="267" 
d="M82 566l58 147h114l-93 -147h-79zM82 0v530h104v-530h-104z" />
    <glyph glyph-name="Icircumflex.small" horiz-adv-x="267" 
d="M82 0v530h104v-530h-104zM-10 566l99 147h88l100 -147h-84l-60 86l-59 -86h-84z" />
    <glyph glyph-name="Itilde.small" horiz-adv-x="267" 
d="M-17 584v34q0 38 22 59.5t56 21.5q31 0 74 -23t56 -23q15 0 19.5 9.5t4.5 30.5h69v-34q0 -38 -22 -59.5t-56 -21.5q-30 0 -73.5 22.5t-56.5 22.5q-14 0 -18.5 -9t-4.5 -30h-70zM82 0v530h104v-530h-104z" />
    <glyph glyph-name="AE.small" horiz-adv-x="745" 
d="M8 0l290 530h392l-30 -81h-255l33 -141h221v-81h-203l34 -146h193v-81h-272l-25 114h-209l-60 -114h-109zM219 195h149l-25 116q-14 66 -17 90h-3q-24 -54 -43 -90z" />
    <glyph glyph-name="Idieresis.small" horiz-adv-x="267" 
d="M82 0v530h104v-530h-104zM41 579q-23 0 -39.5 16.5t-16.5 39.5t16.5 39.5t39.5 16.5t39 -16.5t16 -39.5t-16 -39.5t-39 -16.5zM227 579q-23 0 -39 16.5t-16 39.5t16 39.5t39 16.5t39 -16.5t16 -39.5t-16 -39.5t-39 -16.5z" />
    <glyph glyph-name="Imacron.small" horiz-adv-x="267" 
d="M-3 605v81h273v-81h-273zM82 0v530h104v-530h-104z" />
    <glyph glyph-name="AEacute.small" horiz-adv-x="745" 
d="M370 566l58 147h114l-93 -147h-79zM8 0l290 530h392l-30 -81h-255l33 -141h221v-81h-203l34 -146h193v-81h-272l-25 114h-209l-60 -114h-109zM219 195h149l-25 116q-14 66 -17 90h-3q-24 -54 -43 -90z" />
    <glyph glyph-name="Ibreve.small" horiz-adv-x="267" 
d="M200 711h72q-4 -62 -41.5 -98t-98.5 -36q-60 0 -97 36t-41 98h72q8 -67 67 -67t67 67zM82 0v530h104v-530h-104z" />
    <glyph glyph-name="Iogonek.small" horiz-adv-x="267" 
d="M82 3v527h104v-530q-39 -22 -61 -51.5t-22 -58.5q0 -40 37 -40q17 0 37 7l12 -59q-37 -12 -71 -12q-49 0 -75.5 24t-26.5 67q0 69 66 126z" />
    <glyph glyph-name="IJ.small" horiz-adv-x="555" 
d="M82 0v530h104v-530h-104zM229 -132l20 80q25 -7 45 -7q41 0 57.5 22.5t16.5 67.5v499h104v-516q0 -159 -167 -159q-44 0 -76 13z" />
    <glyph glyph-name="Jcircumflex.small" horiz-adv-x="287" 
d="M-38 -132l20 80q25 -7 45 -7q41 0 57.5 22.5t16.5 67.5v499h104v-516q0 -159 -167 -159q-44 0 -76 13zM9 566l99 147h88l100 -147h-84l-60 86l-59 -86h-84z" />
    <glyph glyph-name="Kcommaaccent.small" horiz-adv-x="519" 
d="M82 0v530h104v-238h2l191 238h112l-215 -267l231 -263h-122l-197 226h-2v-226h-104zM199 -237l-26 64q73 17 73 64q0 27 -21 57h90q23 -32 23 -72q0 -93 -139 -113z" />
    <glyph glyph-name="Lacute.small" horiz-adv-x="401" 
d="M84 566l58 147h114l-93 -147h-79zM82 0v530h104v-445h204v-85h-308z" />
    <glyph glyph-name="Lcaron.small" horiz-adv-x="401" 
d="M82 0v530h104v-445h204v-85h-308zM247 381l36 196h104l-61 -196h-79z" />
    <glyph glyph-name="Lcommaaccent.small" horiz-adv-x="401" 
d="M82 0v530h104v-445h204v-85h-308zM167 -237l-26 64q73 17 73 64q0 27 -21 57h90q23 -32 23 -72q0 -93 -139 -113z" />
    <glyph glyph-name="Lslash.small" horiz-adv-x="400" 
d="M185 345l115 66v-93l-115 -67v-166h204v-85h-308v193l-54 -32v93l54 32v244h104v-185z" />
    <glyph glyph-name="Ldot.small" horiz-adv-x="401" 
d="M333 229q-25 0 -42.5 18.5t-17.5 44.5t17.5 44t42.5 18t42.5 -18t17.5 -44t-17.5 -44.5t-42.5 -18.5zM82 0v530h104v-445h204v-85h-308z" />
    <glyph glyph-name="Nacute.small" horiz-adv-x="658" 
d="M282 566l58 147h114l-93 -147h-79zM472 153h2q-2 56 -2 121v256h104v-530h-94l-212 269q-48 61 -85 117h-1q2 -74 2 -118v-268h-104v530h99l204 -259q40 -49 87 -118z" />
    <glyph glyph-name="Ncaron.small" horiz-adv-x="658" 
d="M282 566l-100 147h85l60 -85l59 85h83l-99 -147h-88zM472 153h2q-2 56 -2 121v256h104v-530h-94l-212 269q-48 61 -85 117h-1q2 -74 2 -118v-268h-104v530h99l204 -259q40 -49 87 -118z" />
    <glyph glyph-name="Cacute.small" horiz-adv-x="519" 
d="M266 566l58 147h114l-93 -147h-79zM460 109l30 -76q-77 -43 -170 -43q-125 0 -198.5 73.5t-73.5 192.5q0 128 79.5 206t200.5 78q80 0 137 -30v-84q-58 30 -123 30q-87 0 -137 -55t-50 -140t47.5 -136t125.5 -51q74 0 132 35z" />
    <glyph glyph-name="Ntilde.small" horiz-adv-x="658" 
d="M179 584v34q0 38 22 59.5t56 21.5q31 0 74 -23t56 -23q15 0 19.5 9.5t4.5 30.5h69v-34q0 -38 -22 -59.5t-56 -21.5q-30 0 -73.5 22.5t-56.5 22.5q-14 0 -18.5 -9t-4.5 -30h-70zM472 153h2q-2 56 -2 121v256h104v-530h-94l-212 269q-48 61 -85 117h-1q2 -74 2 -118v-268
h-104v530h99l204 -259q40 -49 87 -118z" />
    <glyph glyph-name="Ncommaaccent.small" horiz-adv-x="658" 
d="M472 153h2q-2 56 -2 121v256h104v-530h-94l-212 269q-48 61 -85 117h-1q2 -74 2 -118v-268h-104v530h99l204 -259q40 -49 87 -118zM259 -237l-26 64q73 17 73 64q0 27 -21 57h90q23 -32 23 -72q0 -93 -139 -113z" />
    <glyph glyph-name="Ograve.small" horiz-adv-x="640" 
d="M280 566l-93 147h116l58 -147h-81zM320 74q74 0 119.5 51.5t45.5 139.5t-45.5 139.5t-119.5 51.5t-119.5 -51.5t-45.5 -139.5t45.5 -139.5t119.5 -51.5zM320 540q120 0 196 -76.5t76 -198.5q0 -121 -76 -198t-196 -77q-119 0 -195.5 77t-76.5 198q0 122 76 198.5
t196 76.5z" />
    <glyph glyph-name="Oacute.small" horiz-adv-x="640" 
d="M280 566l58 147h114l-93 -147h-79zM320 74q74 0 119.5 51.5t45.5 139.5t-45.5 139.5t-119.5 51.5t-119.5 -51.5t-45.5 -139.5t45.5 -139.5t119.5 -51.5zM320 540q120 0 196 -76.5t76 -198.5q0 -121 -76 -198t-196 -77q-119 0 -195.5 77t-76.5 198q0 122 76 198.5
t196 76.5z" />
    <glyph glyph-name="Ocircumflex.small" horiz-adv-x="640" 
d="M320 74q74 0 119.5 51.5t45.5 139.5t-45.5 139.5t-119.5 51.5t-119.5 -51.5t-45.5 -139.5t45.5 -139.5t119.5 -51.5zM320 540q120 0 196 -76.5t76 -198.5q0 -121 -76 -198t-196 -77q-119 0 -195.5 77t-76.5 198q0 122 76 198.5t196 76.5zM175 566l99 147h88l100 -147h-84
l-60 86l-59 -86h-84z" />
    <glyph glyph-name="Otilde.small" horiz-adv-x="640" 
d="M167 584v34q0 38 22 59.5t56 21.5q31 0 74 -23t56 -23q15 0 19.5 9.5t4.5 30.5h69v-34q0 -38 -22 -59.5t-56 -21.5q-30 0 -73.5 22.5t-56.5 22.5q-14 0 -18.5 -9t-4.5 -30h-70zM320 74q74 0 119.5 51.5t45.5 139.5t-45.5 139.5t-119.5 51.5t-119.5 -51.5t-45.5 -139.5
t45.5 -139.5t119.5 -51.5zM320 540q120 0 196 -76.5t76 -198.5q0 -121 -76 -198t-196 -77q-119 0 -195.5 77t-76.5 198q0 122 76 198.5t196 76.5z" />
    <glyph glyph-name="Odieresis.small" horiz-adv-x="640" 
d="M320 74q74 0 119.5 51.5t45.5 139.5t-45.5 139.5t-119.5 51.5t-119.5 -51.5t-45.5 -139.5t45.5 -139.5t119.5 -51.5zM320 540q120 0 196 -76.5t76 -198.5q0 -121 -76 -198t-196 -77q-119 0 -195.5 77t-76.5 198q0 122 76 198.5t196 76.5zM225 579q-23 0 -39.5 16.5
t-16.5 39.5t16.5 39.5t39.5 16.5t39 -16.5t16 -39.5t-16 -39.5t-39 -16.5zM411 579q-23 0 -39 16.5t-16 39.5t16 39.5t39 16.5t39 -16.5t16 -39.5t-16 -39.5t-39 -16.5z" />
    <glyph glyph-name="Omacron.small" horiz-adv-x="640" 
d="M183 605v81h273v-81h-273zM320 74q74 0 119.5 51.5t45.5 139.5t-45.5 139.5t-119.5 51.5t-119.5 -51.5t-45.5 -139.5t45.5 -139.5t119.5 -51.5zM320 540q120 0 196 -76.5t76 -198.5q0 -121 -76 -198t-196 -77q-119 0 -195.5 77t-76.5 198q0 122 76 198.5t196 76.5z" />
    <glyph glyph-name="Obreve.small" horiz-adv-x="640" 
d="M384 711h72q-4 -62 -41.5 -98t-98.5 -36q-60 0 -97 36t-41 98h72q8 -67 67 -67t67 67zM320 74q74 0 119.5 51.5t45.5 139.5t-45.5 139.5t-119.5 51.5t-119.5 -51.5t-45.5 -139.5t45.5 -139.5t119.5 -51.5zM320 540q120 0 196 -76.5t76 -198.5q0 -121 -76 -198t-196 -77
q-119 0 -195.5 77t-76.5 198q0 122 76 198.5t196 76.5z" />
    <glyph glyph-name="Ohungarumlaut.small" horiz-adv-x="640" 
d="M320 74q74 0 119.5 51.5t45.5 139.5t-45.5 139.5t-119.5 51.5t-119.5 -51.5t-45.5 -139.5t45.5 -139.5t119.5 -51.5zM320 540q120 0 196 -76.5t76 -198.5q0 -121 -76 -198t-196 -77q-119 0 -195.5 77t-76.5 198q0 122 76 198.5t196 76.5zM193 566l58 147h116l-93 -147
h-81zM362 566l58 147h116l-93 -147h-81z" />
    <glyph glyph-name="Oslash.small" horiz-adv-x="640" 
d="M72 13l47 59q-71 76 -71 193q0 122 76 198.5t196 76.5q84 0 149 -42l48 58l52 -39l-48 -59q71 -76 71 -193q0 -121 -76 -198t-196 -77q-83 0 -149 41l-48 -57zM154 265q0 -65 29 -115l229 277q-40 29 -92 29q-74 0 -120 -52t-46 -139zM320 74q74 0 120 52t46 139
q0 65 -30 114l-228 -277q40 -28 92 -28z" />
    <glyph glyph-name="Oslashacute.small" horiz-adv-x="640" 
d="M276 566l58 147h114l-93 -147h-79zM72 13l47 59q-71 76 -71 193q0 122 76 198.5t196 76.5q84 0 149 -42l48 58l52 -39l-48 -59q71 -76 71 -193q0 -121 -76 -198t-196 -77q-83 0 -149 41l-48 -57zM154 265q0 -65 29 -115l229 277q-40 29 -92 29q-74 0 -120 -52t-46 -139z
M320 74q74 0 120 52t46 139q0 65 -30 114l-228 -277q40 -28 92 -28z" />
    <glyph glyph-name="OE.small" horiz-adv-x="791" 
d="M728 0h-213q-45 0 -108.5 -4t-86.5 -4q-124 0 -198 76t-74 196q0 119 75 196.5t201 77.5q22 0 78 -4t101 -4h233l-30 -81h-191v-141h190v-81h-190v-146h213v-81zM411 89v351q-45 15 -85 15q-80 0 -125.5 -53t-45.5 -138q0 -86 44 -137.5t128 -51.5q30 0 84 14z" />
    <glyph glyph-name="Racute.small" horiz-adv-x="519" 
d="M195 566l58 147h114l-93 -147h-79zM343 232v-2q26 -17 65 -79l92 -151h-112l-80 131q-35 59 -59 65h-63v-196h-104v530h173q100 0 146 -45t46 -111q0 -49 -26 -87t-78 -55zM186 277h66q43 0 67.5 24t24.5 63q0 38 -24 61.5t-70 23.5h-64v-172z" />
    <glyph glyph-name="Rcaron.small" horiz-adv-x="519" 
d="M205 566l-100 147h85l60 -85l59 85h83l-99 -147h-88zM343 232v-2q26 -17 65 -79l92 -151h-112l-80 131q-35 59 -59 65h-63v-196h-104v530h173q100 0 146 -45t46 -111q0 -49 -26 -87t-78 -55zM186 277h66q43 0 67.5 24t24.5 63q0 38 -24 61.5t-70 23.5h-64v-172z" />
    <glyph glyph-name="Rcommaaccent.small" horiz-adv-x="519" 
d="M343 232v-2q26 -17 65 -79l92 -151h-112l-80 131q-35 59 -59 65h-63v-196h-104v530h173q100 0 146 -45t46 -111q0 -49 -26 -87t-78 -55zM186 277h66q43 0 67.5 24t24.5 63q0 38 -24 61.5t-70 23.5h-64v-172zM201 -237l-26 64q73 17 73 64q0 27 -21 57h90q23 -32 23 -72
q0 -93 -139 -113z" />
    <glyph glyph-name="Sacute.small" horiz-adv-x="450" 
d="M195 566l58 147h114l-93 -147h-79zM45 31l35 75q61 -34 123 -34q39 0 67.5 17.5t28.5 52.5q0 30 -24 51.5t-58.5 36.5t-69 32.5t-58.5 51t-24 80.5q0 64 47 105t130 41q76 0 137 -25v-87q-65 31 -129 31q-33 0 -56.5 -15t-23.5 -47q0 -24 17.5 -41.5t43.5 -28t56.5 -25.5
t56.5 -31.5t43.5 -48t17.5 -73.5q0 -74 -55 -116.5t-141 -42.5q-93 0 -164 41z" />
    <glyph glyph-name="Scircumflex.small" horiz-adv-x="450" 
d="M45 31l35 75q61 -34 123 -34q39 0 67.5 17.5t28.5 52.5q0 30 -24 51.5t-58.5 36.5t-69 32.5t-58.5 51t-24 80.5q0 64 47 105t130 41q76 0 137 -25v-87q-65 31 -129 31q-33 0 -56.5 -15t-23.5 -47q0 -24 17.5 -41.5t43.5 -28t56.5 -25.5t56.5 -31.5t43.5 -48t17.5 -73.5
q0 -74 -55 -116.5t-141 -42.5q-93 0 -164 41zM85 566l99 147h88l100 -147h-84l-60 86l-59 -86h-84z" />
    <glyph glyph-name="Scaron.small" horiz-adv-x="450" 
d="M190 566l-100 147h85l60 -85l59 85h83l-99 -147h-88zM45 31l35 75q61 -34 123 -34q39 0 67.5 17.5t28.5 52.5q0 30 -24 51.5t-58.5 36.5t-69 32.5t-58.5 51t-24 80.5q0 64 47 105t130 41q76 0 137 -25v-87q-65 31 -129 31q-33 0 -56.5 -15t-23.5 -47q0 -24 17.5 -41.5
t43.5 -28t56.5 -25.5t56.5 -31.5t43.5 -48t17.5 -73.5q0 -74 -55 -116.5t-141 -42.5q-93 0 -164 41z" />
    <glyph glyph-name="Scedilla.small" horiz-adv-x="450" 
d="M112 -201l15 52q24 -9 49 -9q50 0 50 34q0 21 -21 28t-62 7l25 82q-71 8 -123 38l35 75q61 -34 123 -34q39 0 67.5 17.5t28.5 52.5q0 30 -24 51.5t-58.5 36.5t-69 32.5t-58.5 51t-24 80.5q0 64 47 105t130 41q76 0 137 -25v-87q-65 31 -129 31q-33 0 -56.5 -15t-23.5 -47
q0 -24 17.5 -41.5t43.5 -28t56.5 -25.5t56.5 -31.5t43.5 -48t17.5 -73.5q0 -66 -44 -106.5t-115 -49.5l-13 -44q83 -5 83 -73q0 -40 -34 -64t-98 -24q-41 0 -72 11z" />
    <glyph glyph-name="Scommaaccent.small" horiz-adv-x="450" 
d="M45 31l35 75q61 -34 123 -34q39 0 67.5 17.5t28.5 52.5q0 30 -24 51.5t-58.5 36.5t-69 32.5t-58.5 51t-24 80.5q0 64 47 105t130 41q76 0 137 -25v-87q-65 31 -129 31q-33 0 -56.5 -15t-23.5 -47q0 -24 17.5 -41.5t43.5 -28t56.5 -25.5t56.5 -31.5t43.5 -48t17.5 -73.5
q0 -74 -55 -116.5t-141 -42.5q-93 0 -164 41zM152 -237l-26 64q73 17 73 64q0 27 -21 57h90q23 -32 23 -72q0 -93 -139 -113z" />
    <glyph glyph-name="Tcaron.small" horiz-adv-x="456" 
d="M183 566l-100 147h85l60 -85l59 85h83l-99 -147h-88zM175 0v445h-162v85h444l-30 -85h-148v-445h-104z" />
    <glyph glyph-name="Tcommaaccent.small" horiz-adv-x="456" 
d="M175 0v445h-162v85h444l-30 -85h-148v-445h-104zM155 -237l-26 64q73 17 73 64q0 27 -21 57h90q23 -32 23 -72q0 -93 -139 -113z" />
    <glyph glyph-name="Tbar.small" horiz-adv-x="456" 
d="M83 208v81h92v156h-162v85h444l-30 -85h-148v-156h91v-81h-91v-208h-104v208h-92z" />
    <glyph glyph-name="Ugrave.small" horiz-adv-x="615" 
d="M275 566l-93 147h116l58 -147h-81zM536 530v-327q0 -107 -62.5 -160t-167.5 -53q-104 0 -165.5 53t-61.5 159v328h104v-323q0 -66 32.5 -100t92.5 -34q58 0 91 34t33 100v323h104z" />
    <glyph glyph-name="Uacute.small" horiz-adv-x="615" 
d="M265 566l58 147h114l-93 -147h-79zM536 530v-327q0 -107 -62.5 -160t-167.5 -53q-104 0 -165.5 53t-61.5 159v328h104v-323q0 -66 32.5 -100t92.5 -34q58 0 91 34t33 100v323h104z" />
    <glyph glyph-name="Ucircumflex.small" horiz-adv-x="615" 
d="M536 530v-327q0 -107 -62.5 -160t-167.5 -53q-104 0 -165.5 53t-61.5 159v328h104v-323q0 -66 32.5 -100t92.5 -34q58 0 91 34t33 100v323h104zM165 566l99 147h88l100 -147h-84l-60 86l-59 -86h-84z" />
    <glyph glyph-name="Utilde.small" horiz-adv-x="615" 
d="M159 584v34q0 38 22 59.5t56 21.5q31 0 74 -23t56 -23q15 0 19.5 9.5t4.5 30.5h69v-34q0 -38 -22 -59.5t-56 -21.5q-30 0 -73.5 22.5t-56.5 22.5q-14 0 -18.5 -9t-4.5 -30h-70zM536 530v-327q0 -107 -62.5 -160t-167.5 -53q-104 0 -165.5 53t-61.5 159v328h104v-323
q0 -66 32.5 -100t92.5 -34q58 0 91 34t33 100v323h104z" />
    <glyph glyph-name="Udieresis.small" horiz-adv-x="615" 
d="M536 530v-327q0 -107 -62.5 -160t-167.5 -53q-104 0 -165.5 53t-61.5 159v328h104v-323q0 -66 32.5 -100t92.5 -34q58 0 91 34t33 100v323h104zM217 579q-23 0 -39.5 16.5t-16.5 39.5t16.5 39.5t39.5 16.5t39 -16.5t16 -39.5t-16 -39.5t-39 -16.5zM403 579
q-23 0 -39 16.5t-16 39.5t16 39.5t39 16.5t39 -16.5t16 -39.5t-16 -39.5t-39 -16.5z" />
    <glyph glyph-name="Umacron.small" horiz-adv-x="615" 
d="M171 605v81h273v-81h-273zM536 530v-327q0 -107 -62.5 -160t-167.5 -53q-104 0 -165.5 53t-61.5 159v328h104v-323q0 -66 32.5 -100t92.5 -34q58 0 91 34t33 100v323h104z" />
    <glyph glyph-name="Ubreve.small" horiz-adv-x="615" 
d="M376 711h72q-4 -62 -41.5 -98t-98.5 -36q-60 0 -97 36t-41 98h72q8 -67 67 -67t67 67zM536 530v-327q0 -107 -62.5 -160t-167.5 -53q-104 0 -165.5 53t-61.5 159v328h104v-323q0 -66 32.5 -100t92.5 -34q58 0 91 34t33 100v323h104z" />
    <glyph glyph-name="Uring.small" horiz-adv-x="615" 
d="M308 558q-50 0 -81 26.5t-31 70.5t31 70t81 26t81 -26t31 -70t-31 -70.5t-81 -26.5zM308 606q20 0 32 13t12 36q0 22 -12 35t-32 13t-32 -13t-12 -35q0 -23 12 -36t32 -13zM536 530v-327q0 -107 -62.5 -160t-167.5 -53q-104 0 -165.5 53t-61.5 159v328h104v-323
q0 -66 32.5 -100t92.5 -34q58 0 91 34t33 100v323h104z" />
    </font>
</defs>
</svg>
